SplineFontDB: 3.2
FontName: Sapota1
FullName: Sapota1
FamilyName: Sapota1
Weight: Regular
Copyright: Copyright (c) 2023, 
UComments: "2023-1-11: Created with FontForge (http://fontforge.org)"
Version: 001.000
ItalicAngle: 0
UnderlinePosition: -100
UnderlineWidth: 50
Ascent: 800
Descent: 200
InvalidEm: 0
LayerCount: 2
Layer: 0 0 "+gMyXYgAA" 1
Layer: 1 0 "+Uk2XYgAA" 0
XUID: [1021 386 1071978211 5870703]
StyleMap: 0x0000
FSType: 0
OS2Version: 0
OS2_WeightWidthSlopeOnly: 0
OS2_UseTypoMetrics: 1
CreationTime: 1673398754
ModificationTime: 1703217426
OS2TypoAscent: 0
OS2TypoAOffset: 1
OS2TypoDescent: 0
OS2TypoDOffset: 1
OS2TypoLinegap: 90
OS2WinAscent: 0
OS2WinAOffset: 1
OS2WinDescent: 0
OS2WinDOffset: 1
HheadAscent: 0
HheadAOffset: 1
HheadDescent: 0
HheadDOffset: 1
MarkAttachClasses: 1
DEI: 91125
Encoding: ISO8859-1
UnicodeInterp: none
NameList: AGL For New Fonts
DisplaySize: -48
AntiAlias: 1
FitToEm: 0
WinInfo: 0 52 17
BeginPrivate: 0
EndPrivate
BeginChars: 706 449

StartChar: unie000
Encoding: 257 57344 0
Width: 529
GlyphClass: 1
Flags: HW
LayerCount: 2
Fore
SplineSet
50 642.623046875 m 1
 479.141601562 642.623046875 l 1
 479.141601562 -0.029296875 l 1
 406.45703125 -0.029296875 l 1
 406.45703125 569.938476562 l 1
 50 569.938476562 l 1
 50 642.623046875 l 1
EndSplineSet
Validated: 524289
EndChar

StartChar: unie001
Encoding: 258 57345 1
Width: 529
GlyphClass: 1
Flags: HW
LayerCount: 2
Fore
SplineSet
121.684570312 72.6552734375 m 1
 478.141601562 72.6552734375 l 1
 478.141601562 -0.029296875 l 1
 49 -0.029296875 l 1
 49 642.623046875 l 1
 121.684570312 642.623046875 l 1
 121.684570312 72.6552734375 l 1
EndSplineSet
Validated: 524289
EndChar

StartChar: unie002
Encoding: 259 57346 2
Width: 529
GlyphClass: 1
Flags: HW
LayerCount: 2
Fore
SplineSet
406.53515625 642.623046875 m 1
 479.143554688 642.623046875 l 1
 479.143554688 -0.029296875 l 1
 50.078125 -0.029296875 l 1
 50.078125 72.6552734375 l 1
 406.53515625 72.6552734375 l 1
 406.53515625 642.623046875 l 1
EndSplineSet
Validated: 524289
EndChar

StartChar: unie003
Encoding: 260 57347 3
Width: 529
GlyphClass: 1
Flags: HW
LayerCount: 2
Fore
SplineSet
478.141601562 642.623046875 m 1
 478.141601562 569.938476562 l 1
 121.684570312 569.938476562 l 1
 121.684570312 -0.029296875 l 1
 49 -0.029296875 l 1
 49 642.623046875 l 1
 478.141601562 642.623046875 l 1
EndSplineSet
Validated: 524289
EndChar

StartChar: unie004
Encoding: 261 57348 4
Width: 541
GlyphClass: 1
Flags: HW
LayerCount: 2
Fore
SplineSet
406.45703125 642.623046875 m 1
 491.255859375 642.623046875 l 1
 134.798828125 -0.029296875 l 1
 50 -0.029296875 l 1
 406.45703125 642.623046875 l 1
EndSplineSet
Validated: 524289
EndChar

StartChar: unie005
Encoding: 262 57349 5
Width: 527
GlyphClass: 1
Flags: HW
LayerCount: 2
Fore
SplineSet
120.608398438 0.0458984375 m 1
 48 0.0458984375 l 1
 48 482.4140625 l 1
 120.608398438 482.4140625 l 1
 120.608398438 0.0458984375 l 1
48 642.622070312 m 1
 477.141601562 642.622070312 l 1
 477.141601562 -0.0302734375 l 1
 404.45703125 -0.0302734375 l 1
 404.45703125 569.9375 l 1
 48 569.9375 l 1
 48 642.622070312 l 1
EndSplineSet
Validated: 524289
EndChar

StartChar: unie006
Encoding: 263 57350 6
Width: 527
GlyphClass: 1
Flags: HW
LayerCount: 2
Fore
SplineSet
121.684570312 642.623046875 m 1
 121.684570312 72.6552734375 l 1
 478.141601562 72.6552734375 l 1
 478.141601562 -0.029296875 l 1
 49 -0.029296875 l 1
 49 642.623046875 l 1
 121.684570312 642.623046875 l 1
478.065429688 160.254882812 m 1
 405.45703125 160.254882812 l 1
 405.45703125 642.623046875 l 1
 478.065429688 642.623046875 l 1
 478.065429688 160.254882812 l 1
EndSplineSet
Validated: 524289
EndChar

StartChar: unie007
Encoding: 264 57351 7
Width: 527
GlyphClass: 1
Flags: HW
LayerCount: 2
Fore
SplineSet
404.53515625 642.623046875 m 1
 477.143554688 642.623046875 l 1
 477.143554688 -0.029296875 l 1
 48.078125 -0.029296875 l 1
 48.078125 72.6552734375 l 1
 404.53515625 72.6552734375 l 1
 404.53515625 642.623046875 l 1
120.686523438 160.254882812 m 1
 48.078125 160.254882812 l 1
 48.078125 642.623046875 l 1
 120.686523438 642.623046875 l 1
 120.686523438 160.254882812 l 1
EndSplineSet
Validated: 524289
EndChar

StartChar: unie008
Encoding: 265 57352 8
Width: 527
GlyphClass: 1
Flags: HW
LayerCount: 2
Fore
SplineSet
49 642.623046875 m 1
 478.141601562 642.623046875 l 1
 478.141601562 569.938476562 l 1
 121.684570312 569.938476562 l 1
 121.684570312 -0.029296875 l 1
 49 -0.029296875 l 1
 49 642.623046875 l 1
478.065429688 0.046875 m 1
 405.45703125 0.046875 l 1
 405.45703125 482.415039062 l 1
 478.065429688 482.415039062 l 1
 478.065429688 0.046875 l 1
EndSplineSet
Validated: 524289
EndChar

StartChar: unie009
Encoding: 266 57353 9
Width: 541
GlyphClass: 1
Flags: HW
LayerCount: 2
Fore
SplineSet
491.255859375 642.623046875 m 1
 306.970703125 310.318359375 l 1
 306.970703125 -0.029296875 l 1
 234.286132812 -0.029296875 l 1
 234.286132812 179.41015625 l 1
 134.798828125 -0.029296875 l 1
 50 -0.029296875 l 1
 234.28515625 332.275390625 l 1
 234.28515625 642.623046875 l 1
 306.969726562 642.623046875 l 1
 306.969726562 463.258789062 l 1
 406.45703125 642.623046875 l 1
 491.255859375 642.623046875 l 1
EndSplineSet
Validated: 524289
EndChar

StartChar: unie00a
Encoding: 267 57354 10
Width: 511
GlyphClass: 1
Flags: HW
LayerCount: 2
Fore
SplineSet
273.221679688 0.0458984375 m 1
 32 0.0458984375 l 1
 32 72.654296875 l 1
 273.221679688 72.654296875 l 1
 273.221679688 0.0458984375 l 1
32 642.622070312 m 1
 461.141601562 642.622070312 l 1
 461.141601562 -0.0302734375 l 1
 388.45703125 -0.0302734375 l 1
 388.45703125 569.9375 l 1
 32 569.9375 l 1
 32 642.622070312 l 1
EndSplineSet
Validated: 524289
EndChar

StartChar: unie00b
Encoding: 268 57355 11
Width: 511
GlyphClass: 1
Flags: HW
LayerCount: 2
Fore
SplineSet
121.684570312 642.623046875 m 1
 121.684570312 72.6552734375 l 1
 478.141601562 72.6552734375 l 1
 478.141601562 -0.029296875 l 1
 49 -0.029296875 l 1
 49 642.623046875 l 1
 121.684570312 642.623046875 l 1
478.141601562 570.013671875 m 1
 236.919921875 570.013671875 l 1
 236.919921875 642.622070312 l 1
 478.141601562 642.622070312 l 1
 478.141601562 570.013671875 l 1
EndSplineSet
Validated: 524289
EndChar

StartChar: unie00c
Encoding: 269 57356 12
Width: 512
GlyphClass: 1
Flags: HW
LayerCount: 2
Fore
SplineSet
390.314453125 642.623046875 m 1
 462.922851562 642.623046875 l 1
 462.922851562 -0.029296875 l 1
 33.857421875 -0.029296875 l 1
 33.857421875 72.6552734375 l 1
 390.314453125 72.6552734375 l 1
 390.314453125 642.623046875 l 1
275.002929688 570.014648438 m 1
 32.0400390625 570.014648438 l 1
 32.0400390625 642.623046875 l 1
 275.002929688 642.623046875 l 1
 275.002929688 570.014648438 l 1
EndSplineSet
Validated: 524289
EndChar

StartChar: unie00d
Encoding: 270 57357 13
Width: 511
GlyphClass: 1
Flags: HW
LayerCount: 2
Fore
SplineSet
49.0400390625 642.623046875 m 1
 478.181640625 642.623046875 l 1
 478.181640625 569.938476562 l 1
 121.724609375 569.938476562 l 1
 121.724609375 -0.029296875 l 1
 49.0400390625 -0.029296875 l 1
 49.0400390625 642.623046875 l 1
478.181640625 0.046875 m 1
 236.959960938 0.046875 l 1
 236.959960938 72.6552734375 l 1
 478.181640625 72.6552734375 l 1
 478.181640625 0.046875 l 1
EndSplineSet
Validated: 524289
EndChar

StartChar: unie00e
Encoding: 271 57358 14
Width: 511
GlyphClass: 1
Flags: HW
LayerCount: 2
Fore
SplineSet
476.255859375 642.623046875 m 1
 318.166992188 357.639648438 l 1
 476.255859375 357.639648438 l 1
 476.255859375 284.955078125 l 1
 277.887695312 284.955078125 l 1
 119.798828125 -0.0283203125 l 1
 35 -0.0283203125 l 1
 193.088867188 284.955078125 l 1
 35 284.955078125 l 1
 35 357.639648438 l 1
 233.368164062 357.639648438 l 1
 391.45703125 642.623046875 l 1
 476.255859375 642.623046875 l 1
EndSplineSet
Validated: 524289
EndChar

StartChar: unie00f
Encoding: 272 57359 15
Width: 527
GlyphClass: 1
Flags: HW
LayerCount: 2
Fore
SplineSet
120.646484375 0.0458984375 m 1
 48.0380859375 0.0458984375 l 1
 48.0380859375 482.4140625 l 1
 120.646484375 482.4140625 l 1
 120.646484375 0.0458984375 l 1
262.533203125 0.0458984375 m 1
 189.924804688 0.0458984375 l 1
 189.924804688 482.4140625 l 1
 262.533203125 482.4140625 l 1
 262.533203125 0.0458984375 l 1
48.0390625 642.622070312 m 1
 477.104492188 642.622070312 l 1
 477.104492188 -0.0302734375 l 1
 404.49609375 -0.0302734375 l 1
 404.49609375 569.9375 l 1
 48.0390625 569.9375 l 1
 48.0390625 642.622070312 l 1
EndSplineSet
Validated: 524289
EndChar

StartChar: unie010
Encoding: 273 57360 16
Width: 527
GlyphClass: 1
Flags: HW
LayerCount: 2
Fore
SplineSet
121.6484375 642.623046875 m 1
 121.649414062 72.6552734375 l 1
 478.181640625 72.6552734375 l 1
 478.181640625 -0.029296875 l 1
 49.0400390625 -0.029296875 l 1
 49.0400390625 642.623046875 l 1
 121.6484375 642.623046875 l 1
478.106445312 160.254882812 m 1
 405.498046875 160.254882812 l 1
 405.498046875 642.623046875 l 1
 478.106445312 642.623046875 l 1
 478.106445312 160.254882812 l 1
336.220703125 160.254882812 m 1
 263.612304688 160.254882812 l 1
 263.612304688 642.623046875 l 1
 336.220703125 642.623046875 l 1
 336.220703125 160.254882812 l 1
EndSplineSet
Validated: 524289
EndChar

StartChar: unie011
Encoding: 274 57361 17
Width: 527
GlyphClass: 1
Flags: HW
LayerCount: 2
Fore
SplineSet
404.495117188 642.623046875 m 1
 477.103515625 642.623046875 l 1
 477.103515625 -0.029296875 l 1
 48.0380859375 -0.029296875 l 1
 48.0380859375 72.6552734375 l 1
 404.495117188 72.6552734375 l 1
 404.495117188 642.623046875 l 1
120.646484375 160.254882812 m 1
 48.0380859375 160.254882812 l 1
 48.0380859375 642.623046875 l 1
 120.646484375 642.623046875 l 1
 120.646484375 160.254882812 l 1
262.533203125 160.254882812 m 1
 189.924804688 160.254882812 l 1
 189.924804688 642.623046875 l 1
 262.533203125 642.623046875 l 1
 262.533203125 160.254882812 l 1
EndSplineSet
Validated: 524289
EndChar

StartChar: unie012
Encoding: 275 57362 18
Width: 527
GlyphClass: 1
Flags: HW
LayerCount: 2
Fore
SplineSet
49.0400390625 642.623046875 m 1
 478.181640625 642.623046875 l 1
 478.181640625 569.938476562 l 1
 121.724609375 569.938476562 l 1
 121.724609375 -0.029296875 l 1
 49.0400390625 -0.029296875 l 1
 49.0400390625 642.623046875 l 1
478.10546875 0.046875 m 1
 405.497070312 0.046875 l 1
 405.497070312 482.415039062 l 1
 478.10546875 482.415039062 l 1
 478.10546875 0.046875 l 1
335.538085938 0.046875 m 1
 262.9296875 0.046875 l 1
 262.9296875 482.415039062 l 1
 335.538085938 482.415039062 l 1
 335.538085938 0.046875 l 1
EndSplineSet
Validated: 524289
EndChar

StartChar: unie013
Encoding: 276 57363 19
Width: 540
GlyphClass: 1
Flags: HW
LayerCount: 2
Fore
SplineSet
405.45703125 642.623046875 m 1
 490.256835938 642.623046875 l 1
 490.256835938 -0.029296875 l 1
 417.6484375 -0.029296875 l 1
 417.6484375 511.639648438 l 1
 133.799804688 -0.029296875 l 1
 49.0009765625 -0.029296875 l 1
 49.0009765625 642.623046875 l 1
 121.609375 642.623046875 l 1
 121.609375 130.954101562 l 1
 405.45703125 642.623046875 l 1
EndSplineSet
Validated: 524289
EndChar

StartChar: unie014
Encoding: 277 57364 20
Width: 521
GlyphClass: 1
Flags: HW
LayerCount: 2
Fore
SplineSet
283.301757812 0.0458984375 m 1
 42.080078125 0.0458984375 l 1
 42.080078125 72.654296875 l 1
 283.301757812 72.654296875 l 1
 283.301757812 0.0458984375 l 1
283.301757812 248.6875 m 1
 42.080078125 248.6875 l 1
 42.080078125 321.295898438 l 1
 283.301757812 321.295898438 l 1
 283.301757812 248.6875 l 1
42.080078125 642.622070312 m 1
 471.221679688 642.622070312 l 1
 471.221679688 -0.0302734375 l 1
 398.537109375 -0.0302734375 l 1
 398.537109375 569.9375 l 1
 42.080078125 569.9375 l 1
 42.080078125 642.622070312 l 1
EndSplineSet
Validated: 524289
EndChar

StartChar: unie015
Encoding: 278 57365 21
Width: 521
GlyphClass: 1
Flags: HW
LayerCount: 2
Fore
SplineSet
121.684570312 642.623046875 m 1
 121.684570312 72.6552734375 l 1
 478.141601562 72.6552734375 l 1
 478.141601562 -0.029296875 l 1
 49 -0.029296875 l 1
 49 642.623046875 l 1
 121.684570312 642.623046875 l 1
478.141601562 570.013671875 m 1
 236.919921875 570.013671875 l 1
 236.919921875 642.622070312 l 1
 478.141601562 642.622070312 l 1
 478.141601562 570.013671875 l 1
478.141601562 357.638671875 m 1
 236.919921875 357.638671875 l 1
 236.919921875 430.247070312 l 1
 478.141601562 430.247070312 l 1
 478.141601562 357.638671875 l 1
EndSplineSet
Validated: 524289
EndChar

StartChar: unie016
Encoding: 279 57366 22
Width: 522
GlyphClass: 1
Flags: HW
LayerCount: 2
Fore
SplineSet
400.311523438 642.623046875 m 1
 472.919921875 642.623046875 l 1
 472.919921875 -0.029296875 l 1
 43.8544921875 -0.029296875 l 1
 43.8544921875 72.6552734375 l 1
 400.311523438 72.6552734375 l 1
 400.311523438 642.623046875 l 1
285 570.014648438 m 1
 42.037109375 570.014648438 l 1
 42.037109375 642.623046875 l 1
 285 642.623046875 l 1
 285 570.014648438 l 1
285 357.639648438 m 1
 42.037109375 357.639648438 l 1
 42.037109375 430.248046875 l 1
 285 430.248046875 l 1
 285 357.639648438 l 1
EndSplineSet
Validated: 524289
EndChar

StartChar: unie017
Encoding: 280 57367 23
Width: 521
GlyphClass: 1
Flags: HW
LayerCount: 2
Fore
SplineSet
49 642.623046875 m 1
 478.065429688 642.623046875 l 1
 478.065429688 569.938476562 l 1
 121.608398438 569.938476562 l 1
 121.608398438 -0.029296875 l 1
 49 -0.029296875 l 1
 49 642.623046875 l 1
478.141601562 0.046875 m 1
 236.919921875 0.046875 l 1
 236.919921875 72.6552734375 l 1
 478.141601562 72.6552734375 l 1
 478.141601562 0.046875 l 1
478.141601562 248.688476562 m 1
 236.919921875 248.688476562 l 1
 236.919921875 321.296875 l 1
 478.141601562 321.296875 l 1
 478.141601562 248.688476562 l 1
EndSplineSet
Validated: 524289
EndChar

StartChar: unie018
Encoding: 281 57368 24
Width: 513
GlyphClass: 1
Flags: HW
LayerCount: 2
Fore
SplineSet
476.255859375 642.623046875 m 1
 476.255859375 569.938476562 l 1
 119.798828125 72.6552734375 l 1
 476.255859375 72.6552734375 l 1
 476.255859375 -0.029296875 l 1
 35 -0.029296875 l 1
 35 72.6552734375 l 1
 391.45703125 569.938476562 l 1
 35 569.938476562 l 1
 35 642.623046875 l 1
 476.255859375 642.623046875 l 1
EndSplineSet
Validated: 524289
EndChar

StartChar: unie019
Encoding: 282 57369 25
Width: 529
GlyphClass: 1
Flags: HW
LayerCount: 2
Fore
SplineSet
50.0380859375 642.623046875 m 1
 479.102539062 642.623046875 l 1
 479.102539062 -0.029296875 l 1
 406.494140625 -0.029296875 l 1
 406.494140625 569.938476562 l 1
 264.532226562 569.938476562 l 1
 264.532226562 -0.029296875 l 1
 191.923828125 -0.029296875 l 1
 191.923828125 569.938476562 l 1
 50.0380859375 569.938476562 l 1
 50.0380859375 642.623046875 l 1
EndSplineSet
Validated: 524289
EndChar

StartChar: unie01a
Encoding: 283 57370 26
Width: 513
GlyphClass: 1
Flags: HW
LayerCount: 2
Fore
SplineSet
476.255859375 642.623046875 m 1
 476.255859375 569.938476562 l 1
 119.798828125 72.6552734375 l 1
 476.255859375 72.6552734375 l 1
 476.255859375 -0.029296875 l 1
 35 -0.029296875 l 1
 35 72.6552734375 l 1
 391.45703125 569.938476562 l 1
 35 569.938476562 l 1
 35 642.623046875 l 1
 476.255859375 642.623046875 l 1
EndSplineSet
Validated: 524289
EndChar

StartChar: unie01b
Encoding: 284 57371 27
Width: 511
GlyphClass: 1
Flags: HW
LayerCount: 2
Fore
SplineSet
32 642.623046875 m 1
 461.141601562 642.623046875 l 1
 461.141601562 -0.029296875 l 1
 32 -0.029296875 l 1
 32 72.6552734375 l 1
 388.532226562 72.6552734375 l 1
 388.532226562 569.938476562 l 1
 32 569.938476562 l 1
 32 642.623046875 l 1
EndSplineSet
Validated: 524289
EndChar

StartChar: unie01c
Encoding: 285 57372 28
Width: 528
GlyphClass: 1
Flags: HW
LayerCount: 2
Fore
SplineSet
49 642.623046875 m 1
 478.141601562 642.623046875 l 1
 478.141601562 -0.029296875 l 1
 405.45703125 -0.029296875 l 1
 405.45703125 569.938476562 l 1
 121.684570312 569.938476562 l 1
 121.684570312 -0.029296875 l 1
 49 -0.029296875 l 1
 49 642.623046875 l 1
EndSplineSet
Validated: 524289
EndChar

StartChar: unie01d
Encoding: 286 57373 29
Width: 521
GlyphClass: 1
Flags: HW
LayerCount: 2
Fore
SplineSet
30 642.623046875 m 1
 471.331054688 642.623046875 l 1
 471.331054688 -0.029296875 l 1
 398.646484375 -0.029296875 l 1
 398.646484375 453.794921875 l 1
 114.798828125 -0.029296875 l 1
 30 -0.029296875 l 1
 386.45703125 569.938476562 l 1
 30 569.938476562 l 1
 30 642.623046875 l 1
EndSplineSet
Validated: 524289
EndChar

StartChar: unie01e
Encoding: 287 57374 30
Width: 529
GlyphClass: 1
Flags: HW
LayerCount: 2
Fore
SplineSet
336.219726562 72.6552734375 m 1
 478.182617188 72.6552734375 l 1
 478.182617188 -0.029296875 l 1
 49.041015625 -0.029296875 l 1
 49.041015625 642.623046875 l 1
 121.649414062 642.623046875 l 1
 121.649414062 72.6552734375 l 1
 263.611328125 72.6552734375 l 1
 263.611328125 642.623046875 l 1
 336.219726562 642.623046875 l 1
 336.219726562 72.6552734375 l 1
EndSplineSet
Validated: 524289
EndChar

StartChar: unie01f
Encoding: 288 57375 31
Width: 528
GlyphClass: 1
Flags: HW
LayerCount: 2
Fore
SplineSet
405.497070312 642.623046875 m 1
 478.181640625 642.623046875 l 1
 478.181640625 -0.029296875 l 1
 49.0400390625 -0.029296875 l 1
 49.0400390625 642.623046875 l 1
 121.724609375 642.623046875 l 1
 121.724609375 72.6552734375 l 1
 405.497070312 72.6552734375 l 1
 405.497070312 642.623046875 l 1
EndSplineSet
Validated: 524289
EndChar

StartChar: unie020
Encoding: 289 57376 32
Width: 511
GlyphClass: 1
Flags: HW
LayerCount: 2
Fore
SplineSet
478.141601562 569.938476562 m 1
 121.684570312 569.938476562 l 1
 121.684570312 72.6552734375 l 1
 478.141601562 72.6552734375 l 1
 478.141601562 -0.029296875 l 1
 49 -0.029296875 l 1
 49 642.623046875 l 1
 478.141601562 642.623046875 l 1
 478.141601562 569.938476562 l 1
EndSplineSet
Validated: 524289
EndChar

StartChar: unie021
Encoding: 290 57377 33
Width: 521
GlyphClass: 1
Flags: HW
LayerCount: 2
Fore
SplineSet
490.331054688 642.623046875 m 1
 133.798828125 72.6552734375 l 1
 490.331054688 72.6552734375 l 1
 490.331054688 -0.029296875 l 1
 49 -0.029296875 l 1
 49 642.623046875 l 1
 121.684570312 642.623046875 l 1
 121.684570312 188.798828125 l 1
 405.45703125 642.623046875 l 1
 490.331054688 642.623046875 l 1
EndSplineSet
Validated: 524289
EndChar

StartChar: unie022
Encoding: 291 57378 34
Width: 530
GlyphClass: 1
Flags: HW
LayerCount: 2
Fore
SplineSet
408.198242188 642.623046875 m 1
 480.806640625 642.623046875 l 1
 480.806640625 -0.029296875 l 1
 50 -0.029296875 l 1
 50 72.6552734375 l 1
 193.627929688 72.6552734375 l 1
 193.627929688 642.623046875 l 1
 266.236328125 642.623046875 l 1
 266.236328125 72.6552734375 l 1
 408.198242188 72.6552734375 l 1
 408.198242188 642.623046875 l 1
EndSplineSet
Validated: 524289
EndChar

StartChar: unie023
Encoding: 292 57379 35
Width: 513
GlyphClass: 1
Flags: HW
LayerCount: 2
Fore
SplineSet
477.331054688 642.623046875 m 1
 477.331054688 569.938476562 l 1
 120.874023438 569.938476562 l 1
 477.331054688 72.6552734375 l 1
 477.331054688 -0.029296875 l 1
 36 -0.029296875 l 1
 36 72.6552734375 l 1
 392.45703125 72.6552734375 l 1
 36 569.938476562 l 1
 36 642.623046875 l 1
 477.331054688 642.623046875 l 1
EndSplineSet
Validated: 524289
EndChar

StartChar: unie024
Encoding: 293 57380 36
Width: 512
GlyphClass: 1
Flags: HW
LayerCount: 2
Fore
SplineSet
377.45703125 642.623046875 m 1
 462.255859375 642.623046875 l 1
 462.255859375 0.046875 l 1
 21 0.046875 l 1
 21 72.6552734375 l 1
 377.45703125 642.623046875 l 1
105.798828125 72.6552734375 m 1
 389.646484375 72.6552734375 l 1
 389.646484375 526.479492188 l 1
 105.798828125 72.6552734375 l 1
EndSplineSet
Validated: 524289
EndChar

StartChar: unie025
Encoding: 294 57381 37
Width: 530
GlyphClass: 1
Flags: HW
LayerCount: 2
Fore
SplineSet
479.806640625 642.623046875 m 1
 479.806640625 569.938476562 l 1
 336.178710938 569.938476562 l 1
 336.178710938 -0.029296875 l 1
 263.5703125 -0.029296875 l 1
 263.5703125 569.938476562 l 1
 121.608398438 569.938476562 l 1
 121.608398438 -0.029296875 l 1
 49 -0.029296875 l 1
 49 642.623046875 l 1
 479.806640625 642.623046875 l 1
EndSplineSet
Validated: 524289
EndChar

StartChar: unie026
Encoding: 295 57382 38
Width: 511
GlyphClass: 1
Flags: HW
LayerCount: 2
Fore
SplineSet
49.0400390625 642.623046875 m 1
 490.295898438 642.623046875 l 1
 490.295898438 570.014648438 l 1
 133.838867188 0.046875 l 1
 49.0400390625 0.046875 l 1
 49.0400390625 642.623046875 l 1
121.649414062 116.190429688 m 1
 405.498046875 570.014648438 l 1
 121.649414062 570.014648438 l 1
 121.649414062 116.190429688 l 1
EndSplineSet
Validated: 524289
EndChar

StartChar: unie027
Encoding: 296 57383 39
Width: 502
GlyphClass: 1
Flags: HW
LayerCount: 2
Fore
SplineSet
471.255859375 642.623046875 m 1
 293.02734375 321.296875 l 1
 471.255859375 -0.029296875 l 1
 386.45703125 -0.029296875 l 1
 250.627929688 244.826171875 l 1
 114.798828125 -0.029296875 l 1
 30 -0.029296875 l 1
 208.228515625 321.296875 l 1
 30 642.623046875 l 1
 114.798828125 642.623046875 l 1
 250.627929688 397.767578125 l 1
 386.45703125 642.623046875 l 1
 471.255859375 642.623046875 l 1
EndSplineSet
Validated: 524289
EndChar

StartChar: unie028
Encoding: 297 57384 40
Width: 501
GlyphClass: 1
Flags: HW
LayerCount: 2
Fore
SplineSet
378.45703125 642.623046875 m 1
 451.141601562 642.624023438 l 1
 451.141601562 -0.0283203125 l 1
 378.45703125 -0.0283203125 l 1
 378.45703125 284.955078125 l 1
 22 284.955078125 l 1
 22 357.639648438 l 1
 378.45703125 357.639648438 l 1
 378.45703125 642.623046875 l 1
EndSplineSet
Validated: 524289
EndChar

StartChar: unie029
Encoding: 298 57385 41
Width: 501
GlyphClass: 1
Flags: HW
LayerCount: 2
Fore
SplineSet
478.141601562 357.638671875 m 1
 478.141601562 284.953125 l 1
 121.609375 284.953125 l 1
 121.609375 -0.0302734375 l 1
 49.0009765625 -0.0302734375 l 1
 49.0009765625 642.622070312 l 1
 121.609375 642.622070312 l 1
 121.609375 357.638671875 l 1
 478.141601562 357.638671875 l 1
EndSplineSet
Validated: 524289
EndChar

StartChar: unie02a
Encoding: 299 57386 42
Width: 529
GlyphClass: 1
Flags: HW
LayerCount: 2
Fore
SplineSet
479.141601562 642.623046875 m 1
 479.141601562 569.938476562 l 1
 300.913085938 569.938476562 l 1
 300.913085938 -0.029296875 l 1
 228.228515625 -0.029296875 l 1
 228.228515625 569.938476562 l 1
 50 569.938476562 l 1
 50 642.623046875 l 1
 479.141601562 642.623046875 l 1
EndSplineSet
Validated: 524289
EndChar

StartChar: unie02b
Encoding: 300 57387 43
Width: 529
GlyphClass: 1
Flags: HW
LayerCount: 2
Fore
SplineSet
300.836914062 72.6552734375 m 1
 479.141601562 72.6552734375 l 1
 479.141601562 -0.029296875 l 1
 50 -0.029296875 l 1
 50 72.6552734375 l 1
 228.228515625 72.6552734375 l 1
 228.228515625 642.623046875 l 1
 300.836914062 642.623046875 l 1
 300.836914062 72.6552734375 l 1
EndSplineSet
Validated: 524289
EndChar

StartChar: unie02c
Encoding: 301 57388 44
Width: 171
GlyphClass: 1
Flags: HW
LayerCount: 2
Fore
SplineSet
121.608398438 0.0458984375 m 1
 49 0.0458984375 l 1
 49 642.622070312 l 1
 121.608398438 642.622070312 l 1
 121.608398438 0.0458984375 l 1
EndSplineSet
Validated: 524289
EndChar

StartChar: unie02d
Encoding: 302 57389 45
Width: 486
GlyphClass: 1
Flags: HW
LayerCount: 2
Fore
SplineSet
457.141601562 285.030273438 m 1
 28 285.030273438 l 1
 28 357.638671875 l 1
 457.141601562 357.638671875 l 1
 457.141601562 285.030273438 l 1
EndSplineSet
Validated: 524289
EndChar

StartChar: unie02e
Encoding: 303 57390 46
Width: 496
GlyphClass: 1
Flags: HW
LayerCount: 2
Fore
SplineSet
462.141601562 570.013671875 m 1
 33 570.013671875 l 1
 33 642.622070312 l 1
 462.141601562 642.622070312 l 1
 462.141601562 570.013671875 l 1
462.141601562 0.0458984375 m 1
 33 0.0458984375 l 1
 33 72.654296875 l 1
 462.141601562 72.654296875 l 1
 462.141601562 0.0458984375 l 1
EndSplineSet
Validated: 524289
EndChar

StartChar: unie02f
Encoding: 304 57391 47
Width: 494
GlyphClass: 1
Flags: HW
LayerCount: 2
Fore
SplineSet
461.221679688 569.938476562 m 1
 282.993164062 569.938476562 l 1
 282.993164062 72.6552734375 l 1
 461.221679688 72.6552734375 l 1
 461.221679688 -0.029296875 l 1
 32.15625 -0.029296875 l 1
 32.15625 72.6552734375 l 1
 210.384765625 72.6552734375 l 1
 210.384765625 569.938476562 l 1
 32.15625 569.938476562 l 1
 32.15625 642.623046875 l 1
 461.221679688 642.623046875 l 1
 461.221679688 569.938476562 l 1
EndSplineSet
Validated: 524289
EndChar

StartChar: unie030
Encoding: 305 57392 48
Width: 500
GlyphClass: 1
Flags: HW
LayerCount: 2
Fore
SplineSet
378.45703125 357.638671875 m 1
 378.45703125 642.623046875 l 1
 451.141601562 642.623046875 l 1
 451.141601562 -0.029296875 l 1
 378.45703125 -0.029296875 l 1
 378.45703125 284.954101562 l 1
 22 284.954101562 l 1
 22 357.638671875 l 1
 378.45703125 357.638671875 l 1
414.798828125 718.109375 m 0
 387.618164062 718.109375 365.5859375 740.141601562 365.5859375 767.322265625 c 0
 365.5859375 794.502929688 387.618164062 816.53515625 414.798828125 816.53515625 c 0
 441.979492188 816.53515625 464.01171875 794.502929688 464.01171875 767.322265625 c 0
 464.01171875 740.141601562 441.979492188 718.109375 414.798828125 718.109375 c 0
EndSplineSet
Validated: 524289
EndChar

StartChar: unie031
Encoding: 306 57393 49
Width: 501
GlyphClass: 1
Flags: HW
LayerCount: 2
Fore
SplineSet
121.555664062 357.638671875 m 1
 478.012695312 357.637695312 l 1
 478.012695312 284.953125 l 1
 121.555664062 284.953125 l 1
 121.555664062 -0.0302734375 l 1
 48.87109375 -0.0302734375 l 1
 48.87109375 642.622070312 l 1
 121.555664062 642.622070312 l 1
 121.555664062 357.638671875 l 1
85.2138671875 718.18359375 m 0
 58.0341796875 718.18359375 36.0009765625 740.216796875 36.0009765625 767.396484375 c 0
 36.0009765625 794.576171875 58.0341796875 816.609375 85.2138671875 816.609375 c 0
 112.393554688 816.609375 134.426757812 794.576171875 134.426757812 767.396484375 c 0
 134.426757812 740.216796875 112.393554688 718.18359375 85.2138671875 718.18359375 c 0
EndSplineSet
Validated: 524289
EndChar

StartChar: unie032
Encoding: 307 57394 50
Width: 529
GlyphClass: 1
Flags: HW
LayerCount: 2
Fore
SplineSet
50 642.623046875 m 1
 479.065429688 642.623046875 l 1
 479.065429688 569.938476562 l 1
 300.836914062 569.938476562 l 1
 300.836914062 -0.029296875 l 1
 228.228515625 -0.029296875 l 1
 228.228515625 569.938476562 l 1
 50 569.938476562 l 1
 50 642.623046875 l 1
264.495117188 718.109375 m 0
 237.314453125 718.109375 215.282226562 740.141601562 215.282226562 767.322265625 c 0
 215.282226562 794.502929688 237.314453125 816.53515625 264.495117188 816.53515625 c 0
 291.67578125 816.53515625 313.708007812 794.502929688 313.708007812 767.322265625 c 0
 313.708007812 740.141601562 291.67578125 718.109375 264.495117188 718.109375 c 0
EndSplineSet
Validated: 524289
EndChar

StartChar: unie033
Encoding: 308 57395 51
Width: 529
GlyphClass: 1
Flags: HW
LayerCount: 2
Fore
SplineSet
300.913085938 72.6552734375 m 1
 479.141601562 72.6552734375 l 1
 479.141601562 -0.029296875 l 1
 50 -0.029296875 l 1
 50 72.6552734375 l 1
 228.228515625 72.6552734375 l 1
 228.228515625 642.623046875 l 1
 300.913085938 642.623046875 l 1
 300.913085938 72.6552734375 l 1
264.495117188 718.184570312 m 0
 237.315429688 718.184570312 215.282226562 740.217773438 215.282226562 767.397460938 c 0
 215.282226562 794.577148438 237.315429688 816.610351562 264.495117188 816.610351562 c 0
 291.674804688 816.610351562 313.708007812 794.577148438 313.708007812 767.397460938 c 0
 313.708007812 740.217773438 291.674804688 718.184570312 264.495117188 718.184570312 c 0
EndSplineSet
Validated: 524289
EndChar

StartChar: unie034
Encoding: 309 57396 52
Width: 171
GlyphClass: 1
Flags: HW
LayerCount: 2
Fore
SplineSet
121.48046875 0.0458984375 m 1
 48.8720703125 0.0458984375 l 1
 48.8720703125 642.622070312 l 1
 121.48046875 642.622070312 l 1
 121.48046875 0.0458984375 l 1
85.2138671875 718.108398438 m 0
 58.033203125 718.108398438 36.0009765625 740.140625 36.0009765625 767.321289062 c 0
 36.0009765625 794.501953125 58.033203125 816.534179688 85.2138671875 816.534179688 c 0
 112.39453125 816.534179688 134.426757812 794.501953125 134.426757812 767.321289062 c 0
 134.426757812 740.140625 112.39453125 718.108398438 85.2138671875 718.108398438 c 0
EndSplineSet
Validated: 524289
EndChar

StartChar: unie035
Encoding: 310 57397 53
Width: 486
GlyphClass: 1
Flags: HW
LayerCount: 2
Fore
SplineSet
457.141601562 285.030273438 m 1
 28 285.030273438 l 1
 28 357.638671875 l 1
 457.141601562 357.638671875 l 1
 457.141601562 285.030273438 l 1
242.495117188 718.108398438 m 0
 215.314453125 718.108398438 193.282226562 740.140625 193.282226562 767.321289062 c 0
 193.282226562 794.501953125 215.314453125 816.534179688 242.495117188 816.534179688 c 0
 269.67578125 816.534179688 291.708007812 794.501953125 291.708007812 767.321289062 c 0
 291.708007812 740.140625 269.67578125 718.108398438 242.495117188 718.108398438 c 0
EndSplineSet
Validated: 524289
EndChar

StartChar: unie036
Encoding: 311 57398 54
Width: 498
GlyphClass: 1
Flags: HW
LayerCount: 2
Fore
SplineSet
463.141601562 570.013671875 m 1
 34 570.013671875 l 1
 34 642.622070312 l 1
 463.141601562 642.622070312 l 1
 463.141601562 570.013671875 l 1
463.141601562 0.0458984375 m 1
 34 0.0458984375 l 1
 34 72.654296875 l 1
 463.141601562 72.654296875 l 1
 463.141601562 0.0458984375 l 1
248.5703125 718.108398438 m 0
 221.389648438 718.108398438 199.357421875 740.140625 199.357421875 767.321289062 c 0
 199.357421875 794.501953125 221.389648438 816.534179688 248.5703125 816.534179688 c 0
 275.750976562 816.534179688 297.783203125 794.501953125 297.783203125 767.321289062 c 0
 297.783203125 740.140625 275.750976562 718.108398438 248.5703125 718.108398438 c 0
EndSplineSet
Validated: 524289
EndChar

StartChar: unie037
Encoding: 312 57399 55
Width: 496
GlyphClass: 1
Flags: HW
LayerCount: 2
Fore
SplineSet
462.141601562 569.938476562 m 1
 283.913085938 569.938476562 l 1
 283.913085938 72.6552734375 l 1
 462.141601562 72.6552734375 l 1
 462.141601562 -0.029296875 l 1
 33 -0.029296875 l 1
 33 72.6552734375 l 1
 211.228515625 72.6552734375 l 1
 211.228515625 569.938476562 l 1
 33 569.938476562 l 1
 33 642.623046875 l 1
 462.141601562 642.623046875 l 1
 462.141601562 569.938476562 l 1
247.571289062 718.108398438 m 0
 220.390625 718.108398438 198.358398438 740.140625 198.358398438 767.321289062 c 0
 198.358398438 794.501953125 220.390625 816.534179688 247.571289062 816.534179688 c 0
 274.751953125 816.534179688 296.784179688 794.501953125 296.784179688 767.321289062 c 0
 296.784179688 740.140625 274.751953125 718.108398438 247.571289062 718.108398438 c 0
EndSplineSet
Validated: 524289
EndChar

StartChar: unie038
Encoding: 313 57400 56
Width: 500
GlyphClass: 1
Flags: HW
LayerCount: 2
Fore
SplineSet
378.45703125 357.638671875 m 1
 378.45703125 642.623046875 l 1
 451.141601562 642.623046875 l 1
 451.141601562 -0.029296875 l 1
 378.45703125 -0.029296875 l 1
 378.45703125 284.954101562 l 1
 22 284.954101562 l 1
 22 357.638671875 l 1
 378.45703125 357.638671875 l 1
353.092773438 718.109375 m 0
 325.912109375 718.109375 303.879882812 740.141601562 303.879882812 767.322265625 c 0
 303.879882812 794.502929688 325.912109375 816.53515625 353.092773438 816.53515625 c 0
 380.2734375 816.53515625 402.305664062 794.502929688 402.305664062 767.322265625 c 0
 402.305664062 740.141601562 380.2734375 718.109375 353.092773438 718.109375 c 0
476.504882812 816.612304688 m 0
 503.685546875 816.612304688 525.717773438 794.580078125 525.717773438 767.399414062 c 0
 525.717773438 740.21875 503.685546875 718.186523438 476.504882812 718.186523438 c 0
 449.32421875 718.186523438 427.291992188 740.21875 427.291992188 767.399414062 c 0
 427.291992188 794.580078125 449.32421875 816.612304688 476.504882812 816.612304688 c 0
EndSplineSet
Validated: 524289
EndChar

StartChar: unie039
Encoding: 314 57401 57
Width: 500
GlyphClass: 1
Flags: HW
LayerCount: 2
Fore
SplineSet
121.26171875 357.638671875 m 1
 477.71875 357.637695312 l 1
 477.71875 284.953125 l 1
 121.26171875 284.953125 l 1
 121.26171875 -0.0302734375 l 1
 48.5771484375 -0.0302734375 l 1
 48.5771484375 642.622070312 l 1
 121.26171875 642.622070312 l 1
 121.26171875 357.638671875 l 1
72.4267578125 767.396484375 m 0
 72.4267578125 740.215820312 50.39453125 718.18359375 23.2138671875 718.18359375 c 0
 -3.966796875 718.18359375 -25.9990234375 740.215820312 -25.9990234375 767.396484375 c 0
 -25.9990234375 794.577148438 -3.966796875 816.609375 23.2138671875 816.609375 c 0
 50.39453125 816.609375 72.4267578125 794.577148438 72.4267578125 767.396484375 c 0
146.625976562 718.107421875 m 0
 119.4453125 718.107421875 97.4130859375 740.139648438 97.4130859375 767.3203125 c 0
 97.4130859375 794.500976562 119.4453125 816.533203125 146.625976562 816.533203125 c 0
 173.806640625 816.533203125 195.838867188 794.500976562 195.838867188 767.3203125 c 0
 195.838867188 740.139648438 173.806640625 718.107421875 146.625976562 718.107421875 c 0
EndSplineSet
Validated: 524289
EndChar

StartChar: unie03a
Encoding: 315 57402 58
Width: 529
GlyphClass: 1
Flags: HW
LayerCount: 2
Fore
SplineSet
50 642.623046875 m 1
 479.141601562 642.623046875 l 1
 479.141601562 569.938476562 l 1
 300.913085938 569.938476562 l 1
 300.913085938 -0.029296875 l 1
 228.228515625 -0.029296875 l 1
 228.228515625 569.938476562 l 1
 50 569.938476562 l 1
 50 642.623046875 l 1
202.865234375 718.184570312 m 0
 175.685546875 718.184570312 153.65234375 740.217773438 153.65234375 767.397460938 c 0
 153.65234375 794.577148438 175.685546875 816.610351562 202.865234375 816.610351562 c 0
 230.044921875 816.610351562 252.078125 794.577148438 252.078125 767.397460938 c 0
 252.078125 740.217773438 230.044921875 718.184570312 202.865234375 718.184570312 c 0
326.27734375 718.108398438 m 0
 299.096679688 718.108398438 277.064453125 740.140625 277.064453125 767.321289062 c 0
 277.064453125 794.501953125 299.096679688 816.534179688 326.27734375 816.534179688 c 0
 353.458007812 816.534179688 375.490234375 794.501953125 375.490234375 767.321289062 c 0
 375.490234375 740.140625 353.458007812 718.108398438 326.27734375 718.108398438 c 0
EndSplineSet
Validated: 524289
EndChar

StartChar: unie03b
Encoding: 316 57403 59
Width: 529
GlyphClass: 1
Flags: HW
LayerCount: 2
Fore
SplineSet
300.913085938 72.6552734375 m 1
 479.141601562 72.6552734375 l 1
 479.141601562 -0.029296875 l 1
 50 -0.029296875 l 1
 50 72.6552734375 l 1
 228.228515625 72.6552734375 l 1
 228.228515625 642.623046875 l 1
 300.913085938 642.623046875 l 1
 300.913085938 72.6552734375 l 1
202.865234375 718.108398438 m 0
 175.684570312 718.108398438 153.65234375 740.140625 153.65234375 767.321289062 c 0
 153.65234375 794.501953125 175.684570312 816.534179688 202.865234375 816.534179688 c 0
 230.045898438 816.534179688 252.078125 794.501953125 252.078125 767.321289062 c 0
 252.078125 740.140625 230.045898438 718.108398438 202.865234375 718.108398438 c 0
326.27734375 718.184570312 m 0
 299.09765625 718.184570312 277.064453125 740.217773438 277.064453125 767.397460938 c 0
 277.064453125 794.577148438 299.09765625 816.610351562 326.27734375 816.610351562 c 0
 353.45703125 816.610351562 375.490234375 794.577148438 375.490234375 767.397460938 c 0
 375.490234375 740.217773438 353.45703125 718.184570312 326.27734375 718.184570312 c 0
EndSplineSet
Validated: 524289
EndChar

StartChar: unie03c
Encoding: 317 57404 60
Width: 170
GlyphClass: 1
Flags: HW
LayerCount: 2
Fore
SplineSet
121.186523438 0.0458984375 m 1
 48.578125 0.0458984375 l 1
 48.578125 642.622070312 l 1
 121.186523438 642.622070312 l 1
 121.186523438 0.0458984375 l 1
72.427734375 767.397460938 m 0
 72.427734375 740.216796875 50.3955078125 718.184570312 23.21484375 718.184570312 c 0
 -3.9658203125 718.184570312 -25.998046875 740.216796875 -25.998046875 767.397460938 c 0
 -25.998046875 794.578125 -3.9658203125 816.610351562 23.21484375 816.610351562 c 0
 50.3955078125 816.610351562 72.427734375 794.578125 72.427734375 767.397460938 c 0
146.55078125 816.611328125 m 0
 173.731445312 816.611328125 195.763671875 794.579101562 195.763671875 767.3984375 c 0
 195.763671875 740.217773438 173.731445312 718.185546875 146.55078125 718.185546875 c 0
 119.370117188 718.185546875 97.337890625 740.217773438 97.337890625 767.3984375 c 0
 97.337890625 794.579101562 119.370117188 816.611328125 146.55078125 816.611328125 c 0
EndSplineSet
Validated: 524289
EndChar

StartChar: unie03d
Encoding: 318 57405 61
Width: 486
GlyphClass: 1
Flags: HW
LayerCount: 2
Fore
SplineSet
457.141601562 285.030273438 m 1
 28 285.030273438 l 1
 28 357.638671875 l 1
 457.141601562 357.638671875 l 1
 457.141601562 285.030273438 l 1
180.864257812 718.184570312 m 0
 153.684570312 718.184570312 131.651367188 740.217773438 131.651367188 767.397460938 c 0
 131.651367188 794.577148438 153.684570312 816.610351562 180.864257812 816.610351562 c 0
 208.043945312 816.610351562 230.077148438 794.577148438 230.077148438 767.397460938 c 0
 230.077148438 740.217773438 208.043945312 718.184570312 180.864257812 718.184570312 c 0
304.276367188 718.108398438 m 0
 277.095703125 718.108398438 255.063476562 740.140625 255.063476562 767.321289062 c 0
 255.063476562 794.501953125 277.095703125 816.534179688 304.276367188 816.534179688 c 0
 331.45703125 816.534179688 353.489257812 794.501953125 353.489257812 767.321289062 c 0
 353.489257812 740.140625 331.45703125 718.108398438 304.276367188 718.108398438 c 0
EndSplineSet
Validated: 524289
EndChar

StartChar: unie03e
Encoding: 319 57406 62
Width: 498
GlyphClass: 1
Flags: HW
LayerCount: 2
Fore
SplineSet
463.141601562 570.013671875 m 1
 34 570.013671875 l 1
 34 642.622070312 l 1
 463.141601562 642.622070312 l 1
 463.141601562 570.013671875 l 1
463.141601562 0.0458984375 m 1
 34 0.0458984375 l 1
 34 72.654296875 l 1
 463.141601562 72.654296875 l 1
 463.141601562 0.0458984375 l 1
186.864257812 718.18359375 m 0
 159.684570312 718.18359375 137.651367188 740.216796875 137.651367188 767.396484375 c 0
 137.651367188 794.576171875 159.684570312 816.609375 186.864257812 816.609375 c 0
 214.043945312 816.609375 236.077148438 794.576171875 236.077148438 767.396484375 c 0
 236.077148438 740.216796875 214.043945312 718.18359375 186.864257812 718.18359375 c 0
310.276367188 718.107421875 m 0
 283.095703125 718.107421875 261.063476562 740.139648438 261.063476562 767.3203125 c 0
 261.063476562 794.500976562 283.095703125 816.533203125 310.276367188 816.533203125 c 0
 337.45703125 816.533203125 359.489257812 794.500976562 359.489257812 767.3203125 c 0
 359.489257812 740.139648438 337.45703125 718.107421875 310.276367188 718.107421875 c 0
EndSplineSet
Validated: 524289
EndChar

StartChar: unie03f
Encoding: 320 57407 63
Width: 496
GlyphClass: 1
Flags: HW
LayerCount: 2
Fore
SplineSet
462.065429688 569.938476562 m 1
 283.836914062 569.938476562 l 1
 283.836914062 72.6552734375 l 1
 462.065429688 72.6552734375 l 1
 462.065429688 -0.029296875 l 1
 33 -0.029296875 l 1
 33 72.6552734375 l 1
 211.228515625 72.6552734375 l 1
 211.228515625 569.938476562 l 1
 33 569.938476562 l 1
 33 642.623046875 l 1
 462.065429688 642.623046875 l 1
 462.065429688 569.938476562 l 1
185.864257812 718.108398438 m 0
 158.68359375 718.108398438 136.651367188 740.140625 136.651367188 767.321289062 c 0
 136.651367188 794.501953125 158.68359375 816.534179688 185.864257812 816.534179688 c 0
 213.044921875 816.534179688 235.077148438 794.501953125 235.077148438 767.321289062 c 0
 235.077148438 740.140625 213.044921875 718.108398438 185.864257812 718.108398438 c 0
309.201171875 718.108398438 m 0
 282.020507812 718.108398438 259.98828125 740.140625 259.98828125 767.321289062 c 0
 259.98828125 794.501953125 282.020507812 816.534179688 309.201171875 816.534179688 c 0
 336.381835938 816.534179688 358.4140625 794.501953125 358.4140625 767.321289062 c 0
 358.4140625 740.140625 336.381835938 718.108398438 309.201171875 718.108398438 c 0
EndSplineSet
Validated: 524289
EndChar

StartChar: unie040
Encoding: 321 57408 64
Width: 501
GlyphClass: 1
Flags: HW
LayerCount: 2
Fore
SplineSet
378.45703125 357.638671875 m 1
 378.45703125 642.623046875 l 1
 451.065429688 642.623046875 l 1
 451.065429688 -0.029296875 l 1
 378.45703125 -0.029296875 l 1
 378.45703125 284.954101562 l 1
 22 284.954101562 l 1
 22 357.638671875 l 1
 378.45703125 357.638671875 l 1
501.490234375 731.055664062 m 1
 327.956054688 731.055664062 l 1
 327.956054688 803.6640625 l 1
 501.490234375 803.6640625 l 1
 501.490234375 731.055664062 l 1
EndSplineSet
Validated: 524289
EndChar

StartChar: unie041
Encoding: 322 57409 65
Width: 500
GlyphClass: 1
Flags: HW
LayerCount: 2
Fore
SplineSet
121.147460938 357.638671875 m 1
 477.604492188 357.637695312 l 1
 477.604492188 284.953125 l 1
 121.147460938 284.953125 l 1
 121.147460938 -0.0302734375 l 1
 48.5390625 -0.0302734375 l 1
 48.5390625 642.622070312 l 1
 121.147460938 642.622070312 l 1
 121.147460938 357.638671875 l 1
171.572265625 731.0546875 m 1
 -1.9619140625 731.0546875 l 1
 -1.9619140625 803.663085938 l 1
 171.572265625 803.663085938 l 1
 171.572265625 731.0546875 l 1
EndSplineSet
Validated: 524289
EndChar

StartChar: unie042
Encoding: 323 57410 66
Width: 529
GlyphClass: 1
Flags: HW
LayerCount: 2
Fore
SplineSet
50 642.623046875 m 1
 479.141601562 642.623046875 l 1
 479.141601562 569.938476562 l 1
 300.913085938 569.938476562 l 1
 300.913085938 -0.029296875 l 1
 228.228515625 -0.029296875 l 1
 228.228515625 569.938476562 l 1
 50 569.938476562 l 1
 50 642.623046875 l 1
351.337890625 731.055664062 m 1
 177.803710938 731.055664062 l 1
 177.803710938 803.6640625 l 1
 351.337890625 803.6640625 l 1
 351.337890625 731.055664062 l 1
EndSplineSet
Validated: 524289
EndChar

StartChar: unie043
Encoding: 324 57411 67
Width: 529
GlyphClass: 1
Flags: HW
LayerCount: 2
Fore
SplineSet
300.836914062 72.6552734375 m 1
 479.065429688 72.6552734375 l 1
 479.065429688 -0.029296875 l 1
 50 -0.029296875 l 1
 50 72.6552734375 l 1
 228.228515625 72.6552734375 l 1
 228.228515625 642.623046875 l 1
 300.836914062 642.623046875 l 1
 300.836914062 72.6552734375 l 1
351.26171875 731.055664062 m 1
 177.727539062 731.055664062 l 1
 177.727539062 803.6640625 l 1
 351.26171875 803.6640625 l 1
 351.26171875 731.055664062 l 1
EndSplineSet
Validated: 524289
EndChar

StartChar: unie044
Encoding: 325 57412 68
Width: 170
GlyphClass: 1
Flags: HW
LayerCount: 2
Fore
SplineSet
121.033203125 0.0458984375 m 1
 48.4248046875 0.0458984375 l 1
 48.4248046875 642.622070312 l 1
 121.033203125 642.622070312 l 1
 121.033203125 0.0458984375 l 1
171.534179688 731.0546875 m 1
 -2 731.0546875 l 1
 -2 803.663085938 l 1
 171.534179688 803.663085938 l 1
 171.534179688 731.0546875 l 1
EndSplineSet
Validated: 524289
EndChar

StartChar: unie045
Encoding: 326 57413 69
Width: 486
GlyphClass: 1
Flags: HW
LayerCount: 2
Fore
SplineSet
457.141601562 285.030273438 m 1
 28 285.030273438 l 1
 28 357.638671875 l 1
 457.141601562 357.638671875 l 1
 457.141601562 285.030273438 l 1
329.26171875 731.055664062 m 1
 155.727539062 731.055664062 l 1
 155.727539062 803.6640625 l 1
 329.26171875 803.6640625 l 1
 329.26171875 731.055664062 l 1
EndSplineSet
Validated: 524289
EndChar

StartChar: unie046
Encoding: 327 57414 70
Width: 498
GlyphClass: 1
Flags: HW
LayerCount: 2
Fore
SplineSet
463.141601562 570.013671875 m 1
 34 570.013671875 l 1
 34 642.622070312 l 1
 463.141601562 642.622070312 l 1
 463.141601562 570.013671875 l 1
463.141601562 0.0458984375 m 1
 34 0.0458984375 l 1
 34 72.654296875 l 1
 463.141601562 72.654296875 l 1
 463.141601562 0.0458984375 l 1
335.337890625 731.0546875 m 1
 161.803710938 731.0546875 l 1
 161.803710938 803.663085938 l 1
 335.337890625 803.663085938 l 1
 335.337890625 731.0546875 l 1
EndSplineSet
Validated: 524289
EndChar

StartChar: unie047
Encoding: 328 57415 71
Width: 496
GlyphClass: 1
Flags: HW
LayerCount: 2
Fore
SplineSet
462.141601562 569.938476562 m 1
 283.913085938 569.938476562 l 1
 283.913085938 72.6552734375 l 1
 462.141601562 72.6552734375 l 1
 462.141601562 -0.029296875 l 1
 33 -0.029296875 l 1
 33 72.6552734375 l 1
 211.228515625 72.6552734375 l 1
 211.228515625 569.938476562 l 1
 33 569.938476562 l 1
 33 642.623046875 l 1
 462.141601562 642.623046875 l 1
 462.141601562 569.938476562 l 1
334.337890625 731.055664062 m 1
 160.803710938 731.055664062 l 1
 160.803710938 803.6640625 l 1
 334.337890625 803.6640625 l 1
 334.337890625 731.055664062 l 1
EndSplineSet
Validated: 524289
EndChar

StartChar: unie048
Encoding: 329 57416 72
Width: 500
GlyphClass: 1
Flags: HW
LayerCount: 2
Fore
SplineSet
378.45703125 357.638671875 m 1
 378.45703125 642.623046875 l 1
 451.141601562 642.623046875 l 1
 451.141601562 -0.029296875 l 1
 378.45703125 -0.029296875 l 1
 378.45703125 284.954101562 l 1
 22 284.954101562 l 1
 22 357.638671875 l 1
 378.45703125 357.638671875 l 1
343.174804688 718.109375 m 0
 324.094726562 718.109375 308.649414062 733.5546875 308.649414062 752.634765625 c 0
 308.649414062 771.71484375 324.094726562 787.16015625 343.174804688 787.16015625 c 0
 362.254882812 787.16015625 377.700195312 771.71484375 377.700195312 752.634765625 c 0
 377.700195312 733.5546875 362.254882812 718.109375 343.174804688 718.109375 c 0
414.799804688 775.802734375 m 0
 387.619140625 775.802734375 365.586914062 797.834960938 365.586914062 825.015625 c 0
 365.586914062 852.196289062 387.619140625 874.228515625 414.799804688 874.228515625 c 0
 441.98046875 874.228515625 464.012695312 852.196289062 464.012695312 825.015625 c 0
 464.012695312 797.834960938 441.98046875 775.802734375 414.799804688 775.802734375 c 0
486.424804688 787.235351562 m 0
 505.504882812 787.235351562 520.950195312 771.790039062 520.950195312 752.709960938 c 0
 520.950195312 733.629882812 505.504882812 718.184570312 486.424804688 718.184570312 c 0
 467.344726562 718.184570312 451.899414062 733.629882812 451.899414062 752.709960938 c 0
 451.899414062 771.790039062 467.344726562 787.235351562 486.424804688 787.235351562 c 0
EndSplineSet
Validated: 524289
EndChar

StartChar: unie049
Encoding: 330 57417 73
Width: 500
GlyphClass: 1
Flags: HW
LayerCount: 2
Fore
SplineSet
121.4921875 357.638671875 m 1
 477.94921875 357.637695312 l 1
 477.94921875 284.953125 l 1
 121.4921875 284.953125 l 1
 121.4921875 -0.0302734375 l 1
 48.8076171875 -0.0302734375 l 1
 48.8076171875 642.622070312 l 1
 121.4921875 642.622070312 l 1
 121.4921875 357.638671875 l 1
13.525390625 787.233398438 m 0
 32.60546875 787.233398438 48.05078125 771.788085938 48.05078125 752.708007812 c 0
 48.05078125 733.627929688 32.60546875 718.182617188 13.525390625 718.182617188 c 0
 -5.5546875 718.182617188 -21 733.627929688 -21 752.708007812 c 0
 -21 771.788085938 -5.5546875 787.233398438 13.525390625 787.233398438 c 0
85.150390625 775.80078125 m 0
 57.9697265625 775.80078125 35.9375 797.833007812 35.9375 825.013671875 c 0
 35.9375 852.194335938 57.9697265625 874.2265625 85.150390625 874.2265625 c 0
 112.331054688 874.2265625 134.36328125 852.194335938 134.36328125 825.013671875 c 0
 134.36328125 797.833007812 112.331054688 775.80078125 85.150390625 775.80078125 c 0
122.25 752.708007812 m 0
 122.25 771.788085938 137.6953125 787.233398438 156.775390625 787.233398438 c 0
 175.85546875 787.233398438 191.30078125 771.788085938 191.30078125 752.708007812 c 0
 191.30078125 733.627929688 175.85546875 718.182617188 156.775390625 718.182617188 c 0
 137.6953125 718.182617188 122.25 733.627929688 122.25 752.708007812 c 0
EndSplineSet
Validated: 524289
EndChar

StartChar: unie04a
Encoding: 331 57418 74
Width: 529
GlyphClass: 1
Flags: HW
LayerCount: 2
Fore
SplineSet
50.0380859375 642.623046875 m 1
 479.103515625 642.623046875 l 1
 479.103515625 569.938476562 l 1
 300.875 569.938476562 l 1
 300.875 -0.029296875 l 1
 228.266601562 -0.029296875 l 1
 228.266601562 569.938476562 l 1
 50.0380859375 569.938476562 l 1
 50.0380859375 642.623046875 l 1
192.908203125 718.109375 m 0
 173.828125 718.109375 158.3828125 733.5546875 158.3828125 752.634765625 c 0
 158.3828125 771.71484375 173.828125 787.16015625 192.908203125 787.16015625 c 0
 211.98828125 787.16015625 227.43359375 771.71484375 227.43359375 752.634765625 c 0
 227.43359375 733.5546875 211.98828125 718.109375 192.908203125 718.109375 c 0
264.533203125 775.802734375 m 0
 237.352539062 775.802734375 215.3203125 797.834960938 215.3203125 825.015625 c 0
 215.3203125 852.196289062 237.352539062 874.228515625 264.533203125 874.228515625 c 0
 291.713867188 874.228515625 313.74609375 852.196289062 313.74609375 825.015625 c 0
 313.74609375 797.834960938 291.713867188 775.802734375 264.533203125 775.802734375 c 0
301.6328125 752.709960938 m 0
 301.6328125 771.790039062 317.078125 787.235351562 336.158203125 787.235351562 c 0
 355.23828125 787.235351562 370.68359375 771.790039062 370.68359375 752.709960938 c 0
 370.68359375 733.629882812 355.23828125 718.184570312 336.158203125 718.184570312 c 0
 317.078125 718.184570312 301.6328125 733.629882812 301.6328125 752.709960938 c 0
EndSplineSet
Validated: 524289
EndChar

StartChar: unie04b
Encoding: 332 57419 75
Width: 529
GlyphClass: 1
Flags: HW
LayerCount: 2
Fore
SplineSet
300.913085938 72.6552734375 m 1
 479.141601562 72.6552734375 l 1
 479.141601562 -0.029296875 l 1
 50 -0.029296875 l 1
 50 72.6552734375 l 1
 228.228515625 72.6552734375 l 1
 228.228515625 642.623046875 l 1
 300.913085938 642.623046875 l 1
 300.913085938 72.6552734375 l 1
192.946289062 718.108398438 m 0
 173.866210938 718.108398438 158.420898438 733.553710938 158.420898438 752.633789062 c 0
 158.420898438 771.713867188 173.866210938 787.159179688 192.946289062 787.159179688 c 0
 212.026367188 787.159179688 227.471679688 771.713867188 227.471679688 752.633789062 c 0
 227.471679688 733.553710938 212.026367188 718.108398438 192.946289062 718.108398438 c 0
264.571289062 775.801757812 m 0
 237.390625 775.801757812 215.358398438 797.833984375 215.358398438 825.014648438 c 0
 215.358398438 852.1953125 237.390625 874.227539062 264.571289062 874.227539062 c 0
 291.751953125 874.227539062 313.784179688 852.1953125 313.784179688 825.014648438 c 0
 313.784179688 797.833984375 291.751953125 775.801757812 264.571289062 775.801757812 c 0
301.670898438 752.708984375 m 0
 301.670898438 771.7890625 317.116210938 787.234375 336.196289062 787.234375 c 0
 355.276367188 787.234375 370.721679688 771.7890625 370.721679688 752.708984375 c 0
 370.721679688 733.62890625 355.276367188 718.18359375 336.196289062 718.18359375 c 0
 317.116210938 718.18359375 301.670898438 733.62890625 301.670898438 752.708984375 c 0
EndSplineSet
Validated: 524289
EndChar

StartChar: unie04c
Encoding: 333 57420 76
Width: 171
GlyphClass: 1
Flags: HW
LayerCount: 2
Fore
SplineSet
121.416015625 0.0458984375 m 1
 48.8076171875 0.0458984375 l 1
 48.8076171875 642.622070312 l 1
 121.416015625 642.622070312 l 1
 121.416015625 0.0458984375 l 1
13.525390625 787.234375 m 0
 32.60546875 787.234375 48.05078125 771.7890625 48.05078125 752.708984375 c 0
 48.05078125 733.62890625 32.60546875 718.18359375 13.525390625 718.18359375 c 0
 -5.5546875 718.18359375 -21 733.62890625 -21 752.708984375 c 0
 -21 771.7890625 -5.5546875 787.234375 13.525390625 787.234375 c 0
85.150390625 775.801757812 m 0
 57.9697265625 775.801757812 35.9375 797.833984375 35.9375 825.014648438 c 0
 35.9375 852.1953125 57.9697265625 874.227539062 85.150390625 874.227539062 c 0
 112.331054688 874.227539062 134.36328125 852.1953125 134.36328125 825.014648438 c 0
 134.36328125 797.833984375 112.331054688 775.801757812 85.150390625 775.801757812 c 0
156.775390625 787.234375 m 0
 175.85546875 787.234375 191.30078125 771.7890625 191.30078125 752.708984375 c 0
 191.30078125 733.62890625 175.85546875 718.18359375 156.775390625 718.18359375 c 0
 137.6953125 718.18359375 122.25 733.62890625 122.25 752.708984375 c 0
 122.25 771.7890625 137.6953125 787.234375 156.775390625 787.234375 c 0
EndSplineSet
Validated: 524289
EndChar

StartChar: unie04d
Encoding: 334 57421 77
Width: 486
GlyphClass: 1
Flags: HW
LayerCount: 2
Fore
SplineSet
457.141601562 285.030273438 m 1
 28 285.030273438 l 1
 28 357.638671875 l 1
 457.141601562 357.638671875 l 1
 457.141601562 285.030273438 l 1
170.946289062 718.108398438 m 0
 151.866210938 718.108398438 136.420898438 733.553710938 136.420898438 752.633789062 c 0
 136.420898438 771.713867188 151.866210938 787.159179688 170.946289062 787.159179688 c 0
 190.026367188 787.159179688 205.471679688 771.713867188 205.471679688 752.633789062 c 0
 205.471679688 733.553710938 190.026367188 718.108398438 170.946289062 718.108398438 c 0
242.571289062 775.801757812 m 0
 215.390625 775.801757812 193.358398438 797.833984375 193.358398438 825.014648438 c 0
 193.358398438 852.1953125 215.390625 874.227539062 242.571289062 874.227539062 c 0
 269.751953125 874.227539062 291.784179688 852.1953125 291.784179688 825.014648438 c 0
 291.784179688 797.833984375 269.751953125 775.801757812 242.571289062 775.801757812 c 0
279.670898438 752.708984375 m 0
 279.670898438 771.7890625 295.116210938 787.234375 314.196289062 787.234375 c 0
 333.276367188 787.234375 348.721679688 771.7890625 348.721679688 752.708984375 c 0
 348.721679688 733.62890625 333.276367188 718.18359375 314.196289062 718.18359375 c 0
 295.116210938 718.18359375 279.670898438 733.62890625 279.670898438 752.708984375 c 0
EndSplineSet
Validated: 524289
EndChar

StartChar: unie04e
Encoding: 335 57422 78
Width: 498
GlyphClass: 1
Flags: HW
LayerCount: 2
Fore
SplineSet
463.141601562 570.013671875 m 1
 34 570.013671875 l 1
 34 642.622070312 l 1
 463.141601562 642.622070312 l 1
 463.141601562 570.013671875 l 1
463.141601562 0.0458984375 m 1
 34 0.0458984375 l 1
 34 72.654296875 l 1
 463.141601562 72.654296875 l 1
 463.141601562 0.0458984375 l 1
176.870117188 718.108398438 m 0
 157.790039062 718.108398438 142.344726562 733.553710938 142.344726562 752.633789062 c 0
 142.344726562 771.713867188 157.790039062 787.159179688 176.870117188 787.159179688 c 0
 195.950195312 787.159179688 211.395507812 771.713867188 211.395507812 752.633789062 c 0
 211.395507812 733.553710938 195.950195312 718.108398438 176.870117188 718.108398438 c 0
248.495117188 775.801757812 m 0
 221.314453125 775.801757812 199.282226562 797.833984375 199.282226562 825.014648438 c 0
 199.282226562 852.1953125 221.314453125 874.227539062 248.495117188 874.227539062 c 0
 275.67578125 874.227539062 297.708007812 852.1953125 297.708007812 825.014648438 c 0
 297.708007812 797.833984375 275.67578125 775.801757812 248.495117188 775.801757812 c 0
285.594726562 752.708984375 m 0
 285.594726562 771.7890625 301.040039062 787.234375 320.120117188 787.234375 c 0
 339.200195312 787.234375 354.645507812 771.7890625 354.645507812 752.708984375 c 0
 354.645507812 733.62890625 339.200195312 718.18359375 320.120117188 718.18359375 c 0
 301.040039062 718.18359375 285.594726562 733.62890625 285.594726562 752.708984375 c 0
EndSplineSet
Validated: 524289
EndChar

StartChar: unie04f
Encoding: 336 57423 79
Width: 496
GlyphClass: 1
Flags: HW
LayerCount: 2
Fore
SplineSet
462.065429688 569.938476562 m 1
 283.836914062 569.938476562 l 1
 283.836914062 72.6552734375 l 1
 462.065429688 72.6552734375 l 1
 462.065429688 -0.029296875 l 1
 33 -0.029296875 l 1
 33 72.6552734375 l 1
 211.228515625 72.6552734375 l 1
 211.228515625 569.938476562 l 1
 33 569.938476562 l 1
 33 642.623046875 l 1
 462.065429688 642.623046875 l 1
 462.065429688 569.938476562 l 1
175.946289062 718.108398438 m 0
 156.866210938 718.108398438 141.420898438 733.553710938 141.420898438 752.633789062 c 0
 141.420898438 771.713867188 156.866210938 787.159179688 175.946289062 787.159179688 c 0
 195.026367188 787.159179688 210.471679688 771.713867188 210.471679688 752.633789062 c 0
 210.471679688 733.553710938 195.026367188 718.108398438 175.946289062 718.108398438 c 0
247.571289062 775.801757812 m 0
 220.390625 775.801757812 198.358398438 797.833984375 198.358398438 825.014648438 c 0
 198.358398438 852.1953125 220.390625 874.227539062 247.571289062 874.227539062 c 0
 274.751953125 874.227539062 296.784179688 852.1953125 296.784179688 825.014648438 c 0
 296.784179688 797.833984375 274.751953125 775.801757812 247.571289062 775.801757812 c 0
284.594726562 752.708984375 m 0
 284.594726562 771.7890625 300.040039062 787.234375 319.120117188 787.234375 c 0
 338.200195312 787.234375 353.645507812 771.7890625 353.645507812 752.708984375 c 0
 353.645507812 733.62890625 338.200195312 718.18359375 319.120117188 718.18359375 c 0
 300.040039062 718.18359375 284.594726562 733.62890625 284.594726562 752.708984375 c 0
EndSplineSet
Validated: 524289
EndChar

StartChar: unie050
Encoding: 337 57424 80
Width: 489
GlyphClass: 1
Flags: HW
LayerCount: 2
Fore
SplineSet
13 482.374023438 m 1
 442.141601562 482.375 l 1
 442.141601562 0.0068359375 l 1
 369.45703125 0.0068359375 l 1
 369.45703125 409.765625 l 1
 13 409.765625 l 1
 13 482.374023438 l 1
EndSplineSet
Validated: 524289
EndChar

StartChar: unie051
Encoding: 338 57425 81
Width: 494
GlyphClass: 1
Flags: HW
LayerCount: 2
Fore
SplineSet
118.684570312 72.615234375 m 1
 475.141601562 72.6142578125 l 1
 475.141601562 0.005859375 l 1
 46 0.005859375 l 1
 46 482.374023438 l 1
 118.684570312 482.374023438 l 1
 118.684570312 72.615234375 l 1
EndSplineSet
Validated: 524289
EndChar

StartChar: unie052
Encoding: 339 57426 82
Width: 494
GlyphClass: 1
Flags: HW
LayerCount: 2
Fore
SplineSet
374.53515625 482.374023438 m 1
 447.143554688 482.375 l 1
 447.143554688 0.0068359375 l 1
 18.078125 0.0068359375 l 1
 18.078125 72.615234375 l 1
 374.53515625 72.615234375 l 1
 374.53515625 482.374023438 l 1
EndSplineSet
Validated: 524289
EndChar

StartChar: unie053
Encoding: 340 57427 83
Width: 489
GlyphClass: 1
Flags: HW
LayerCount: 2
Fore
SplineSet
475.141601562 482.374023438 m 1
 475.141601562 409.764648438 l 1
 118.684570312 409.764648438 l 1
 118.684570312 0.005859375 l 1
 46 0.005859375 l 1
 46 482.374023438 l 1
 475.141601562 482.374023438 l 1
EndSplineSet
Validated: 524289
EndChar

StartChar: unie054
Encoding: 341 57428 84
Width: 529
GlyphClass: 1
Flags: HW
LayerCount: 2
Fore
SplineSet
389.194335938 482.374023438 m 1
 479.065429688 482.374023438 l 1
 139.87109375 0.005859375 l 1
 50 0.005859375 l 1
 389.194335938 482.374023438 l 1
EndSplineSet
Validated: 524289
EndChar

StartChar: unie055
Encoding: 342 57429 85
Width: 519
GlyphClass: 1
Flags: HW
LayerCount: 2
Fore
SplineSet
115.608398438 -0.0693359375 m 1
 43 -0.0693359375 l 1
 43 241.15234375 l 1
 115.608398438 241.15234375 l 1
 115.608398438 -0.0693359375 l 1
43 482.374023438 m 1
 472.141601562 482.375 l 1
 472.141601562 0.0068359375 l 1
 399.45703125 0.0068359375 l 1
 399.45703125 409.765625 l 1
 43 409.765625 l 1
 43 482.374023438 l 1
EndSplineSet
Validated: 524289
EndChar

StartChar: unie056
Encoding: 343 57430 86
Width: 519
GlyphClass: 1
Flags: HW
LayerCount: 2
Fore
SplineSet
118.686523438 482.374023438 m 1
 118.686523438 72.6142578125 l 1
 475.143554688 72.6142578125 l 1
 475.143554688 0.005859375 l 1
 46.078125 0.005859375 l 1
 46.078125 482.374023438 l 1
 118.686523438 482.374023438 l 1
475.143554688 241.151367188 m 1
 402.53515625 241.151367188 l 1
 402.53515625 482.373046875 l 1
 475.143554688 482.373046875 l 1
 475.143554688 241.151367188 l 1
EndSplineSet
Validated: 524289
EndChar

StartChar: unie057
Encoding: 344 57431 87
Width: 519
GlyphClass: 1
Flags: HW
LayerCount: 2
Fore
SplineSet
399.45703125 482.374023438 m 1
 472.141601562 482.375 l 1
 472.141601562 0.0068359375 l 1
 43 0.0068359375 l 1
 43 72.615234375 l 1
 399.45703125 72.615234375 l 1
 399.45703125 482.374023438 l 1
115.609375 241.153320312 m 1
 43.0009765625 241.153320312 l 1
 43.0009765625 482.375 l 1
 115.609375 482.375 l 1
 115.609375 241.153320312 l 1
EndSplineSet
Validated: 524289
EndChar

StartChar: unie058
Encoding: 345 57432 88
Width: 519
GlyphClass: 1
Flags: HW
LayerCount: 2
Fore
SplineSet
46.078125 482.374023438 m 1
 475.143554688 482.373046875 l 1
 475.143554688 409.764648438 l 1
 118.686523438 409.764648438 l 1
 118.686523438 0.005859375 l 1
 46.078125 0.005859375 l 1
 46.078125 482.374023438 l 1
475.143554688 -0.0703125 m 1
 402.53515625 -0.0703125 l 1
 402.53515625 241.151367188 l 1
 475.143554688 241.151367188 l 1
 475.143554688 -0.0703125 l 1
EndSplineSet
Validated: 524289
EndChar

StartChar: unie059
Encoding: 346 57433 89
Width: 529
GlyphClass: 1
Flags: HW
LayerCount: 2
Fore
SplineSet
479.141601562 482.374023438 m 1
 300.913085938 228.961914062 l 1
 300.913085938 0.005859375 l 1
 228.228515625 0.005859375 l 1
 228.228515625 125.61328125 l 1
 139.87109375 0.005859375 l 1
 50 0.005859375 l 1
 228.228515625 253.416992188 l 1
 228.228515625 482.373046875 l 1
 300.913085938 482.373046875 l 1
 300.913085938 356.765625 l 1
 389.270507812 482.374023438 l 1
 479.141601562 482.374023438 l 1
EndSplineSet
Validated: 524289
EndChar

StartChar: unie05a
Encoding: 347 57434 90
Width: 519
GlyphClass: 1
Flags: HW
LayerCount: 2
Fore
SplineSet
284.337890625 0.0068359375 m 1
 43.1162109375 0.0068359375 l 1
 43.1162109375 72.615234375 l 1
 284.337890625 72.615234375 l 1
 284.337890625 0.0068359375 l 1
43.1162109375 482.375 m 1
 472.181640625 482.375976562 l 1
 472.181640625 0.0078125 l 1
 399.573242188 0.0078125 l 1
 399.573242188 409.766601562 l 1
 43.1162109375 409.766601562 l 1
 43.1162109375 482.375 l 1
EndSplineSet
Validated: 524289
EndChar

StartChar: unie05b
Encoding: 348 57435 91
Width: 519
GlyphClass: 1
Flags: HW
LayerCount: 2
Fore
SplineSet
118.724609375 482.374023438 m 1
 118.724609375 72.6142578125 l 1
 475.181640625 72.6142578125 l 1
 475.181640625 0.005859375 l 1
 46.0400390625 0.005859375 l 1
 46.0400390625 482.374023438 l 1
 118.724609375 482.374023438 l 1
475.181640625 409.764648438 m 1
 233.959960938 409.764648438 l 1
 233.959960938 482.373046875 l 1
 475.181640625 482.373046875 l 1
 475.181640625 409.764648438 l 1
EndSplineSet
Validated: 524289
EndChar

StartChar: unie05c
Encoding: 349 57436 92
Width: 519
GlyphClass: 1
Flags: HW
LayerCount: 2
Fore
SplineSet
399.495117188 482.374023438 m 1
 472.103515625 482.375 l 1
 472.103515625 0.0068359375 l 1
 43.0380859375 0.0068359375 l 1
 43.0380859375 72.615234375 l 1
 399.495117188 72.615234375 l 1
 399.495117188 482.374023438 l 1
284.259765625 409.766601562 m 1
 43.0380859375 409.766601562 l 1
 43.0380859375 482.375 l 1
 284.259765625 482.375 l 1
 284.259765625 409.766601562 l 1
EndSplineSet
Validated: 524289
EndChar

StartChar: unie05d
Encoding: 350 57437 93
Width: 519
GlyphClass: 1
Flags: HW
LayerCount: 2
Fore
SplineSet
46 482.374023438 m 1
 475.141601562 482.373046875 l 1
 475.141601562 409.764648438 l 1
 118.684570312 409.764648438 l 1
 118.684570312 0.005859375 l 1
 46 0.005859375 l 1
 46 482.374023438 l 1
475.141601562 0.0048828125 m 1
 233.919921875 0.0048828125 l 1
 233.919921875 72.61328125 l 1
 475.141601562 72.61328125 l 1
 475.141601562 0.0048828125 l 1
EndSplineSet
Validated: 524289
EndChar

StartChar: unie05e
Encoding: 351 57438 94
Width: 522
GlyphClass: 1
Flags: HW
LayerCount: 2
Fore
SplineSet
475.103515625 482.374023438 m 1
 331.021484375 277.494140625 l 1
 475.103515625 277.494140625 l 1
 475.103515625 204.885742188 l 1
 279.915039062 204.885742188 l 1
 135.909179688 0.005859375 l 1
 46.0380859375 0.005859375 l 1
 190.120117188 204.885742188 l 1
 46.0380859375 204.885742188 l 1
 46.0380859375 277.494140625 l 1
 241.150390625 277.494140625 l 1
 385.232421875 482.374023438 l 1
 475.103515625 482.374023438 l 1
EndSplineSet
Validated: 524289
EndChar

StartChar: unie05f
Encoding: 352 57439 95
Width: 511
GlyphClass: 1
Flags: HW
LayerCount: 2
Fore
SplineSet
107.686523438 -0.0693359375 m 1
 35.078125 -0.0693359375 l 1
 35.078125 241.15234375 l 1
 107.686523438 241.15234375 l 1
 107.686523438 -0.0693359375 l 1
249.573242188 -0.0693359375 m 1
 176.96484375 -0.0693359375 l 1
 176.96484375 241.15234375 l 1
 249.573242188 241.15234375 l 1
 249.573242188 -0.0693359375 l 1
35.0791015625 482.374023438 m 1
 464.14453125 482.375 l 1
 464.14453125 0.0068359375 l 1
 391.536132812 0.0068359375 l 1
 391.536132812 409.765625 l 1
 35.0791015625 409.765625 l 1
 35.0791015625 482.374023438 l 1
EndSplineSet
Validated: 524289
EndChar

StartChar: unie060
Encoding: 353 57440 96
Width: 511
GlyphClass: 1
Flags: HW
LayerCount: 2
Fore
SplineSet
118.608398438 482.374023438 m 1
 118.609375 72.6142578125 l 1
 475.141601562 72.6142578125 l 1
 475.141601562 0.005859375 l 1
 46 0.005859375 l 1
 46 482.374023438 l 1
 118.608398438 482.374023438 l 1
475.06640625 241.151367188 m 1
 402.458007812 241.151367188 l 1
 402.458007812 482.373046875 l 1
 475.06640625 482.373046875 l 1
 475.06640625 241.151367188 l 1
333.180664062 241.151367188 m 1
 260.572265625 241.151367188 l 1
 260.572265625 482.373046875 l 1
 333.180664062 482.373046875 l 1
 333.180664062 241.151367188 l 1
EndSplineSet
Validated: 524289
EndChar

StartChar: unie061
Encoding: 354 57441 97
Width: 511
GlyphClass: 1
Flags: HW
LayerCount: 2
Fore
SplineSet
391.495117188 482.374023438 m 1
 464.103515625 482.375 l 1
 464.103515625 0.0068359375 l 1
 35.0380859375 0.0068359375 l 1
 35.0380859375 72.615234375 l 1
 391.495117188 72.615234375 l 1
 391.495117188 482.374023438 l 1
107.646484375 241.153320312 m 1
 35.0380859375 241.153320312 l 1
 35.0380859375 482.375 l 1
 107.646484375 482.375 l 1
 107.646484375 241.153320312 l 1
249.533203125 241.153320312 m 1
 176.924804688 241.153320312 l 1
 176.924804688 482.375 l 1
 249.533203125 482.375 l 1
 249.533203125 241.153320312 l 1
EndSplineSet
Validated: 524289
EndChar

StartChar: unie062
Encoding: 355 57442 98
Width: 511
GlyphClass: 1
Flags: HW
LayerCount: 2
Fore
SplineSet
46 482.374023438 m 1
 475.141601562 482.373046875 l 1
 475.141601562 409.764648438 l 1
 118.684570312 409.764648438 l 1
 118.684570312 0.005859375 l 1
 46 0.005859375 l 1
 46 482.374023438 l 1
475.065429688 -0.0703125 m 1
 402.45703125 -0.0703125 l 1
 402.45703125 241.151367188 l 1
 475.065429688 241.151367188 l 1
 475.065429688 -0.0703125 l 1
333.1796875 -0.0703125 m 1
 260.571289062 -0.0703125 l 1
 260.571289062 241.151367188 l 1
 333.1796875 241.151367188 l 1
 333.1796875 -0.0703125 l 1
EndSplineSet
Validated: 524289
EndChar

StartChar: unie063
Encoding: 356 57443 99
Width: 500
GlyphClass: 1
Flags: HW
LayerCount: 2
Fore
SplineSet
374.234375 482.374023438 m 1
 464.10546875 482.374023438 l 1
 464.10546875 0.005859375 l 1
 391.497070312 0.005859375 l 1
 391.497070312 379.100585938 l 1
 124.911132812 0.005859375 l 1
 35.0400390625 0.005859375 l 1
 35.0400390625 482.374023438 l 1
 107.6484375 482.374023438 l 1
 107.6484375 103.279296875 l 1
 374.234375 482.374023438 l 1
EndSplineSet
Validated: 524289
EndChar

StartChar: unie064
Encoding: 357 57444 100
Width: 518
GlyphClass: 1
Flags: HW
LayerCount: 2
Fore
SplineSet
283.299804688 0.0068359375 m 1
 42.078125 0.0068359375 l 1
 42.078125 72.615234375 l 1
 283.299804688 72.615234375 l 1
 283.299804688 0.0068359375 l 1
283.299804688 168.543945312 m 1
 42.078125 168.543945312 l 1
 42.078125 241.15234375 l 1
 283.299804688 241.15234375 l 1
 283.299804688 168.543945312 l 1
42.078125 482.374023438 m 1
 471.21875 482.375 l 1
 471.21875 0.0068359375 l 1
 398.610351562 0.0068359375 l 1
 398.610351562 409.765625 l 1
 42.078125 409.765625 l 1
 42.078125 482.374023438 l 1
EndSplineSet
Validated: 524289
EndChar

StartChar: unie065
Encoding: 358 57445 101
Width: 518
GlyphClass: 1
Flags: HW
LayerCount: 2
Fore
SplineSet
118.608398438 482.374023438 m 1
 118.608398438 72.6142578125 l 1
 475.065429688 72.6142578125 l 1
 475.065429688 0.005859375 l 1
 46 0.005859375 l 1
 46 482.374023438 l 1
 118.608398438 482.374023438 l 1
475.140625 409.764648438 m 1
 233.918945312 409.764648438 l 1
 233.918945312 482.373046875 l 1
 475.140625 482.373046875 l 1
 475.140625 409.764648438 l 1
475.140625 241.227539062 m 1
 233.918945312 241.227539062 l 1
 233.918945312 313.8359375 l 1
 475.140625 313.8359375 l 1
 475.140625 241.227539062 l 1
EndSplineSet
Validated: 524289
EndChar

StartChar: unie066
Encoding: 359 57446 102
Width: 518
GlyphClass: 1
Flags: HW
LayerCount: 2
Fore
SplineSet
398.45703125 482.374023438 m 1
 471.141601562 482.375 l 1
 471.141601562 0.0068359375 l 1
 42 0.0068359375 l 1
 42 72.615234375 l 1
 398.45703125 72.615234375 l 1
 398.45703125 482.374023438 l 1
283.221679688 409.766601562 m 1
 42 409.766601562 l 1
 42 482.375 l 1
 283.221679688 482.375 l 1
 283.221679688 409.766601562 l 1
283.221679688 241.229492188 m 1
 42 241.229492188 l 1
 42 313.837890625 l 1
 283.221679688 313.837890625 l 1
 283.221679688 241.229492188 l 1
EndSplineSet
Validated: 524289
EndChar

StartChar: unie067
Encoding: 360 57447 103
Width: 518
GlyphClass: 1
Flags: HW
LayerCount: 2
Fore
SplineSet
46 482.374023438 m 1
 475.065429688 482.373046875 l 1
 475.065429688 409.764648438 l 1
 118.608398438 409.764648438 l 1
 118.608398438 0.005859375 l 1
 46 0.005859375 l 1
 46 482.374023438 l 1
475.141601562 0.0048828125 m 1
 233.919921875 0.0048828125 l 1
 233.919921875 72.61328125 l 1
 475.141601562 72.61328125 l 1
 475.141601562 0.0048828125 l 1
475.141601562 168.541992188 m 1
 233.919921875 168.541992188 l 1
 233.919921875 241.150390625 l 1
 475.141601562 241.150390625 l 1
 475.141601562 168.541992188 l 1
EndSplineSet
Validated: 524289
EndChar

StartChar: unie068
Encoding: 361 57448 104
Width: 504
GlyphClass: 1
Flags: HW
LayerCount: 2
Fore
SplineSet
466.219726562 482.374023438 m 1
 466.219726562 409.765625 l 1
 135.883789062 72.615234375 l 1
 466.219726562 72.615234375 l 1
 466.219726562 0.0068359375 l 1
 37.078125 0.0068359375 l 1
 37.078125 72.615234375 l 1
 367.4140625 409.765625 l 1
 37.078125 409.765625 l 1
 37.078125 482.374023438 l 1
 466.219726562 482.374023438 l 1
EndSplineSet
Validated: 524289
EndChar

StartChar: unie069
Encoding: 362 57449 105
Width: 489
GlyphClass: 1
Flags: HW
LayerCount: 2
Fore
SplineSet
13.0380859375 482.374023438 m 1
 442.102539062 482.375 l 1
 442.102539062 0.0068359375 l 1
 369.494140625 0.0068359375 l 1
 369.494140625 409.765625 l 1
 227.532226562 409.765625 l 1
 227.532226562 0.0068359375 l 1
 154.923828125 0.0068359375 l 1
 154.923828125 409.765625 l 1
 13.0380859375 409.765625 l 1
 13.0380859375 482.374023438 l 1
EndSplineSet
Validated: 524289
EndChar

StartChar: unie06a
Encoding: 363 57450 106
Width: 504
GlyphClass: 1
Flags: HW
LayerCount: 2
Fore
SplineSet
466.143554688 482.374023438 m 1
 466.143554688 409.765625 l 1
 135.883789062 72.615234375 l 1
 466.143554688 72.615234375 l 1
 466.143554688 0.0068359375 l 1
 37.078125 0.0068359375 l 1
 37.078125 72.615234375 l 1
 367.337890625 409.765625 l 1
 37.078125 409.765625 l 1
 37.078125 482.374023438 l 1
 466.143554688 482.374023438 l 1
EndSplineSet
Validated: 524289
EndChar

StartChar: unie06b
Encoding: 364 57451 107
Width: 511
GlyphClass: 1
Flags: HW
LayerCount: 2
Fore
SplineSet
35.0400390625 482.374023438 m 1
 464.181640625 482.375 l 1
 464.181640625 0.0068359375 l 1
 35.0400390625 0.0068359375 l 1
 35.0400390625 72.615234375 l 1
 391.497070312 72.615234375 l 1
 391.497070312 409.765625 l 1
 35.0400390625 409.765625 l 1
 35.0400390625 482.374023438 l 1
EndSplineSet
Validated: 524289
EndChar

StartChar: unie06c
Encoding: 365 57452 108
Width: 522
GlyphClass: 1
Flags: HW
LayerCount: 2
Fore
SplineSet
46.0400390625 482.374023438 m 1
 475.180664062 482.374023438 l 1
 475.180664062 0.005859375 l 1
 402.49609375 0.005859375 l 1
 402.49609375 409.764648438 l 1
 118.6484375 409.764648438 l 1
 118.6484375 0.005859375 l 1
 46.0400390625 0.005859375 l 1
 46.0400390625 482.374023438 l 1
EndSplineSet
Validated: 524289
EndChar

StartChar: unie06d
Encoding: 366 57453 109
Width: 508
GlyphClass: 1
Flags: HW
LayerCount: 2
Fore
SplineSet
32.078125 482.374023438 m 1
 461.219726562 482.375 l 1
 461.219726562 0.0068359375 l 1
 388.53515625 0.0068359375 l 1
 388.53515625 319.591796875 l 1
 130.883789062 0.0068359375 l 1
 32.078125 0.0068359375 l 1
 362.4140625 409.765625 l 1
 32.078125 409.765625 l 1
 32.078125 482.374023438 l 1
EndSplineSet
Validated: 524289
EndChar

StartChar: unie06e
Encoding: 367 57454 110
Width: 494
GlyphClass: 1
Flags: HW
LayerCount: 2
Fore
SplineSet
333.254882812 72.615234375 m 1
 475.141601562 72.6142578125 l 1
 475.141601562 0.005859375 l 1
 46 0.005859375 l 1
 46 482.374023438 l 1
 118.684570312 482.374023438 l 1
 118.684570312 72.615234375 l 1
 260.5703125 72.615234375 l 1
 260.5703125 482.374023438 l 1
 333.254882812 482.374023438 l 1
 333.254882812 72.615234375 l 1
EndSplineSet
Validated: 524289
EndChar

StartChar: unie06f
Encoding: 368 57455 111
Width: 522
GlyphClass: 1
Flags: HW
LayerCount: 2
Fore
SplineSet
402.53515625 482.374023438 m 1
 475.14453125 482.374023438 l 1
 475.14453125 0.005859375 l 1
 46.0791015625 0.005859375 l 1
 46.0791015625 482.374023438 l 1
 118.6875 482.374023438 l 1
 118.6875 72.615234375 l 1
 402.53515625 72.615234375 l 1
 402.53515625 482.374023438 l 1
EndSplineSet
Validated: 524289
EndChar

StartChar: unie070
Encoding: 369 57456 112
Width: 511
GlyphClass: 1
Flags: HW
LayerCount: 2
Fore
SplineSet
475.143554688 409.765625 m 1
 118.686523438 409.764648438 l 1
 118.686523438 72.6142578125 l 1
 475.143554688 72.6142578125 l 1
 475.143554688 0.005859375 l 1
 46.078125 0.005859375 l 1
 46.078125 482.374023438 l 1
 475.143554688 482.374023438 l 1
 475.143554688 409.765625 l 1
EndSplineSet
Validated: 524289
EndChar

StartChar: unie071
Encoding: 370 57457 113
Width: 509
GlyphClass: 1
Flags: HW
LayerCount: 2
Fore
SplineSet
475.181640625 482.374023438 m 1
 144.845703125 72.6142578125 l 1
 475.181640625 72.6142578125 l 1
 475.181640625 0.005859375 l 1
 46.0400390625 0.005859375 l 1
 46.0400390625 482.374023438 l 1
 118.6484375 482.374023438 l 1
 118.6484375 162.7890625 l 1
 376.375976562 482.374023438 l 1
 475.181640625 482.374023438 l 1
EndSplineSet
Validated: 524289
EndChar

StartChar: unie072
Encoding: 371 57458 114
Width: 494
GlyphClass: 1
Flags: HW
LayerCount: 2
Fore
SplineSet
374.45703125 482.374023438 m 1
 447.142578125 482.375 l 1
 447.142578125 0.0068359375 l 1
 18.0009765625 0.0068359375 l 1
 18.0009765625 72.615234375 l 1
 159.962890625 72.615234375 l 1
 159.962890625 482.374023438 l 1
 232.571289062 482.374023438 l 1
 232.571289062 72.615234375 l 1
 374.45703125 72.615234375 l 1
 374.45703125 482.374023438 l 1
EndSplineSet
Validated: 524289
EndChar

StartChar: unie073
Encoding: 372 57459 115
Width: 504
GlyphClass: 1
Flags: HW
LayerCount: 2
Fore
SplineSet
466.219726562 482.374023438 m 1
 466.219726562 409.765625 l 1
 135.883789062 409.765625 l 1
 466.219726562 72.615234375 l 1
 466.219726562 0.0068359375 l 1
 37.078125 0.0068359375 l 1
 37.078125 72.615234375 l 1
 367.4140625 72.615234375 l 1
 37.078125 409.765625 l 1
 37.078125 482.374023438 l 1
 466.219726562 482.374023438 l 1
EndSplineSet
Validated: 524289
EndChar

StartChar: unie074
Encoding: 373 57460 116
Width: 501
GlyphClass: 1
Flags: HW
LayerCount: 2
Fore
SplineSet
356.374023438 482.374023438 m 1
 455.1796875 482.375 l 1
 455.1796875 0.0068359375 l 1
 26.0380859375 0.0068359375 l 1
 26.0380859375 72.615234375 l 1
 356.374023438 482.374023438 l 1
124.84375 72.6162109375 m 1
 382.495117188 72.6162109375 l 1
 382.495117188 392.201171875 l 1
 124.84375 72.6162109375 l 1
EndSplineSet
Validated: 524289
EndChar

StartChar: unie075
Encoding: 374 57461 117
Width: 489
GlyphClass: 1
Flags: HW
LayerCount: 2
Fore
SplineSet
475.141601562 482.374023438 m 1
 475.140625 409.764648438 l 1
 333.254882812 409.764648438 l 1
 333.254882812 0.005859375 l 1
 260.5703125 0.005859375 l 1
 260.5703125 409.764648438 l 1
 118.684570312 409.764648438 l 1
 118.684570312 0.005859375 l 1
 46 0.005859375 l 1
 46 482.374023438 l 1
 475.141601562 482.374023438 l 1
EndSplineSet
Validated: 524289
EndChar

StartChar: unie076
Encoding: 375 57462 118
Width: 502
GlyphClass: 1
Flags: HW
LayerCount: 2
Fore
SplineSet
46.0400390625 482.374023438 m 1
 475.181640625 482.373046875 l 1
 475.181640625 409.764648438 l 1
 144.845703125 0.005859375 l 1
 46.0400390625 0.005859375 l 1
 46.0400390625 482.374023438 l 1
118.649414062 90.103515625 m 1
 376.30078125 409.688476562 l 1
 118.649414062 409.688476562 l 1
 118.649414062 90.103515625 l 1
EndSplineSet
Validated: 524289
EndChar

StartChar: unie077
Encoding: 376 57463 119
Width: 492
GlyphClass: 1
Flags: HW
LayerCount: 2
Fore
SplineSet
460.141601562 -0.0693359375 m 1
 361.336914062 -0.0703125 l 1
 245.571289062 168.997070312 l 1
 129.805664062 0.005859375 l 1
 31 0.005859375 l 1
 196.129882812 241.15234375 l 1
 31.0751953125 482.297851562 l 1
 129.8046875 482.297851562 l 1
 245.5703125 313.306640625 l 1
 361.3359375 482.374023438 l 1
 460.141601562 482.374023438 l 1
 294.935546875 241.15234375 l 1
 460.141601562 -0.0693359375 l 1
EndSplineSet
Validated: 524289
EndChar

StartChar: unie078
Encoding: 377 57464 120
Width: 505
GlyphClass: 1
Flags: HW
LayerCount: 2
Fore
SplineSet
385.45703125 482.374023438 m 1
 458.141601562 482.374023438 l 1
 458.141601562 0.005859375 l 1
 385.45703125 0.005859375 l 1
 385.45703125 204.809570312 l 1
 29 204.809570312 l 1
 29 277.494140625 l 1
 385.45703125 277.494140625 l 1
 385.45703125 482.374023438 l 1
EndSplineSet
Validated: 524289
EndChar

StartChar: unie079
Encoding: 378 57465 121
Width: 505
GlyphClass: 1
Flags: HW
LayerCount: 2
Fore
SplineSet
475.103515625 277.5703125 m 1
 475.103515625 204.885742188 l 1
 118.646484375 204.885742188 l 1
 118.646484375 0.005859375 l 1
 46.0380859375 0.005859375 l 1
 46.0380859375 482.374023438 l 1
 118.646484375 482.374023438 l 1
 118.646484375 277.5703125 l 1
 475.103515625 277.5703125 l 1
EndSplineSet
Validated: 524289
EndChar

StartChar: unie07a
Encoding: 379 57466 122
Width: 466
GlyphClass: 1
Flags: HW
LayerCount: 2
Fore
SplineSet
447.181640625 482.374023438 m 1
 447.181640625 409.765625 l 1
 268.953125 409.765625 l 1
 268.953125 0.0068359375 l 1
 196.268554688 0.0068359375 l 1
 196.268554688 409.765625 l 1
 18.0400390625 409.765625 l 1
 18.0400390625 482.374023438 l 1
 447.181640625 482.374023438 l 1
EndSplineSet
Validated: 524289
EndChar

StartChar: unie07b
Encoding: 380 57467 123
Width: 456
GlyphClass: 1
Flags: HW
LayerCount: 2
Fore
SplineSet
263.875 72.615234375 m 1
 442.103515625 72.615234375 l 1
 442.103515625 0.0068359375 l 1
 13.0380859375 0.0068359375 l 1
 13.0380859375 72.615234375 l 1
 191.266601562 72.615234375 l 1
 191.266601562 482.374023438 l 1
 263.875 482.374023438 l 1
 263.875 72.615234375 l 1
EndSplineSet
Validated: 524289
EndChar

StartChar: unie07c
Encoding: 381 57468 124
Width: 165
GlyphClass: 1
Flags: HW
LayerCount: 2
Fore
SplineSet
118.608398438 0.0068359375 m 1
 46 0.0068359375 l 1
 46 482.375 l 1
 118.608398438 482.375 l 1
 118.608398438 0.0068359375 l 1
EndSplineSet
Validated: 524289
EndChar

StartChar: unie07d
Encoding: 382 57469 125
Width: 486
GlyphClass: 1
Flags: HW
LayerCount: 2
Fore
SplineSet
457.141601562 204.885742188 m 1
 28 204.885742188 l 1
 28 277.494140625 l 1
 457.141601562 277.494140625 l 1
 457.141601562 204.885742188 l 1
EndSplineSet
Validated: 524289
EndChar

StartChar: unie07e
Encoding: 383 57470 126
Width: 496
GlyphClass: 1
Flags: HW
LayerCount: 2
Fore
SplineSet
462.141601562 409.765625 m 1
 33 409.765625 l 1
 33 482.374023438 l 1
 462.141601562 482.374023438 l 1
 462.141601562 409.765625 l 1
462.141601562 0.0068359375 m 1
 33 0.0068359375 l 1
 33 72.615234375 l 1
 462.141601562 72.615234375 l 1
 462.141601562 0.0068359375 l 1
EndSplineSet
Validated: 524289
EndChar

StartChar: unie07f
Encoding: 384 57471 127
Width: 500
GlyphClass: 1
Flags: HW
LayerCount: 2
Fore
SplineSet
464.143554688 409.765625 m 1
 285.915039062 409.765625 l 1
 285.915039062 72.615234375 l 1
 464.143554688 72.615234375 l 1
 464.143554688 0.0068359375 l 1
 35.078125 0.0068359375 l 1
 35.078125 72.615234375 l 1
 213.306640625 72.615234375 l 1
 213.306640625 409.765625 l 1
 35.078125 409.765625 l 1
 35.078125 482.374023438 l 1
 464.143554688 482.374023438 l 1
 464.143554688 409.765625 l 1
EndSplineSet
Validated: 524289
EndChar

StartChar: unie080
Encoding: 385 57472 128
Width: 514
GlyphClass: 1
Flags: HW
LayerCount: 2
Fore
SplineSet
382.53515625 277.495117188 m 1
 382.53515625 482.375 l 1
 455.143554688 482.375 l 1
 455.143554688 0.0068359375 l 1
 382.53515625 0.0068359375 l 1
 382.53515625 204.810546875 l 1
 26.078125 204.810546875 l 1
 26.078125 277.495117188 l 1
 382.53515625 277.495117188 l 1
418.801757812 569.293945312 m 0
 391.62109375 569.293945312 369.588867188 591.326171875 369.588867188 618.506835938 c 0
 369.588867188 645.6875 391.62109375 667.719726562 418.801757812 667.719726562 c 0
 445.982421875 667.719726562 468.014648438 645.6875 468.014648438 618.506835938 c 0
 468.014648438 591.326171875 445.982421875 569.293945312 418.801757812 569.293945312 c 0
EndSplineSet
Validated: 524289
EndChar

StartChar: unie081
Encoding: 386 57473 129
Width: 514
GlyphClass: 1
Flags: HW
LayerCount: 2
Fore
SplineSet
487.012695312 277.5703125 m 1
 487.012695312 204.885742188 l 1
 130.555664062 204.885742188 l 1
 130.555664062 0.005859375 l 1
 57.87109375 0.005859375 l 1
 57.87109375 482.374023438 l 1
 130.555664062 482.374023438 l 1
 130.555664062 277.5703125 l 1
 487.012695312 277.5703125 l 1
94.2138671875 569.29296875 m 0
 67.033203125 569.29296875 45.0009765625 591.325195312 45.0009765625 618.505859375 c 0
 45.0009765625 645.686523438 67.033203125 667.71875 94.2138671875 667.71875 c 0
 121.39453125 667.71875 143.426757812 645.686523438 143.426757812 618.505859375 c 0
 143.426757812 591.325195312 121.39453125 569.29296875 94.2138671875 569.29296875 c 0
EndSplineSet
Validated: 524289
EndChar

StartChar: unie082
Encoding: 387 57474 130
Width: 529
GlyphClass: 1
Flags: HW
LayerCount: 2
Fore
SplineSet
479.103515625 482.374023438 m 1
 479.103515625 409.765625 l 1
 300.875 409.765625 l 1
 300.875 0.0068359375 l 1
 228.266601562 0.0068359375 l 1
 228.266601562 409.765625 l 1
 50.0380859375 409.765625 l 1
 50.0380859375 482.374023438 l 1
 479.103515625 482.374023438 l 1
264.533203125 569.29296875 m 0
 237.352539062 569.29296875 215.3203125 591.325195312 215.3203125 618.505859375 c 0
 215.3203125 645.686523438 237.352539062 667.71875 264.533203125 667.71875 c 0
 291.713867188 667.71875 313.74609375 645.686523438 313.74609375 618.505859375 c 0
 313.74609375 591.325195312 291.713867188 569.29296875 264.533203125 569.29296875 c 0
EndSplineSet
Validated: 524289
EndChar

StartChar: unie083
Encoding: 388 57475 131
Width: 529
GlyphClass: 1
Flags: HW
LayerCount: 2
Fore
SplineSet
300.953125 72.615234375 m 1
 479.181640625 72.615234375 l 1
 479.181640625 0.0068359375 l 1
 50.0400390625 0.0068359375 l 1
 50.0400390625 72.615234375 l 1
 228.268554688 72.615234375 l 1
 228.268554688 482.374023438 l 1
 300.953125 482.374023438 l 1
 300.953125 72.615234375 l 1
264.611328125 569.29296875 m 0
 237.430664062 569.29296875 215.3984375 591.325195312 215.3984375 618.505859375 c 0
 215.3984375 645.686523438 237.430664062 667.71875 264.611328125 667.71875 c 0
 291.791992188 667.71875 313.82421875 645.686523438 313.82421875 618.505859375 c 0
 313.82421875 591.325195312 291.791992188 569.29296875 264.611328125 569.29296875 c 0
EndSplineSet
Validated: 524289
EndChar

StartChar: unie084
Encoding: 389 57476 132
Width: 189
GlyphClass: 1
Flags: HW
LayerCount: 2
Fore
SplineSet
130.48046875 0.0068359375 m 1
 57.8720703125 0.0068359375 l 1
 57.8720703125 482.375 l 1
 130.48046875 482.375 l 1
 130.48046875 0.0068359375 l 1
94.2138671875 569.29296875 m 0
 67.033203125 569.29296875 45.0009765625 591.325195312 45.0009765625 618.505859375 c 0
 45.0009765625 645.686523438 67.033203125 667.71875 94.2138671875 667.71875 c 0
 121.39453125 667.71875 143.426757812 645.686523438 143.426757812 618.505859375 c 0
 143.426757812 591.325195312 121.39453125 569.29296875 94.2138671875 569.29296875 c 0
EndSplineSet
Validated: 524289
EndChar

StartChar: unie085
Encoding: 390 57477 133
Width: 480
GlyphClass: 1
Flags: HW
LayerCount: 2
Fore
SplineSet
454.141601562 204.885742188 m 1
 25 204.885742188 l 1
 25 277.494140625 l 1
 454.141601562 277.494140625 l 1
 454.141601562 204.885742188 l 1
239.5703125 569.29296875 m 0
 212.389648438 569.29296875 190.357421875 591.325195312 190.357421875 618.505859375 c 0
 190.357421875 645.686523438 212.389648438 667.71875 239.5703125 667.71875 c 0
 266.750976562 667.71875 288.783203125 645.686523438 288.783203125 618.505859375 c 0
 288.783203125 591.325195312 266.750976562 569.29296875 239.5703125 569.29296875 c 0
EndSplineSet
Validated: 524289
EndChar

StartChar: unie086
Encoding: 391 57478 134
Width: 494
GlyphClass: 1
Flags: HW
LayerCount: 2
Fore
SplineSet
461.219726562 409.765625 m 1
 32.078125 409.765625 l 1
 32.078125 482.374023438 l 1
 461.219726562 482.374023438 l 1
 461.219726562 409.765625 l 1
461.219726562 0.0068359375 m 1
 32.078125 0.0068359375 l 1
 32.078125 72.615234375 l 1
 461.219726562 72.615234375 l 1
 461.219726562 0.0068359375 l 1
246.6484375 569.29296875 m 0
 219.467773438 569.29296875 197.435546875 591.325195312 197.435546875 618.505859375 c 0
 197.435546875 645.686523438 219.467773438 667.71875 246.6484375 667.71875 c 0
 273.829101562 667.71875 295.861328125 645.686523438 295.861328125 618.505859375 c 0
 295.861328125 591.325195312 273.829101562 569.29296875 246.6484375 569.29296875 c 0
EndSplineSet
Validated: 524289
EndChar

StartChar: unie087
Encoding: 392 57479 135
Width: 498
GlyphClass: 1
Flags: HW
LayerCount: 2
Fore
SplineSet
463.219726562 409.765625 m 1
 284.991210938 409.765625 l 1
 284.991210938 72.615234375 l 1
 463.219726562 72.615234375 l 1
 463.219726562 0.0068359375 l 1
 34.078125 0.0068359375 l 1
 34.078125 72.615234375 l 1
 212.306640625 72.615234375 l 1
 212.306640625 409.765625 l 1
 34.078125 409.765625 l 1
 34.078125 482.374023438 l 1
 463.219726562 482.374023438 l 1
 463.219726562 409.765625 l 1
248.649414062 569.29296875 m 0
 221.46875 569.29296875 199.436523438 591.325195312 199.436523438 618.505859375 c 0
 199.436523438 645.686523438 221.46875 667.71875 248.649414062 667.71875 c 0
 275.830078125 667.71875 297.862304688 645.686523438 297.862304688 618.505859375 c 0
 297.862304688 591.325195312 275.830078125 569.29296875 248.649414062 569.29296875 c 0
EndSplineSet
Validated: 524289
EndChar

StartChar: unie088
Encoding: 393 57480 136
Width: 562
GlyphClass: 1
Flags: HW
LayerCount: 2
Fore
SplineSet
382.497070312 277.495117188 m 1
 382.497070312 482.375 l 1
 455.181640625 482.375 l 1
 455.181640625 0.0068359375 l 1
 382.497070312 0.0068359375 l 1
 382.497070312 204.810546875 l 1
 26.0400390625 204.810546875 l 1
 26.0400390625 277.495117188 l 1
 382.497070312 277.495117188 l 1
357.1328125 569.293945312 m 0
 329.952148438 569.293945312 307.919921875 591.326171875 307.919921875 618.506835938 c 0
 307.919921875 645.6875 329.952148438 667.719726562 357.1328125 667.719726562 c 0
 384.313476562 667.719726562 406.345703125 645.6875 406.345703125 618.506835938 c 0
 406.345703125 591.326171875 384.313476562 569.293945312 357.1328125 569.293945312 c 0
480.544921875 667.720703125 m 0
 507.725585938 667.720703125 529.7578125 645.688476562 529.7578125 618.5078125 c 0
 529.7578125 591.327148438 507.725585938 569.294921875 480.544921875 569.294921875 c 0
 453.364257812 569.294921875 431.33203125 591.327148438 431.33203125 618.5078125 c 0
 431.33203125 645.688476562 453.364257812 667.720703125 480.544921875 667.720703125 c 0
EndSplineSet
Validated: 524289
EndChar

StartChar: unie089
Encoding: 394 57481 137
Width: 562
GlyphClass: 1
Flags: HW
LayerCount: 2
Fore
SplineSet
535.680664062 277.5703125 m 1
 535.680664062 204.885742188 l 1
 179.223632812 204.885742188 l 1
 179.223632812 0.005859375 l 1
 106.615234375 0.005859375 l 1
 106.615234375 482.374023438 l 1
 179.223632812 482.374023438 l 1
 179.223632812 277.5703125 l 1
 535.680664062 277.5703125 l 1
130.46484375 618.505859375 m 0
 130.46484375 591.325195312 108.432617188 569.29296875 81.251953125 569.29296875 c 0
 54.0712890625 569.29296875 32.0390625 591.325195312 32.0390625 618.505859375 c 0
 32.0390625 645.686523438 54.0712890625 667.71875 81.251953125 667.71875 c 0
 108.432617188 667.71875 130.46484375 645.686523438 130.46484375 618.505859375 c 0
204.587890625 569.291992188 m 0
 177.407226562 569.291992188 155.375 591.32421875 155.375 618.504882812 c 0
 155.375 645.685546875 177.407226562 667.717773438 204.587890625 667.717773438 c 0
 231.768554688 667.717773438 253.80078125 645.685546875 253.80078125 618.504882812 c 0
 253.80078125 591.32421875 231.768554688 569.291992188 204.587890625 569.291992188 c 0
EndSplineSet
Validated: 524289
EndChar

StartChar: unie08a
Encoding: 395 57482 138
Width: 529
GlyphClass: 1
Flags: HW
LayerCount: 2
Fore
SplineSet
479.141601562 482.374023438 m 1
 479.141601562 409.765625 l 1
 300.913085938 409.765625 l 1
 300.913085938 0.0068359375 l 1
 228.228515625 0.0068359375 l 1
 228.228515625 409.765625 l 1
 50 409.765625 l 1
 50 482.374023438 l 1
 479.141601562 482.374023438 l 1
202.865234375 569.29296875 m 0
 175.684570312 569.29296875 153.65234375 591.325195312 153.65234375 618.505859375 c 0
 153.65234375 645.686523438 175.684570312 667.71875 202.865234375 667.71875 c 0
 230.045898438 667.71875 252.078125 645.686523438 252.078125 618.505859375 c 0
 252.078125 591.325195312 230.045898438 569.29296875 202.865234375 569.29296875 c 0
326.27734375 569.29296875 m 0
 299.096679688 569.29296875 277.064453125 591.325195312 277.064453125 618.505859375 c 0
 277.064453125 645.686523438 299.096679688 667.71875 326.27734375 667.71875 c 0
 353.458007812 667.71875 375.490234375 645.686523438 375.490234375 618.505859375 c 0
 375.490234375 591.325195312 353.458007812 569.29296875 326.27734375 569.29296875 c 0
EndSplineSet
Validated: 524289
EndChar

StartChar: unie08b
Encoding: 396 57483 139
Width: 529
GlyphClass: 1
Flags: HW
LayerCount: 2
Fore
SplineSet
300.915039062 72.615234375 m 1
 479.143554688 72.615234375 l 1
 479.143554688 0.0068359375 l 1
 50.078125 0.0068359375 l 1
 50.078125 72.615234375 l 1
 228.306640625 72.615234375 l 1
 228.306640625 482.374023438 l 1
 300.915039062 482.374023438 l 1
 300.915039062 72.615234375 l 1
202.8671875 569.29296875 m 0
 175.686523438 569.29296875 153.654296875 591.325195312 153.654296875 618.505859375 c 0
 153.654296875 645.686523438 175.686523438 667.71875 202.8671875 667.71875 c 0
 230.047851562 667.71875 252.080078125 645.686523438 252.080078125 618.505859375 c 0
 252.080078125 591.325195312 230.047851562 569.29296875 202.8671875 569.29296875 c 0
326.279296875 569.29296875 m 0
 299.098632812 569.29296875 277.06640625 591.325195312 277.06640625 618.505859375 c 0
 277.06640625 645.686523438 299.098632812 667.71875 326.279296875 667.71875 c 0
 353.459960938 667.71875 375.4921875 645.686523438 375.4921875 618.505859375 c 0
 375.4921875 591.325195312 353.459960938 569.29296875 326.279296875 569.29296875 c 0
EndSplineSet
Validated: 524289
EndChar

StartChar: unie08c
Encoding: 397 57484 140
Width: 286
GlyphClass: 1
Flags: HW
LayerCount: 2
Fore
SplineSet
179.186523438 0.0068359375 m 1
 106.578125 0.0068359375 l 1
 106.578125 482.375 l 1
 179.186523438 482.375 l 1
 179.186523438 0.0068359375 l 1
130.427734375 618.506835938 m 0
 130.427734375 591.326171875 108.395507812 569.293945312 81.21484375 569.293945312 c 0
 54.0341796875 569.293945312 32.001953125 591.326171875 32.001953125 618.506835938 c 0
 32.001953125 645.6875 54.0341796875 667.719726562 81.21484375 667.719726562 c 0
 108.395507812 667.719726562 130.427734375 645.6875 130.427734375 618.506835938 c 0
204.55078125 667.720703125 m 0
 231.731445312 667.720703125 253.763671875 645.688476562 253.763671875 618.5078125 c 0
 253.763671875 591.327148438 231.731445312 569.294921875 204.55078125 569.294921875 c 0
 177.370117188 569.294921875 155.337890625 591.327148438 155.337890625 618.5078125 c 0
 155.337890625 645.688476562 177.370117188 667.720703125 204.55078125 667.720703125 c 0
EndSplineSet
Validated: 524289
EndChar

StartChar: unie08d
Encoding: 398 57485 141
Width: 484
GlyphClass: 1
Flags: HW
LayerCount: 2
Fore
SplineSet
456.141601562 204.885742188 m 1
 27 204.885742188 l 1
 27 277.494140625 l 1
 456.141601562 277.494140625 l 1
 456.141601562 204.885742188 l 1
179.864257812 569.29296875 m 0
 152.68359375 569.29296875 130.651367188 591.325195312 130.651367188 618.505859375 c 0
 130.651367188 645.686523438 152.68359375 667.71875 179.864257812 667.71875 c 0
 207.044921875 667.71875 229.077148438 645.686523438 229.077148438 618.505859375 c 0
 229.077148438 591.325195312 207.044921875 569.29296875 179.864257812 569.29296875 c 0
303.201171875 569.29296875 m 0
 276.020507812 569.29296875 253.98828125 591.325195312 253.98828125 618.505859375 c 0
 253.98828125 645.686523438 276.020507812 667.71875 303.201171875 667.71875 c 0
 330.381835938 667.71875 352.4140625 645.686523438 352.4140625 618.505859375 c 0
 352.4140625 591.325195312 330.381835938 569.29296875 303.201171875 569.29296875 c 0
EndSplineSet
Validated: 524289
EndChar

StartChar: unie08e
Encoding: 399 57486 142
Width: 496
GlyphClass: 1
Flags: HW
LayerCount: 2
Fore
SplineSet
462.181640625 409.765625 m 1
 33.0400390625 409.765625 l 1
 33.0400390625 482.374023438 l 1
 462.181640625 482.374023438 l 1
 462.181640625 409.765625 l 1
462.181640625 0.0068359375 m 1
 33.0400390625 0.0068359375 l 1
 33.0400390625 72.615234375 l 1
 462.181640625 72.615234375 l 1
 462.181640625 0.0068359375 l 1
185.829101562 569.29296875 m 0
 158.6484375 569.29296875 136.616210938 591.325195312 136.616210938 618.505859375 c 0
 136.616210938 645.686523438 158.6484375 667.71875 185.829101562 667.71875 c 0
 213.009765625 667.71875 235.041992188 645.686523438 235.041992188 618.505859375 c 0
 235.041992188 591.325195312 213.009765625 569.29296875 185.829101562 569.29296875 c 0
309.241210938 569.29296875 m 0
 282.060546875 569.29296875 260.028320312 591.325195312 260.028320312 618.505859375 c 0
 260.028320312 645.686523438 282.060546875 667.71875 309.241210938 667.71875 c 0
 336.421875 667.71875 358.454101562 645.686523438 358.454101562 618.505859375 c 0
 358.454101562 591.325195312 336.421875 569.29296875 309.241210938 569.29296875 c 0
EndSplineSet
Validated: 524289
EndChar

StartChar: unie08f
Encoding: 400 57487 143
Width: 500
GlyphClass: 1
Flags: HW
LayerCount: 2
Fore
SplineSet
464.143554688 409.765625 m 1
 285.915039062 409.765625 l 1
 285.915039062 72.615234375 l 1
 464.143554688 72.615234375 l 1
 464.143554688 0.0068359375 l 1
 35.078125 0.0068359375 l 1
 35.078125 72.615234375 l 1
 213.306640625 72.615234375 l 1
 213.306640625 409.765625 l 1
 35.078125 409.765625 l 1
 35.078125 482.374023438 l 1
 464.143554688 482.374023438 l 1
 464.143554688 409.765625 l 1
187.942382812 569.29296875 m 0
 160.76171875 569.29296875 138.729492188 591.325195312 138.729492188 618.505859375 c 0
 138.729492188 645.686523438 160.76171875 667.71875 187.942382812 667.71875 c 0
 215.123046875 667.71875 237.155273438 645.686523438 237.155273438 618.505859375 c 0
 237.155273438 591.325195312 215.123046875 569.29296875 187.942382812 569.29296875 c 0
311.279296875 569.29296875 m 0
 284.098632812 569.29296875 262.06640625 591.325195312 262.06640625 618.505859375 c 0
 262.06640625 645.686523438 284.098632812 667.71875 311.279296875 667.71875 c 0
 338.459960938 667.71875 360.4921875 645.686523438 360.4921875 618.505859375 c 0
 360.4921875 591.325195312 338.459960938 569.29296875 311.279296875 569.29296875 c 0
EndSplineSet
Validated: 524289
EndChar

StartChar: unie090
Encoding: 401 57488 144
Width: 544
GlyphClass: 1
Flags: HW
LayerCount: 2
Fore
SplineSet
383.497070312 277.495117188 m 1
 383.497070312 482.375 l 1
 456.181640625 482.375 l 1
 456.181640625 0.0068359375 l 1
 383.497070312 0.0068359375 l 1
 383.497070312 204.810546875 l 1
 27.0400390625 204.810546875 l 1
 27.0400390625 277.495117188 l 1
 383.497070312 277.495117188 l 1
506.606445312 582.165039062 m 1
 333.072265625 582.165039062 l 1
 333.072265625 654.7734375 l 1
 506.606445312 654.7734375 l 1
 506.606445312 582.165039062 l 1
EndSplineSet
Validated: 524289
EndChar

StartChar: unie091
Encoding: 402 57489 145
Width: 544
GlyphClass: 1
Flags: HW
LayerCount: 2
Fore
SplineSet
516.56640625 277.5703125 m 1
 516.56640625 204.885742188 l 1
 160.109375 204.885742188 l 1
 160.109375 0.005859375 l 1
 87.5009765625 0.005859375 l 1
 87.5009765625 482.374023438 l 1
 160.109375 482.374023438 l 1
 160.109375 277.5703125 l 1
 516.56640625 277.5703125 l 1
210.534179688 582.1640625 m 1
 37 582.1640625 l 1
 37 654.772460938 l 1
 210.534179688 654.772460938 l 1
 210.534179688 582.1640625 l 1
EndSplineSet
Validated: 524289
EndChar

StartChar: unie092
Encoding: 403 57490 146
Width: 529
GlyphClass: 1
Flags: HW
LayerCount: 2
Fore
SplineSet
479.141601562 482.374023438 m 1
 479.141601562 409.765625 l 1
 300.913085938 409.765625 l 1
 300.913085938 0.0068359375 l 1
 228.228515625 0.0068359375 l 1
 228.228515625 409.765625 l 1
 50 409.765625 l 1
 50 482.374023438 l 1
 479.141601562 482.374023438 l 1
351.337890625 582.1640625 m 1
 177.803710938 582.1640625 l 1
 177.803710938 654.772460938 l 1
 351.337890625 654.772460938 l 1
 351.337890625 582.1640625 l 1
EndSplineSet
Validated: 524289
EndChar

StartChar: unie093
Encoding: 404 57491 147
Width: 529
GlyphClass: 1
Flags: HW
LayerCount: 2
Fore
SplineSet
300.915039062 72.615234375 m 1
 479.143554688 72.615234375 l 1
 479.143554688 0.0068359375 l 1
 50.078125 0.0068359375 l 1
 50.078125 72.615234375 l 1
 228.306640625 72.615234375 l 1
 228.306640625 482.374023438 l 1
 300.915039062 482.374023438 l 1
 300.915039062 72.615234375 l 1
351.33984375 582.1640625 m 1
 177.805664062 582.1640625 l 1
 177.805664062 654.772460938 l 1
 351.33984375 654.772460938 l 1
 351.33984375 582.1640625 l 1
EndSplineSet
Validated: 524289
EndChar

StartChar: unie094
Encoding: 405 57492 148
Width: 248
GlyphClass: 1
Flags: HW
LayerCount: 2
Fore
SplineSet
160.109375 0.0068359375 m 1
 87.5009765625 0.0068359375 l 1
 87.5009765625 482.375 l 1
 160.109375 482.375 l 1
 160.109375 0.0068359375 l 1
210.534179688 582.1640625 m 1
 37 582.1640625 l 1
 37 654.772460938 l 1
 210.534179688 654.772460938 l 1
 210.534179688 582.1640625 l 1
EndSplineSet
Validated: 524289
EndChar

StartChar: unie095
Encoding: 406 57493 149
Width: 482
GlyphClass: 1
Flags: HW
LayerCount: 2
Fore
SplineSet
455.141601562 204.885742188 m 1
 26 204.885742188 l 1
 26 277.494140625 l 1
 455.141601562 277.494140625 l 1
 455.141601562 204.885742188 l 1
327.26171875 582.1640625 m 1
 153.727539062 582.1640625 l 1
 153.727539062 654.772460938 l 1
 327.26171875 654.772460938 l 1
 327.26171875 582.1640625 l 1
EndSplineSet
Validated: 524289
EndChar

StartChar: unie096
Encoding: 407 57494 150
Width: 496
GlyphClass: 1
Flags: HW
LayerCount: 2
Fore
SplineSet
462.181640625 409.765625 m 1
 33.0400390625 409.765625 l 1
 33.0400390625 482.374023438 l 1
 462.181640625 482.374023438 l 1
 462.181640625 409.765625 l 1
462.181640625 0.0068359375 m 1
 33.0400390625 0.0068359375 l 1
 33.0400390625 72.615234375 l 1
 462.181640625 72.615234375 l 1
 462.181640625 0.0068359375 l 1
334.301757812 582.1640625 m 1
 160.767578125 582.1640625 l 1
 160.767578125 654.772460938 l 1
 334.301757812 654.772460938 l 1
 334.301757812 582.1640625 l 1
EndSplineSet
Validated: 524289
EndChar

StartChar: unie097
Encoding: 408 57495 151
Width: 500
GlyphClass: 1
Flags: HW
LayerCount: 2
Fore
SplineSet
464.143554688 409.765625 m 1
 285.915039062 409.765625 l 1
 285.915039062 72.615234375 l 1
 464.143554688 72.615234375 l 1
 464.143554688 0.0068359375 l 1
 35.078125 0.0068359375 l 1
 35.078125 72.615234375 l 1
 213.306640625 72.615234375 l 1
 213.306640625 409.765625 l 1
 35.078125 409.765625 l 1
 35.078125 482.374023438 l 1
 464.143554688 482.374023438 l 1
 464.143554688 409.765625 l 1
336.33984375 582.1640625 m 1
 162.805664062 582.1640625 l 1
 162.805664062 654.772460938 l 1
 336.33984375 654.772460938 l 1
 336.33984375 582.1640625 l 1
EndSplineSet
Validated: 524289
EndChar

StartChar: unie098
Encoding: 409 57496 152
Width: 558
GlyphClass: 1
Flags: HW
LayerCount: 2
Fore
SplineSet
380.497070312 277.495117188 m 1
 380.497070312 482.375 l 1
 453.181640625 482.375 l 1
 453.181640625 0.0068359375 l 1
 380.497070312 0.0068359375 l 1
 380.497070312 204.810546875 l 1
 24.0400390625 204.810546875 l 1
 24.0400390625 277.495117188 l 1
 380.497070312 277.495117188 l 1
345.21484375 564.5234375 m 0
 326.134765625 564.5234375 310.689453125 579.96875 310.689453125 599.048828125 c 0
 310.689453125 618.12890625 326.134765625 633.57421875 345.21484375 633.57421875 c 0
 364.294921875 633.57421875 379.740234375 618.12890625 379.740234375 599.048828125 c 0
 379.740234375 579.96875 364.294921875 564.5234375 345.21484375 564.5234375 c 0
416.83984375 622.216796875 m 0
 389.659179688 622.216796875 367.626953125 644.249023438 367.626953125 671.4296875 c 0
 367.626953125 698.610351562 389.659179688 720.642578125 416.83984375 720.642578125 c 0
 444.020507812 720.642578125 466.052734375 698.610351562 466.052734375 671.4296875 c 0
 466.052734375 644.249023438 444.020507812 622.216796875 416.83984375 622.216796875 c 0
488.46484375 633.649414062 m 0
 507.544921875 633.649414062 522.990234375 618.204101562 522.990234375 599.124023438 c 0
 522.990234375 580.043945312 507.544921875 564.598632812 488.46484375 564.598632812 c 0
 469.384765625 564.598632812 453.939453125 580.043945312 453.939453125 599.124023438 c 0
 453.939453125 618.204101562 469.384765625 633.649414062 488.46484375 633.649414062 c 0
EndSplineSet
Validated: 524289
EndChar

StartChar: unie099
Encoding: 410 57497 153
Width: 557
GlyphClass: 1
Flags: HW
LayerCount: 2
Fore
SplineSet
532.94921875 277.5703125 m 1
 532.94921875 204.885742188 l 1
 176.4921875 204.885742188 l 1
 176.4921875 0.005859375 l 1
 103.807617188 0.005859375 l 1
 103.807617188 482.374023438 l 1
 176.4921875 482.374023438 l 1
 176.4921875 277.5703125 l 1
 532.94921875 277.5703125 l 1
68.525390625 633.6484375 m 0
 87.60546875 633.6484375 103.05078125 618.203125 103.05078125 599.123046875 c 0
 103.05078125 580.04296875 87.60546875 564.59765625 68.525390625 564.59765625 c 0
 49.4453125 564.59765625 34 580.04296875 34 599.123046875 c 0
 34 618.203125 49.4453125 633.6484375 68.525390625 633.6484375 c 0
140.150390625 622.215820312 m 0
 112.969726562 622.215820312 90.9375 644.248046875 90.9375 671.428710938 c 0
 90.9375 698.609375 112.969726562 720.641601562 140.150390625 720.641601562 c 0
 167.331054688 720.641601562 189.36328125 698.609375 189.36328125 671.428710938 c 0
 189.36328125 644.248046875 167.331054688 622.215820312 140.150390625 622.215820312 c 0
177.25 599.123046875 m 0
 177.25 618.203125 192.6953125 633.6484375 211.775390625 633.6484375 c 0
 230.85546875 633.6484375 246.30078125 618.203125 246.30078125 599.123046875 c 0
 246.30078125 580.04296875 230.85546875 564.59765625 211.775390625 564.59765625 c 0
 192.6953125 564.59765625 177.25 580.04296875 177.25 599.123046875 c 0
EndSplineSet
Validated: 524289
EndChar

StartChar: unie09a
Encoding: 411 57498 154
Width: 529
GlyphClass: 1
Flags: HW
LayerCount: 2
Fore
SplineSet
479.141601562 482.374023438 m 1
 479.141601562 409.765625 l 1
 300.913085938 409.765625 l 1
 300.913085938 0.0068359375 l 1
 228.228515625 0.0068359375 l 1
 228.228515625 409.765625 l 1
 50 409.765625 l 1
 50 482.374023438 l 1
 479.141601562 482.374023438 l 1
192.946289062 564.5234375 m 0
 173.866210938 564.5234375 158.420898438 579.96875 158.420898438 599.048828125 c 0
 158.420898438 618.12890625 173.866210938 633.57421875 192.946289062 633.57421875 c 0
 212.026367188 633.57421875 227.471679688 618.12890625 227.471679688 599.048828125 c 0
 227.471679688 579.96875 212.026367188 564.5234375 192.946289062 564.5234375 c 0
264.571289062 622.216796875 m 0
 237.390625 622.216796875 215.358398438 644.249023438 215.358398438 671.4296875 c 0
 215.358398438 698.610351562 237.390625 720.642578125 264.571289062 720.642578125 c 0
 291.751953125 720.642578125 313.784179688 698.610351562 313.784179688 671.4296875 c 0
 313.784179688 644.249023438 291.751953125 622.216796875 264.571289062 622.216796875 c 0
301.670898438 599.124023438 m 0
 301.670898438 618.204101562 317.116210938 633.649414062 336.196289062 633.649414062 c 0
 355.276367188 633.649414062 370.721679688 618.204101562 370.721679688 599.124023438 c 0
 370.721679688 580.043945312 355.276367188 564.598632812 336.196289062 564.598632812 c 0
 317.116210938 564.598632812 301.670898438 580.043945312 301.670898438 599.124023438 c 0
EndSplineSet
Validated: 524289
EndChar

StartChar: unie09b
Encoding: 412 57499 155
Width: 529
GlyphClass: 1
Flags: HW
LayerCount: 2
Fore
SplineSet
300.915039062 72.615234375 m 1
 479.143554688 72.615234375 l 1
 479.143554688 0.0068359375 l 1
 50.078125 0.0068359375 l 1
 50.078125 72.615234375 l 1
 228.306640625 72.615234375 l 1
 228.306640625 482.374023438 l 1
 300.915039062 482.374023438 l 1
 300.915039062 72.615234375 l 1
192.948242188 564.522460938 m 0
 173.868164062 564.522460938 158.422851562 579.967773438 158.422851562 599.047851562 c 0
 158.422851562 618.127929688 173.868164062 633.573242188 192.948242188 633.573242188 c 0
 212.028320312 633.573242188 227.473632812 618.127929688 227.473632812 599.047851562 c 0
 227.473632812 579.967773438 212.028320312 564.522460938 192.948242188 564.522460938 c 0
264.573242188 622.215820312 m 0
 237.392578125 622.215820312 215.360351562 644.248046875 215.360351562 671.428710938 c 0
 215.360351562 698.609375 237.392578125 720.641601562 264.573242188 720.641601562 c 0
 291.75390625 720.641601562 313.786132812 698.609375 313.786132812 671.428710938 c 0
 313.786132812 644.248046875 291.75390625 622.215820312 264.573242188 622.215820312 c 0
301.672851562 599.123046875 m 0
 301.672851562 618.203125 317.118164062 633.6484375 336.198242188 633.6484375 c 0
 355.278320312 633.6484375 370.723632812 618.203125 370.723632812 599.123046875 c 0
 370.723632812 580.04296875 355.278320312 564.59765625 336.198242188 564.59765625 c 0
 317.118164062 564.59765625 301.672851562 580.04296875 301.672851562 599.123046875 c 0
EndSplineSet
Validated: 524289
EndChar

StartChar: unie09c
Encoding: 413 57500 156
Width: 281
GlyphClass: 1
Flags: HW
LayerCount: 2
Fore
SplineSet
176.416015625 0.0068359375 m 1
 103.807617188 0.0068359375 l 1
 103.807617188 482.375 l 1
 176.416015625 482.375 l 1
 176.416015625 0.0068359375 l 1
68.525390625 633.649414062 m 0
 87.60546875 633.649414062 103.05078125 618.204101562 103.05078125 599.124023438 c 0
 103.05078125 580.043945312 87.60546875 564.598632812 68.525390625 564.598632812 c 0
 49.4453125 564.598632812 34 580.043945312 34 599.124023438 c 0
 34 618.204101562 49.4453125 633.649414062 68.525390625 633.649414062 c 0
140.150390625 622.216796875 m 0
 112.969726562 622.216796875 90.9375 644.249023438 90.9375 671.4296875 c 0
 90.9375 698.610351562 112.969726562 720.642578125 140.150390625 720.642578125 c 0
 167.331054688 720.642578125 189.36328125 698.610351562 189.36328125 671.4296875 c 0
 189.36328125 644.249023438 167.331054688 622.216796875 140.150390625 622.216796875 c 0
211.775390625 633.649414062 m 0
 230.85546875 633.649414062 246.30078125 618.204101562 246.30078125 599.124023438 c 0
 246.30078125 580.043945312 230.85546875 564.598632812 211.775390625 564.598632812 c 0
 192.6953125 564.598632812 177.25 580.043945312 177.25 599.124023438 c 0
 177.25 618.204101562 192.6953125 633.649414062 211.775390625 633.649414062 c 0
EndSplineSet
Validated: 524289
EndChar

StartChar: unie09d
Encoding: 414 57501 157
Width: 480
GlyphClass: 1
Flags: HW
LayerCount: 2
Fore
SplineSet
454.141601562 204.885742188 m 1
 25 204.885742188 l 1
 25 277.494140625 l 1
 454.141601562 277.494140625 l 1
 454.141601562 204.885742188 l 1
167.946289062 564.522460938 m 0
 148.866210938 564.522460938 133.420898438 579.967773438 133.420898438 599.047851562 c 0
 133.420898438 618.127929688 148.866210938 633.573242188 167.946289062 633.573242188 c 0
 187.026367188 633.573242188 202.471679688 618.127929688 202.471679688 599.047851562 c 0
 202.471679688 579.967773438 187.026367188 564.522460938 167.946289062 564.522460938 c 0
239.571289062 622.215820312 m 0
 212.390625 622.215820312 190.358398438 644.248046875 190.358398438 671.428710938 c 0
 190.358398438 698.609375 212.390625 720.641601562 239.571289062 720.641601562 c 0
 266.751953125 720.641601562 288.784179688 698.609375 288.784179688 671.428710938 c 0
 288.784179688 644.248046875 266.751953125 622.215820312 239.571289062 622.215820312 c 0
276.670898438 599.123046875 m 0
 276.670898438 618.203125 292.116210938 633.6484375 311.196289062 633.6484375 c 0
 330.276367188 633.6484375 345.721679688 618.203125 345.721679688 599.123046875 c 0
 345.721679688 580.04296875 330.276367188 564.59765625 311.196289062 564.59765625 c 0
 292.116210938 564.59765625 276.670898438 580.04296875 276.670898438 599.123046875 c 0
EndSplineSet
Validated: 524289
EndChar

StartChar: unie09e
Encoding: 415 57502 158
Width: 494
GlyphClass: 1
Flags: HW
LayerCount: 2
Fore
SplineSet
461.181640625 409.765625 m 1
 32.0400390625 409.765625 l 1
 32.0400390625 482.374023438 l 1
 461.181640625 482.374023438 l 1
 461.181640625 409.765625 l 1
461.181640625 0.0068359375 m 1
 32.0400390625 0.0068359375 l 1
 32.0400390625 72.615234375 l 1
 461.181640625 72.615234375 l 1
 461.181640625 0.0068359375 l 1
174.986328125 564.5234375 m 0
 155.90625 564.5234375 140.4609375 579.96875 140.4609375 599.048828125 c 0
 140.4609375 618.12890625 155.90625 633.57421875 174.986328125 633.57421875 c 0
 194.06640625 633.57421875 209.51171875 618.12890625 209.51171875 599.048828125 c 0
 209.51171875 579.96875 194.06640625 564.5234375 174.986328125 564.5234375 c 0
246.611328125 622.216796875 m 0
 219.430664062 622.216796875 197.3984375 644.249023438 197.3984375 671.4296875 c 0
 197.3984375 698.610351562 219.430664062 720.642578125 246.611328125 720.642578125 c 0
 273.791992188 720.642578125 295.82421875 698.610351562 295.82421875 671.4296875 c 0
 295.82421875 644.249023438 273.791992188 622.216796875 246.611328125 622.216796875 c 0
283.634765625 599.124023438 m 0
 283.634765625 618.204101562 299.080078125 633.649414062 318.16015625 633.649414062 c 0
 337.240234375 633.649414062 352.685546875 618.204101562 352.685546875 599.124023438 c 0
 352.685546875 580.043945312 337.240234375 564.598632812 318.16015625 564.598632812 c 0
 299.080078125 564.598632812 283.634765625 580.043945312 283.634765625 599.124023438 c 0
EndSplineSet
Validated: 524289
EndChar

StartChar: unie09f
Encoding: 416 57503 159
Width: 498
GlyphClass: 1
Flags: HW
LayerCount: 2
Fore
SplineSet
463.143554688 409.765625 m 1
 284.915039062 409.765625 l 1
 284.915039062 72.615234375 l 1
 463.143554688 72.615234375 l 1
 463.143554688 0.0068359375 l 1
 34.078125 0.0068359375 l 1
 34.078125 72.615234375 l 1
 212.306640625 72.615234375 l 1
 212.306640625 409.765625 l 1
 34.078125 409.765625 l 1
 34.078125 482.374023438 l 1
 463.143554688 482.374023438 l 1
 463.143554688 409.765625 l 1
177.024414062 564.5234375 m 0
 157.944335938 564.5234375 142.499023438 579.96875 142.499023438 599.048828125 c 0
 142.499023438 618.12890625 157.944335938 633.57421875 177.024414062 633.57421875 c 0
 196.104492188 633.57421875 211.549804688 618.12890625 211.549804688 599.048828125 c 0
 211.549804688 579.96875 196.104492188 564.5234375 177.024414062 564.5234375 c 0
248.649414062 622.216796875 m 0
 221.46875 622.216796875 199.436523438 644.249023438 199.436523438 671.4296875 c 0
 199.436523438 698.610351562 221.46875 720.642578125 248.649414062 720.642578125 c 0
 275.830078125 720.642578125 297.862304688 698.610351562 297.862304688 671.4296875 c 0
 297.862304688 644.249023438 275.830078125 622.216796875 248.649414062 622.216796875 c 0
285.672851562 599.124023438 m 0
 285.672851562 618.204101562 301.118164062 633.649414062 320.198242188 633.649414062 c 0
 339.278320312 633.649414062 354.723632812 618.204101562 354.723632812 599.124023438 c 0
 354.723632812 580.043945312 339.278320312 564.598632812 320.198242188 564.598632812 c 0
 301.118164062 564.598632812 285.672851562 580.043945312 285.672851562 599.124023438 c 0
EndSplineSet
Validated: 524289
EndChar

StartChar: uniE100
Encoding: 417 57600 160
Width: 1000
Flags: W
HStem: -152.6 83.0996<595.82 725.279> 159 98.9004<517.25 710.916>
VStem: 184.2 82.8994<-139.4 -25.9314> 314.7 81.5<669.87 713.548> 463.2 83<-19.9297 111.21> 774.8 83.2002<-19.9628 111.144>
LayerCount: 2
Fore
SplineSet
755.799804688 217.599609375 m 1
 816.700195312 184 857.900390625 119.200195312 858 44.7998046875 c 0
 858 -64.2001953125 769.599609375 -152.599609375 660.599609375 -152.599609375 c 0
 551.599609375 -152.599609375 463.200195312 -64.2001953125 463.200195312 44.7998046875 c 0
 463.200195312 90.2001953125 478.599609375 132 504.400390625 165.400390625 c 1
 417.900390625 143.400390625 341.200195312 84.900390625 299 -1.599609375 c 0
 284 -32.2001953125 274.200195312 -65 269.799804688 -98.599609375 c 0
 267.799804688 -111.5 267.099609375 -124.099609375 267.099609375 -136.799804688 c 1
 267.099609375 -137.599609375 267.099609375 -138.5 267.099609375 -139.400390625 c 1
 184.200195312 -139.400390625 l 1
 184.200195312 -138.599609375 184.200195312 -137.700195312 184.200195312 -136.799804688 c 1
 184.200195312 159.099609375 228.200195312 453.400390625 314.700195312 736.400390625 c 1
 396.200195312 711.400390625 l 1
 337.299804688 518.700195312 298.700195312 320.599609375 280.900390625 120.299804688 c 1
 353.799804688 204.599609375 461.5 257.900390625 581.599609375 257.900390625 c 0
 629.099609375 257.900390625 676.200195312 249.299804688 720.5 232.799804688 c 0
 732.599609375 228.900390625 744.200195312 223.900390625 755.200195312 217.900390625 c 0
 755.400390625 217.799804688 755.599609375 217.700195312 755.799804688 217.599609375 c 1
660.5 -69.5 m 0
 723.599609375 -69.5 774.799804688 -18.400390625 774.799804688 44.7001953125 c 0
 774.799804688 88.7998046875 749.799804688 127.099609375 713.200195312 146.099609375 c 0
 708.099609375 148.5 703 150.700195312 697.900390625 152.700195312 c 0
 686.200195312 156.799804688 673.599609375 159 660.5 159 c 0
 597.400390625 159 546.200195312 107.900390625 546.200195312 44.7998046875 c 0
 546.200195312 -18.2998046875 597.400390625 -69.5 660.5 -69.5 c 0
EndSplineSet
Validated: 1
EndChar

StartChar: uniE101
Encoding: 418 57601 161
Width: 1000
Flags: W
VStem: 179 82.9004<-139.4 -25.8232> 304.5 81.5996<670.522 714.244>
LayerCount: 2
Fore
SplineSet
750.5 217.599609375 m 1
 834.700195312 171.400390625 874.700195312 69.2001953125 840.5 -23.5 c 0
 802.799804688 -125.799804688 689.299804688 -178.099609375 587 -140.299804688 c 0
 571.200195312 -134.5 556.299804688 -126.700195312 542.5 -117.099609375 c 1
 589.599609375 -49.5 l 1
 641.700195312 -85.7998046875 713.400390625 -73 749.700195312 -20.900390625 c 0
 786 31.2001953125 773.200195312 102.900390625 721.099609375 139.200195312 c 0
 718.900390625 140.700195312 716.700195312 142.099609375 714.400390625 143.5 c 1
 558.200195312 219.599609375 369.900390625 154.599609375 293.700195312 -1.5 c 0
 272.799804688 -44.5 261.900390625 -91.599609375 261.900390625 -139.400390625 c 1
 179 -139.400390625 l 1
 179 -138.599609375 179 -137.700195312 179 -136.799804688 c 1
 179 159.400390625 217.799804688 453.900390625 304.5 737.099609375 c 1
 386.099609375 712.099609375 l 1
 326.400390625 517 287.5 316.299804688 269.900390625 113.5 c 1
 342.700195312 201.700195312 453 257.900390625 576.299804688 257.900390625 c 0
 626.799804688 257.900390625 676.900390625 248.5 723.599609375 229.900390625 c 1
 732.700195312 226.5 741.400390625 222.599609375 749.599609375 218.099609375 c 0
 749.900390625 217.900390625 750.200195312 217.799804688 750.5 217.599609375 c 1
EndSplineSet
Validated: 33
EndChar

StartChar: uniE102
Encoding: 419 57602 162
Width: 1000
Flags: W
HStem: -152.7 83.1006<164.22 295.136> 159 83.0996<164.22 295.673>
VStem: 31.5996 83<-20.0295 109.43> 303.6 85.9004<227.5 721.1>
LayerCount: 2
Fore
SplineSet
918.5 18.599609375 m 1
 978 -42.7001953125 l 1
 820.200195312 -195.700195312 568.299804688 -191.700195312 415.400390625 -33.900390625 c 0
 414.200195312 -32.599609375 412.900390625 -31.2998046875 411.700195312 -30 c 1
 382.299804688 -102 311.599609375 -152.700195312 229 -152.700195312 c 0
 120 -152.700195312 31.599609375 -64.2998046875 31.599609375 44.7001953125 c 0
 31.599609375 153.700195312 120 242.099609375 229 242.099609375 c 0
 255.400390625 242.099609375 280.599609375 236.900390625 303.599609375 227.5 c 1
 303.5 229.400390625 303.400390625 231.299804688 303.400390625 233.200195312 c 1
 305.299804688 721.099609375 l 1
 389.5 721.099609375 l 1
 389.5 221.299804688 l 1
 400.900390625 55.5 541 -73.5 708.799804688 -69.400390625 c 0
 787.299804688 -67.400390625 862.099609375 -36 918.5 18.599609375 c 1
343.200195312 44.7001953125 m 0
 343.200195312 59.599609375 340.400390625 73.7998046875 335.099609375 86.7998046875 c 0
 334.599609375 88.2001953125 334 89.599609375 333.400390625 91 c 0
 315.700195312 131 275.599609375 159 228.900390625 159 c 0
 165.799804688 159 114.599609375 107.799804688 114.599609375 44.7001953125 c 0
 114.599609375 -18.400390625 165.799804688 -69.599609375 228.900390625 -69.599609375 c 0
 292 -69.599609375 343.200195312 -18.400390625 343.200195312 44.7001953125 c 0
EndSplineSet
Validated: 33
EndChar

StartChar: uniE103
Encoding: 420 57603 163
Width: 1000
Flags: W
HStem: -73.5996 83<321.911 457.715> 238 83.0996<321.601 457.716>
VStem: 173.7 85.2998<-136.8 -27.5996> 304.5 81.5996<670.521 714.244> 506.4 83.0996<59.0203 188.474>
LayerCount: 2
Fore
SplineSet
389.5 321.099609375 m 0
 499.900390625 321.099609375 589.5 232.799804688 589.5 123.799804688 c 0
 589.5 14.7998046875 500 -73.599609375 389.5 -73.599609375 c 0
 340.599609375 -73.599609375 295.799804688 -56.2998046875 261.099609375 -27.599609375 c 1
 259.700195312 -64 259 -100.400390625 259 -136.799804688 c 1
 173.700195312 -136.799804688 l 1
 173.700195312 159.299804688 217.799804688 453.900390625 304.5 737.099609375 c 1
 386.099609375 712.099609375 l 1
 344.299804688 575.700195312 312.700195312 436.5 291.5 295.799804688 c 1
 320.5 311.900390625 353.900390625 321.099609375 389.5 321.099609375 c 0
389.5 9.400390625 m 0
 454 9.400390625 506.400390625 60.599609375 506.400390625 123.700195312 c 0
 506.400390625 186.799804688 454.099609375 238 389.5 238 c 0
 324.900390625 238 272.599609375 186.799804688 272.599609375 123.700195312 c 0
 272.599609375 60.599609375 324.900390625 9.400390625 389.5 9.400390625 c 0
EndSplineSet
Validated: 1
EndChar

StartChar: uniE104
Encoding: 421 57604 164
Width: 1000
Flags: W
HStem: -149.1 85.8994<356.333 576.081>
VStem: 147.4 85.8994<60.4241 398.03> 779.1 85.5<208.525 242.1>
LayerCount: 2
Fore
SplineSet
862.599609375 208 m 1
 949.5 161.799804688 991.099609375 57.2998046875 956.099609375 -37.7998046875 c 0
 917.799804688 -141.400390625 802.799804688 -194.400390625 699.200195312 -156.099609375 c 0
 673.700195312 -146.700195312 650.400390625 -132.200195312 630.799804688 -113.599609375 c 1
 581.200195312 -136 526.200195312 -148.599609375 468.299804688 -148.799804688 c 1
 440.599609375 -149.099609375 l 1
 278.799804688 -145.599609375 148.299804688 -13.7998046875 147.400390625 147.299804688 c 1
 147.400390625 346.299804688 177.200195312 544.099609375 235.900390625 734.200195312 c 1
 318 708.900390625 l 1
 262.400390625 528.799804688 233.900390625 341.400390625 233.299804688 153 c 1
 231.299804688 37.900390625 322.299804688 -57.5 436.599609375 -63.2001953125 c 1
 471.200195312 -63.2001953125 l 2
 639.599609375 -60.900390625 776.200195312 74.7998046875 779.099609375 243.599609375 c 1
 864.599609375 242.099609375 l 1
 864.400390625 230.599609375 863.799804688 219.200195312 862.599609375 208 c 1
841.5 -58.7998046875 m 0
 891.5 -18.5 899.200195312 54.7998046875 858.700195312 104.700195312 c 0
 854.099609375 110.400390625 848.900390625 115.700195312 843.299804688 120.400390625 c 1
 817.5 44.900390625 769.700195312 -20.2998046875 707.599609375 -67.599609375 c 1
 748.400390625 -92.5 802.200195312 -90.599609375 841.5 -58.7998046875 c 0
EndSplineSet
Validated: 33
EndChar

StartChar: uniE105
Encoding: 422 57605 165
Width: 1000
Flags: W
HStem: -149.2 86<367.386 529.042> 238 83<543.17 673.796>
VStem: 157.9 85.8994<58.6873 396> 410.5 83.0996<57.79 188.379> 722.2 151.5<57.5445 189.855> 789.5 84.2002<-147.5 5.59961 211.796 300>
LayerCount: 2
Fore
SplineSet
789.5 300 m 1xf4
 873.700195312 300 l 1
 873.700195312 -147.5 l 1
 789.5 -147.5 l 1
 789.5 5.599609375 l 1
 717 -88.099609375 603.599609375 -148.400390625 476.200195312 -148.900390625 c 1
 448.5 -149.200195312 l 1
 284.200195312 -145.599609375 155 -9.900390625 157.900390625 154.400390625 c 1
 158.599609375 350.900390625 188.400390625 546.299804688 246.400390625 734.099609375 c 1
 328.5 708.799804688 l 1
 272.400390625 526.900390625 243.799804688 337.700195312 243.799804688 147.299804688 c 1
 244.799804688 34.7001953125 332.099609375 -57.7001953125 444.5 -63.2001953125 c 1
 479.099609375 -63.2001953125 l 2
 496.799804688 -63 514.099609375 -61.2998046875 531 -58.2001953125 c 1
 460.200195312 -28.2998046875 410.5 41.900390625 410.5 123.599609375 c 0
 410.5 232.599609375 498.900390625 321 607.900390625 321 c 0
 685.400390625 321 752.5 276.299804688 784.799804688 211.299804688 c 1
 786.099609375 221.900390625 786.799804688 231.599609375 787 242.5 c 1
 789.5 300 l 1xf4
493.599609375 123.700195312 m 0
 493.599609375 60.599609375 544.799804688 9.400390625 607.900390625 9.400390625 c 0
 671 9.400390625 722.200195312 60.599609375 722.200195312 123.700195312 c 0xf8
 722.200195312 186.799804688 671 238 607.900390625 238 c 0
 544.799804688 238 493.599609375 186.799804688 493.599609375 123.700195312 c 0
EndSplineSet
Validated: 33
EndChar

StartChar: uniE106
Encoding: 423 57606 166
Width: 1000
Flags: W
HStem: -149.1 85.8994<356.206 575.969>
VStem: 147.4 85.8994<60.4241 398.03> 779 84.2002<-142.2 2.5 138.685 242.2>
LayerCount: 2
Fore
SplineSet
864.5 242.200195312 m 1
 864.299804688 233.299804688 863.900390625 224.5 863.200195312 215.799804688 c 2
 863.200195312 -142.200195312 l 1
 779 -142.200195312 l 1
 779 2.5 l 1
 706.400390625 -89.400390625 594.099609375 -148.299804688 468.200195312 -148.799804688 c 1
 440.5 -149.099609375 l 1
 278.599609375 -145.599609375 148.299804688 -13.7998046875 147.400390625 147.299804688 c 1
 147.400390625 346.299804688 177.200195312 544.099609375 235.900390625 734.200195312 c 1
 318 708.900390625 l 1
 262.400390625 528.799804688 233.900390625 341.5 233.299804688 153 c 1
 231.299804688 37.900390625 322.099609375 -57.5 436.5 -63.2001953125 c 1
 471.099609375 -63.2001953125 l 2
 639.5 -60.7998046875 776 74.7998046875 779 243.700195312 c 1
 864.5 242.200195312 l 1
EndSplineSet
Validated: 33
EndChar

StartChar: uniE107
Encoding: 424 57607 167
Width: 1000
Flags: W
HStem: 248.5 83.0996<527.32 656.78>
VStem: 147.4 85.7998<61.9885 398.03> 394.6 83.2002<64.7774 199.836> 706.4 83<63.2285 199.836> 856.5 86.9004<-143.4 -78.7853>
LayerCount: 2
Fore
SplineSet
907 -29.099609375 m 0
 930.599609375 -62.5 943.299804688 -102.400390625 943.400390625 -143.400390625 c 1
 856.5 -143.599609375 l 1
 856.400390625 -81.7001953125 806.200195312 -31.7001953125 744.299804688 -31.7998046875 c 0
 721.200195312 -31.900390625 698.200195312 -38.2998046875 679.400390625 -51.599609375 c 1
 604.5 -104.099609375 l 1
 471.099609375 -187.299804688 294.400390625 -152.799804688 202.799804688 -22.7001953125 c 0
 167.700195312 27.2001953125 147.799804688 86.5 147.400390625 147.299804688 c 1
 147.400390625 346.299804688 177.200195312 544.099609375 235.900390625 734.200195312 c 1
 318 708.900390625 l 1
 263 530.900390625 234.5 345.900390625 233.200195312 159.700195312 c 1
 231.200195312 42.400390625 319.299804688 -56.7998046875 436.200195312 -62.5 c 0
 462.599609375 -63.7998046875 488.700195312 -60.099609375 513.400390625 -51.900390625 c 1
 443.5 -21.099609375 394.599609375 49.400390625 394.599609375 131.599609375 c 0
 394.599609375 242.099609375 483 331.599609375 592 331.599609375 c 0
 701 331.599609375 789.400390625 242.099609375 789.400390625 131.599609375 c 0
 789.400390625 103.700195312 783.799804688 77.099609375 773.599609375 53 c 1
 825.599609375 45.2998046875 874.400390625 17.2001953125 907 -29.099609375 c 0
477.799804688 131.599609375 m 0
 477.799804688 67 529 14.7001953125 592.099609375 14.7001953125 c 0
 608.900390625 14.7001953125 624.900390625 18.400390625 639.299804688 25.099609375 c 0
 644.400390625 28.2998046875 649.5 31.2001953125 654.700195312 33.7998046875 c 0
 685.799804688 54.7001953125 706.400390625 90.7001953125 706.400390625 131.599609375 c 0
 706.400390625 196.200195312 655.200195312 248.5 592.099609375 248.5 c 0
 529 248.5 477.799804688 196.200195312 477.799804688 131.599609375 c 0
EndSplineSet
Validated: 33
EndChar

StartChar: uniE108
Encoding: 425 57608 168
Width: 1000
Flags: W
HStem: 127.439 76.8828<861.552 933.214> 236.8 84.2002<763.134 831.667>
VStem: 168.5 82.9004<-139.4 -25.8521> 299.3 81.6006<670.521 714.244> 757.9 79<241.406 316.394> 858.941 76.8828<130.05 201.712>
LayerCount: 2
Fore
SplineSet
757.900390625 278.900390625 m 0
 757.900390625 302.151367188 775.584960938 321 797.400390625 321 c 0
 819.21484375 321 836.900390625 302.151367188 836.900390625 278.900390625 c 0
 836.900390625 255.6484375 819.21484375 236.799804688 797.400390625 236.799804688 c 0
 775.584960938 236.799804688 757.900390625 255.6484375 757.900390625 278.900390625 c 0
858.94140625 156.803710938 m 0
 853.927734375 178.034179688 867.075195312 199.30859375 888.305664062 204.322265625 c 0
 909.536132812 209.334960938 930.810546875 196.188476562 935.82421875 174.958007812 c 0
 940.836914062 153.7265625 927.690429688 132.452148438 906.459960938 127.439453125 c 0
 885.229492188 122.42578125 863.954101562 135.573242188 858.94140625 156.803710938 c 0
715.799804688 230.200195312 m 1
 819.599609375 192.900390625 873.099609375 79.599609375 835.299804688 -22.7998046875 c 0
 797.5 -125.200195312 682.700195312 -178 578.900390625 -140.700195312 c 0
 563.099609375 -135 548 -127.299804688 534.099609375 -117.900390625 c 1
 581.200195312 -50.2998046875 l 1
 634.900390625 -86 708 -72.5 744.599609375 -19.900390625 c 0
 781.200195312 32.5 767.299804688 104.099609375 713.599609375 139.799804688 c 0
 711.299804688 141.299804688 709 142.700195312 706.700195312 144 c 1
 549 219.599609375 359.200195312 153.900390625 283 -2.5 c 0
 268.200195312 -32.7998046875 258.5 -65.099609375 254.099609375 -98.2001953125 c 0
 252.299804688 -111.099609375 251.400390625 -123.900390625 251.400390625 -136.799804688 c 1
 251.400390625 -137.599609375 251.400390625 -138.5 251.400390625 -139.400390625 c 1
 168.5 -139.400390625 l 1
 168.5 -138.599609375 168.5 -137.700195312 168.5 -136.799804688 c 1
 168.5 159.299804688 212.599609375 453.900390625 299.299804688 737.099609375 c 1
 380.900390625 712.099609375 l 1
 321.700195312 519 283 320.400390625 265.099609375 119.599609375 c 1
 338.5 204.299804688 447.099609375 257.900390625 568.400390625 257.900390625 c 0
 618.900390625 257.900390625 669 248.599609375 715.799804688 230.200195312 c 1
EndSplineSet
Validated: 33
EndChar

StartChar: uniE109
Encoding: 426 57609 169
Width: 1000
Flags: W
HStem: -147.4 84.2002<508.5 915.8> 216.9 83.0996<332.647 468.236>
VStem: 152.7 87.2998<221 402.12> 516.9 83.0996<36.9807 167.33>
LayerCount: 2
Fore
SplineSet
915.799804688 -63.2001953125 m 1
 915.799804688 -147.400390625 l 1
 444.099609375 -147.400390625 l 1
 279.799804688 -143.799804688 149.799804688 -9.7998046875 152.700195312 154.5 c 1
 153.400390625 351 183.200195312 546.400390625 241.200195312 734.200195312 c 1
 323.299804688 708.900390625 l 1
 274.400390625 550.5 246.400390625 386.400390625 240 221 c 1
 276.5 269 334.599609375 300 400 300 c 0
 510.5 300 600 211.599609375 600 102.599609375 c 0
 600 33.099609375 563.5 -28 508.5 -63.2001953125 c 1
 915.799804688 -63.2001953125 l 1
400 216.900390625 m 0
 335.400390625 216.900390625 283.099609375 165.700195312 283.099609375 102.599609375 c 0
 283.099609375 39.5 335.400390625 -11.7001953125 400 -11.7001953125 c 0
 464.599609375 -11.7001953125 516.900390625 39.5 516.900390625 102.599609375 c 0
 516.900390625 165.700195312 464.599609375 216.900390625 400 216.900390625 c 0
EndSplineSet
Validated: 33
EndChar

StartChar: uniE10A
Encoding: 427 57610 170
Width: 1000
Flags: W
HStem: -147.4 84.2002<513.8 921> 216.9 83.0996<337.947 473.536> 236.8 79<672.722 743.079 809.521 879.879>
VStem: 158 87.2998<221 402.12> 522.2 83.0996<36.9807 167.33> 668.4 79<241.121 311.479> 805.2 79<241.121 311.479>
LayerCount: 2
Fore
SplineSet
668.400390625 276.299804688 m 0xbe
 668.400390625 298.115234375 686.084960938 315.799804688 707.900390625 315.799804688 c 0
 729.71484375 315.799804688 747.400390625 298.115234375 747.400390625 276.299804688 c 0
 747.400390625 254.484375 729.71484375 236.799804688 707.900390625 236.799804688 c 0
 686.084960938 236.799804688 668.400390625 254.484375 668.400390625 276.299804688 c 0xbe
805.200195312 276.299804688 m 0
 805.200195312 298.115234375 822.884765625 315.799804688 844.700195312 315.799804688 c 0
 866.515625 315.799804688 884.200195312 298.115234375 884.200195312 276.299804688 c 0
 884.200195312 254.484375 866.515625 236.799804688 844.700195312 236.799804688 c 0
 822.884765625 236.799804688 805.200195312 254.484375 805.200195312 276.299804688 c 0
921.099609375 -63.2001953125 m 1
 921 -63.2001953125 l 1
 921 -147.400390625 l 1
 449.5 -147.400390625 l 1
 285.200195312 -143.799804688 155 -9.7998046875 158 154.5 c 1
 158.700195312 351 188.5 546.400390625 246.5 734.200195312 c 1
 328.599609375 708.900390625 l 1
 279.700195312 550.5 251.700195312 386.400390625 245.299804688 221 c 1
 281.799804688 269 339.900390625 300 405.299804688 300 c 0xde
 515.799804688 300 605.299804688 211.599609375 605.299804688 102.599609375 c 0
 605.299804688 33.099609375 568.799804688 -28 513.799804688 -63.2001953125 c 1
 921.099609375 -63.2001953125 l 1
405.299804688 216.900390625 m 0
 340.700195312 216.900390625 288.400390625 165.700195312 288.400390625 102.599609375 c 0
 288.400390625 39.5 340.700195312 -11.7001953125 405.299804688 -11.7001953125 c 0
 469.900390625 -11.7001953125 522.200195312 39.5 522.200195312 102.599609375 c 0
 522.200195312 165.700195312 469.900390625 216.900390625 405.299804688 216.900390625 c 0
EndSplineSet
Validated: 37
EndChar

StartChar: uniE10B
Encoding: 428 57611 171
Width: 1000
Flags: W
HStem: -152.6 83<185.27 314.73> -78.9004 84.2002<695.895 807.708> 159 83.2998<185.27 304.714> 236.8 84.2998<676.491 807.687>
VStem: 52.5996 83.1006<-19.9348 109.53> 305.3 84.2002<234.4 721.2> 364.3 83.1006<-19.9797 62.0771> 542.1 84.2002<106.449 186.637> 605.3 84.2002<-147.3 -71.9004> 857.9 84.1992<55.458 186.658>
LayerCount: 2
Fore
SplineSet
742.099609375 321.099609375 m 0x1d40
 852.599609375 321.099609375 942.099609375 231.599609375 942.099609375 121.099609375 c 0
 942.099609375 10.599609375 852.599609375 -78.900390625 742.099609375 -78.900390625 c 0x5d40
 723.900390625 -78.900390625 706.299804688 -76.5 689.5 -71.900390625 c 1
 689.5 -147.299804688 l 1
 605.299804688 -147.299804688 l 1
 605.299804688 -29.2001953125 l 1
 446.599609375 62.400390625 l 1
 447.099609375 56.599609375 447.400390625 50.7001953125 447.400390625 44.7998046875 c 0
 447.400390625 -64.2001953125 359 -152.599609375 250 -152.599609375 c 0
 141 -152.599609375 52.599609375 -64.099609375 52.599609375 44.900390625 c 0
 52.599609375 153.900390625 141 242.299804688 250 242.299804688 c 0xaac0
 269.200195312 242.299804688 287.799804688 239.5 305.299804688 234.400390625 c 1
 305.299804688 721.200195312 l 1
 389.5 721.200195312 l 1
 389.5 194.200195312 l 1
 542.700195312 105.700195312 l 1
 542.299804688 110.799804688 542.099609375 115.900390625 542.099609375 121.099609375 c 0
 542.099609375 231.599609375 631.599609375 321.099609375 742.099609375 321.099609375 c 0x1d40
364.299804688 44.7001953125 m 0xaa40
 364.299804688 82.400390625 346 115.799804688 317.900390625 136.700195312 c 1
 295.5 149.599609375 l 2
 281.5 155.599609375 266.200195312 159 250 159 c 0
 186.900390625 159 135.700195312 107.799804688 135.700195312 44.7001953125 c 0
 135.700195312 -18.400390625 186.900390625 -69.599609375 250 -69.599609375 c 0
 313.099609375 -69.599609375 364.299804688 -18.400390625 364.299804688 44.7001953125 c 0xaa40
742.099609375 5.2998046875 m 0x5940
 806.099609375 5.2998046875 857.900390625 57 857.900390625 121 c 0
 857.900390625 185 806 236.799804688 742.099609375 236.799804688 c 0
 678.099609375 236.799804688 626.299804688 184.900390625 626.299804688 121 c 0
 626.299804688 87.2001953125 640.900390625 56.7998046875 664 35.599609375 c 1
 701.5 13.900390625 l 1
 700.900390625 12.7998046875 l 1
 713.700195312 8 727.599609375 5.2998046875 742.099609375 5.2998046875 c 0x5940
EndSplineSet
Validated: 1
EndChar

StartChar: uniE10C
Encoding: 429 57612 172
Width: 1000
Flags: W
HStem: -152.6 83.0996<590.52 719.966> 159 98.9004<511.966 705.667>
VStem: 178.9 82.8994<-139.4 -25.823> 309.8 81.6006<670.601 714.345> 457.8 83.2002<-19.9297 111.21> 769.6 83<-19.9628 111.144>
LayerCount: 2
Fore
SplineSet
865.5 221.599609375 m 2
 875 216.099609375 878.299804688 203.900390625 872.799804688 194.400390625 c 0
 867.299804688 184.900390625 855.099609375 181.599609375 845.599609375 187.099609375 c 2
 707.799804688 266.700195312 l 2
 698.299804688 272.200195312 695 284.400390625 700.5 293.900390625 c 0
 706 303.400390625 718.200195312 306.700195312 727.700195312 301.200195312 c 2
 865.5 221.599609375 l 2
750.5 217.599609375 m 1
 811.400390625 184 852.599609375 119.200195312 852.599609375 44.7998046875 c 0
 852.599609375 -64.2001953125 764.200195312 -152.599609375 655.200195312 -152.599609375 c 0
 546.200195312 -152.599609375 457.799804688 -64.2001953125 457.799804688 44.7998046875 c 0
 457.799804688 90.2001953125 473.200195312 132 499 165.400390625 c 1
 412.5 143.400390625 335.799804688 84.900390625 293.599609375 -1.599609375 c 0
 278.700195312 -32 268.900390625 -64.599609375 264.5 -98 c 0
 262.200195312 -113.5 261.799804688 -123.799804688 261.799804688 -136.799804688 c 1
 261.799804688 -137.599609375 261.799804688 -138.5 261.799804688 -139.400390625 c 1
 178.900390625 -139.400390625 l 1
 178.900390625 -138.599609375 178.900390625 -137.700195312 178.900390625 -136.799804688 c 1
 178.900390625 159.400390625 223 453.900390625 309.799804688 737.200195312 c 1
 391.400390625 712.200195312 l 1
 332.299804688 519.299804688 293.599609375 321 275.700195312 120.5 c 1
 348.599609375 204.599609375 456.200195312 257.900390625 576.299804688 257.900390625 c 0
 623.799804688 257.900390625 670.900390625 249.299804688 715.200195312 232.799804688 c 0
 727.299804688 228.900390625 738.900390625 223.900390625 749.900390625 217.900390625 c 0
 750.099609375 217.799804688 750.299804688 217.700195312 750.5 217.599609375 c 1
655.299804688 -69.5 m 0
 718.400390625 -69.5 769.5 -18.400390625 769.599609375 44.7001953125 c 0
 769.599609375 88.7998046875 744.599609375 127.099609375 708 146.099609375 c 0
 702.900390625 148.5 697.799804688 150.700195312 692.700195312 152.700195312 c 0
 681 156.799804688 668.400390625 159 655.299804688 159 c 0
 592.200195312 159 541 107.900390625 541 44.7998046875 c 0
 541 -18.2998046875 592.200195312 -69.5 655.299804688 -69.5 c 0
EndSplineSet
Validated: 1
EndChar

StartChar: uniE10D
Encoding: 430 57613 173
Width: 1000
Flags: W
VStem: 173.7 82.8994<-139.4 -25.8521> 299.3 81.6006<670.521 714.244>
LayerCount: 2
Fore
SplineSet
852.799804688 221.599609375 m 2
 862.299804688 216.099609375 865.599609375 203.900390625 860.099609375 194.400390625 c 0
 854.599609375 184.900390625 842.400390625 181.599609375 832.900390625 187.099609375 c 2
 695.099609375 266.700195312 l 2
 685.599609375 272.200195312 682.299804688 284.400390625 687.799804688 293.900390625 c 0
 693.299804688 303.400390625 705.5 306.700195312 715 301.200195312 c 2
 852.799804688 221.599609375 l 2
745.200195312 217.599609375 m 1
 829.5 171.400390625 869.400390625 69.2001953125 835.200195312 -23.5 c 0
 797.5 -125.799804688 684 -178.099609375 581.700195312 -140.299804688 c 0
 565.900390625 -134.5 551 -126.700195312 537.200195312 -117.099609375 c 1
 584.299804688 -49.5 l 1
 636.400390625 -85.7998046875 708.099609375 -73 744.400390625 -20.900390625 c 0
 780.700195312 31.2001953125 767.900390625 102.900390625 715.799804688 139.200195312 c 0
 713.599609375 140.700195312 711.400390625 142.099609375 709.099609375 143.5 c 1
 552.900390625 219.599609375 364.599609375 154.599609375 288.400390625 -1.5 c 0
 267.5 -44.5 256.599609375 -91.599609375 256.599609375 -139.400390625 c 1
 173.700195312 -139.400390625 l 1
 173.700195312 -138.599609375 173.700195312 -137.700195312 173.700195312 -136.799804688 c 1
 173.700195312 159.299804688 212.599609375 453.900390625 299.299804688 737.099609375 c 1
 380.900390625 712.099609375 l 1
 321.099609375 517 282.200195312 316.299804688 264.599609375 113.5 c 1
 337.400390625 201.700195312 447.700195312 257.900390625 571 257.900390625 c 0
 621.5 257.900390625 671.599609375 248.5 718.299804688 229.900390625 c 1
 727.400390625 226.5 736.099609375 222.599609375 744.299804688 218.099609375 c 0
 744.599609375 217.900390625 744.900390625 217.799804688 745.200195312 217.599609375 c 1
EndSplineSet
Validated: 33
EndChar

StartChar: uniE10E
Encoding: 431 57614 174
Width: 1000
Flags: W
HStem: -152.7 83.2002<158.97 289.895> 159 83.0996<158.97 290.349> 226.3 36.7998<584.206 778.894>
VStem: 26.2998 83.1006<-19.9795 109.463> 298.5 85.7002<227.4 721.1>
LayerCount: 2
Fore
SplineSet
602.599609375 226.299804688 m 2xb8
 592.5 226.299804688 584.200195312 234.599609375 584.200195312 244.700195312 c 0
 584.200195312 254.900390625 592.400390625 263.099609375 602.599609375 263.099609375 c 2
 760.5 263.099609375 l 2
 770.700195312 263.099609375 778.900390625 254.900390625 778.900390625 244.700195312 c 0
 778.900390625 234.5 770.700195312 226.299804688 760.5 226.299804688 c 2
 602.599609375 226.299804688 l 2xb8
913.400390625 18.599609375 m 1
 973 -42.7998046875 l 1
 815.200195312 -195.799804688 563.299804688 -191.799804688 410.400390625 -34 c 0
 409.099609375 -32.599609375 407.799804688 -31.2998046875 406.5 -29.900390625 c 1
 377.099609375 -101.900390625 306.299804688 -152.700195312 223.700195312 -152.700195312 c 0
 114.700195312 -152.700195312 26.2998046875 -64.2998046875 26.2998046875 44.7001953125 c 0
 26.2998046875 153.700195312 114.700195312 242.099609375 223.700195312 242.099609375 c 0xd8
 250.099609375 242.099609375 275.400390625 236.900390625 298.5 227.400390625 c 1
 298.400390625 229.400390625 298.299804688 231.299804688 298.299804688 233.200195312 c 1
 300 721.099609375 l 1
 384.200195312 721.099609375 l 1
 384.200195312 224.400390625 l 1
 394 57.099609375 534.799804688 -73.599609375 703.700195312 -69.400390625 c 0
 782.200195312 -67.400390625 857 -36 913.400390625 18.599609375 c 1
223.700195312 -69.5 m 0
 286.799804688 -69.5 338 -18.400390625 338 44.7001953125 c 0
 338 107.799804688 286.799804688 159 223.700195312 159 c 0
 160.599609375 159 109.400390625 107.900390625 109.400390625 44.7998046875 c 0
 109.400390625 -18.2998046875 160.599609375 -69.5 223.700195312 -69.5 c 0
EndSplineSet
Validated: 33
EndChar

StartChar: uniE10F
Encoding: 432 57615 175
Width: 1000
Flags: W
HStem: -72.5996 83<316.611 452.436> 227.4 36.7998<652.706 852.69> 239 83.0996<316.301 452.436>
VStem: 168.4 85.2998<-135.8 -26.5996> 299.2 81.5996<671.521 715.244> 501.1 83.1006<60.0203 189.474>
LayerCount: 2
Fore
SplineSet
834.200195312 264.200195312 m 2xdc
 844.400390625 264.200195312 852.599609375 255.900390625 852.700195312 245.799804688 c 0
 852.700195312 235.599609375 844.5 227.400390625 834.299804688 227.400390625 c 2
 671.099609375 227.400390625 l 2
 660.900390625 227.400390625 652.700195312 235.599609375 652.700195312 245.799804688 c 0
 652.700195312 256 660.900390625 264.200195312 671.099609375 264.200195312 c 2
 834.200195312 264.200195312 l 2xdc
384.200195312 322.099609375 m 0xbc
 494.700195312 322.099609375 584.200195312 233.799804688 584.200195312 124.799804688 c 0
 584.200195312 15.7998046875 494.700195312 -72.599609375 384.200195312 -72.599609375 c 0
 335.299804688 -72.599609375 290.5 -55.2998046875 255.799804688 -26.599609375 c 1
 254.400390625 -63 253.700195312 -99.400390625 253.700195312 -135.799804688 c 1
 168.400390625 -135.799804688 l 1
 168.400390625 160.299804688 212.5 454.900390625 299.200195312 738.099609375 c 1
 380.799804688 713.099609375 l 1
 339 576.700195312 307.400390625 437.5 286.200195312 296.799804688 c 1
 315.200195312 312.900390625 348.599609375 322.099609375 384.200195312 322.099609375 c 0xbc
384.200195312 10.400390625 m 0
 448.799804688 10.400390625 501.099609375 61.599609375 501.099609375 124.700195312 c 0
 501.099609375 187.799804688 448.799804688 239 384.200195312 239 c 0
 319.599609375 239 267.299804688 187.799804688 267.299804688 124.700195312 c 0
 267.299804688 61.599609375 319.599609375 10.400390625 384.200195312 10.400390625 c 0
EndSplineSet
Validated: 1
EndChar

StartChar: uniE110
Encoding: 433 57616 176
Width: 1000
Flags: W
HStem: -149.1 86.0996<367.212 591.138> 268.3 42.2002<689.407 889.493>
VStem: 157.9 85.8994<60.4241 398.03> 789.6 84.2002<-142.2 1.7998 135.828 242.2>
LayerCount: 2
Fore
SplineSet
868.400390625 310.5 m 2
 880 310.5 889.5 301.099609375 889.5 289.400390625 c 1
 889.5 277.700195312 880 268.299804688 868.400390625 268.299804688 c 2
 710.5 268.299804688 l 2
 698.799804688 268.299804688 689.400390625 277.700195312 689.400390625 289.400390625 c 0
 689.400390625 301.099609375 698.900390625 310.5 710.5 310.5 c 2
 868.400390625 310.5 l 2
790 243.700195312 m 1
 874 242.200195312 l 1
 873.799804688 231.200195312 873.900390625 220.599609375 873.799804688 209.700195312 c 2
 873.799804688 -142.200195312 l 1
 789.599609375 -142.200195312 l 1
 789.599609375 1.7998046875 l 1
 716.900390625 -89.7001953125 604.900390625 -148.299804688 479.299804688 -148.799804688 c 1
 451.599609375 -149.099609375 l 1
 289.700195312 -145.599609375 158.799804688 -13.7998046875 157.900390625 147.299804688 c 1
 157.900390625 346.299804688 187.700195312 544.099609375 246.400390625 734.200195312 c 1
 328.5 708.900390625 l 1
 272.900390625 528.799804688 244.400390625 341.400390625 243.799804688 153 c 1
 241.799804688 37.900390625 333.200195312 -57.5 447.599609375 -63 c 1
 482.200195312 -63 l 2
 645.900390625 -60.7998046875 779.5 67.5 789.5 229.700195312 c 2
 790 242.200195312 l 1
 790 242.700195312 790 243.200195312 790 243.700195312 c 1
EndSplineSet
Validated: 33
EndChar

StartChar: uniE111
Encoding: 434 57617 177
Width: 1000
Flags: W
HStem: -152.6 83.0996<595.82 725.279> 159 98.9004<517.25 710.916> 379.4 89.5<83.7002 229.2 333.3 530.322 649.5 925.8>
VStem: 184.2 82.8994<-139.4 -31.3239> 229.2 86.5996<243.263 379.4> 463.2 83<-19.9297 111.21> 711 75.2998<639.121 667.003> 774.8 83.2002<-19.9628 111.144>
LayerCount: 2
Fore
SplineSet
925.799804688 379.400390625 m 2xee
 315.799804688 379.400390625 l 1xee
 300.299804688 293.700195312 288.599609375 207.200195312 280.900390625 120.299804688 c 1
 353.799804688 204.599609375 461.5 257.900390625 581.599609375 257.900390625 c 0
 629.099609375 257.900390625 676.200195312 249.299804688 720.5 232.799804688 c 0
 732.599609375 228.900390625 744.200195312 223.900390625 755.200195312 217.900390625 c 0
 755.400390625 217.799804688 755.599609375 217.700195312 755.799804688 217.599609375 c 0
 816.700195312 184 857.900390625 119.200195312 858 44.7998046875 c 0
 858 -64.2001953125 769.599609375 -152.599609375 660.599609375 -152.599609375 c 0
 551.599609375 -152.599609375 463.200195312 -64.2001953125 463.200195312 44.7998046875 c 0
 463.200195312 90.2001953125 478.599609375 132 504.400390625 165.400390625 c 1
 417.900390625 143.400390625 341.200195312 84.900390625 299 -1.599609375 c 0
 284 -32.2001953125 274.200195312 -65 269.799804688 -98.599609375 c 0
 267.799804688 -111.5 267.099609375 -124.099609375 267.099609375 -136.799804688 c 0
 267.099609375 -137.599609375 267.099609375 -138.5 267.099609375 -139.400390625 c 1
 184.200195312 -139.400390625 l 1
 184.200195312 -138.599609375 184.200195312 -137.700195312 184.200195312 -136.799804688 c 0xf5
 184.200195312 36.400390625 199.299804688 209.200195312 229.200195312 379.400390625 c 1
 83.7001953125 379.400390625 l 1
 83.7001953125 468.900390625 l 1
 246.200195312 468.900390625 l 1
 264.799804688 559 287.700195312 648.200195312 314.599609375 736.400390625 c 1
 396.099609375 711.400390625 l 1
 371.700195312 631.400390625 350.700195312 550.5 333.299804688 468.900390625 c 1
 455.299804688 468.900390625 l 1
 574.599609375 487.299804688 674.299804688 571.799804688 711 688.5 c 1
 786.299804688 664.799804688 l 1
 761.299804688 585.200195312 712.700195312 517.599609375 649.5 468.900390625 c 1
 925.799804688 468.900390625 l 1
 925.799804688 379.400390625 l 2xee
660.5 159 m 0
 597.400390625 159 546.200195312 107.900390625 546.200195312 44.7998046875 c 0
 546.200195312 -18.2998046875 597.400390625 -69.5 660.5 -69.5 c 0
 723.599609375 -69.5 774.799804688 -18.400390625 774.799804688 44.7001953125 c 0xe5
 774.799804688 88.7998046875 749.799804688 127.099609375 713.200195312 146.099609375 c 0
 708.099609375 148.5 703 150.700195312 697.900390625 152.700195312 c 0
 686.200195312 156.799804688 673.599609375 159 660.5 159 c 0
EndSplineSet
Validated: 1
EndChar

StartChar: uniE112
Encoding: 435 57618 178
Width: 1000
Flags: W
HStem: 379.4 89.5<83.7002 220.7 323.1 530.322 649.5 925.8>
VStem: 179 82.9004<-139.4 -31.2854> 220.7 84.7002<243.279 379.4> 711 75.2998<639.121 667.003>
LayerCount: 2
Fore
SplineSet
925.799804688 379.400390625 m 2xb0
 305.400390625 379.400390625 l 1xb0
 289.5 291.400390625 277.599609375 202.700195312 269.900390625 113.5 c 1
 342.700195312 201.700195312 453 257.900390625 576.299804688 257.900390625 c 0
 626.799804688 257.900390625 676.900390625 248.5 723.599609375 229.900390625 c 0
 732.700195312 226.5 741.400390625 222.599609375 749.599609375 218.099609375 c 0
 749.900390625 217.900390625 750.200195312 217.799804688 750.5 217.599609375 c 0
 834.700195312 171.400390625 874.700195312 69.2001953125 840.5 -23.5 c 0
 802.799804688 -125.799804688 689.299804688 -178.099609375 587 -140.299804688 c 0
 571.200195312 -134.5 556.299804688 -126.700195312 542.5 -117.099609375 c 1
 589.599609375 -49.5 l 1
 641.700195312 -85.7998046875 713.400390625 -73 749.700195312 -20.900390625 c 0
 786 31.2001953125 773.200195312 102.900390625 721.099609375 139.200195312 c 0
 718.900390625 140.700195312 716.700195312 142.099609375 714.400390625 143.5 c 0
 558.200195312 219.599609375 369.900390625 154.599609375 293.700195312 -1.5 c 0
 272.799804688 -44.5 261.900390625 -91.599609375 261.900390625 -139.400390625 c 1
 179 -139.400390625 l 1
 179 -138.599609375 179 -137.700195312 179 -136.799804688 c 0xd0
 179 36.5 192.299804688 209.200195312 220.700195312 379.400390625 c 1
 83.7001953125 379.400390625 l 1
 83.7001953125 468.900390625 l 1
 237 468.900390625 l 1
 255 559.200195312 277.400390625 648.700195312 304.5 737.099609375 c 1
 386.099609375 712.099609375 l 1
 361.599609375 631.900390625 340.599609375 550.700195312 323.099609375 468.900390625 c 1
 455.299804688 468.900390625 l 1
 574.599609375 487.299804688 674.299804688 571.799804688 711 688.5 c 1
 786.299804688 664.799804688 l 1
 761.299804688 585.200195312 712.700195312 517.599609375 649.5 468.900390625 c 1
 925.799804688 468.900390625 l 1
 925.799804688 379.400390625 l 2xb0
EndSplineSet
Validated: 33
EndChar

StartChar: uniE113
Encoding: 436 57619 179
Width: 1000
Flags: W
HStem: -152.7 83.1006<164.22 295.136> 159 83.0996<164.22 295.673> 379.4 89.5<83.7002 304 389.5 530.322 649.5 925.8>
VStem: 31.5996 83<-20.0295 109.43> 303.6 85.9004<227.5 379.4 468.9 721.1> 711 75.2998<639.121 667.003>
LayerCount: 2
Fore
SplineSet
918.5 18.599609375 m 1
 978 -42.7001953125 l 1
 820.200195312 -195.700195312 568.299804688 -191.700195312 415.400390625 -33.900390625 c 0
 414.200195312 -32.599609375 412.900390625 -31.2998046875 411.700195312 -30 c 1
 382.299804688 -102 311.599609375 -152.700195312 229 -152.700195312 c 0
 120 -152.700195312 31.599609375 -64.2998046875 31.599609375 44.7001953125 c 0
 31.599609375 153.700195312 120 242.099609375 229 242.099609375 c 0
 255.400390625 242.099609375 280.599609375 236.900390625 303.599609375 227.5 c 1
 303.5 229.400390625 303.400390625 231.299804688 303.400390625 233.200195312 c 2
 304 379.400390625 l 1
 83.7001953125 379.400390625 l 1
 83.7001953125 468.900390625 l 1
 304.200195312 468.900390625 l 1
 305.200195312 721.099609375 l 1
 389.400390625 721.099609375 l 1
 389.400390625 468.900390625 l 1
 455.299804688 468.900390625 l 1
 574.599609375 487.299804688 674.299804688 571.799804688 711 688.5 c 1
 786.299804688 664.799804688 l 1
 761.299804688 585.200195312 712.700195312 517.599609375 649.5 468.900390625 c 1
 925.799804688 468.900390625 l 1
 925.799804688 379.400390625 l 1
 389.5 379.400390625 l 1
 389.5 221.299804688 l 1
 400.900390625 55.5 541 -73.5 708.799804688 -69.400390625 c 0
 787.299804688 -67.400390625 862.099609375 -36 918.5 18.599609375 c 1
228.900390625 -69.599609375 m 0
 292 -69.599609375 343.200195312 -18.400390625 343.200195312 44.7001953125 c 0
 343.200195312 59.599609375 340.400390625 73.7998046875 335.099609375 86.7998046875 c 0
 334.599609375 88.2001953125 334 89.599609375 333.400390625 91 c 0
 315.700195312 131 275.599609375 159 228.900390625 159 c 0
 165.799804688 159 114.599609375 107.799804688 114.599609375 44.7001953125 c 0
 114.599609375 -18.400390625 165.799804688 -69.599609375 228.900390625 -69.599609375 c 0
EndSplineSet
Validated: 33
EndChar

StartChar: uniE114
Encoding: 437 57620 180
Width: 1000
Flags: W
HStem: -73.5996 83<321.911 457.715> 238 83.0996<321.601 457.716> 379.4 89.5<83.7002 218.7 323 530.322 649.5 925.8>
VStem: 173.7 85.2998<-136.8 -31.3239> 506.4 83.0996<59.0203 188.474> 711 75.2998<639.121 667.003>
LayerCount: 2
Fore
SplineSet
925.799804688 379.400390625 m 1
 305.400390625 379.400390625 l 1
 300.299804688 351.599609375 295.700195312 323.700195312 291.5 295.799804688 c 1
 320.5 311.900390625 353.900390625 321.099609375 389.5 321.099609375 c 0
 499.900390625 321.099609375 589.5 232.799804688 589.5 123.799804688 c 0
 589.5 14.7998046875 500 -73.599609375 389.5 -73.599609375 c 0
 340.599609375 -73.599609375 295.799804688 -56.2998046875 261.099609375 -27.599609375 c 1
 259.700195312 -64 259 -100.400390625 259 -136.799804688 c 1
 173.700195312 -136.799804688 l 1
 173.700195312 36.400390625 188.799804688 209.200195312 218.700195312 379.400390625 c 1
 83.7001953125 379.400390625 l 1
 83.7001953125 468.900390625 l 1
 235.799804688 468.900390625 l 1
 254.5 559.200195312 277.400390625 648.700195312 304.5 737.099609375 c 1
 386.099609375 712.099609375 l 1
 361.5 631.900390625 340.5 550.799804688 323 468.900390625 c 1
 455.299804688 468.900390625 l 1
 574.599609375 487.299804688 674.299804688 571.799804688 711 688.5 c 1
 786.299804688 664.799804688 l 1
 761.299804688 585.200195312 712.700195312 517.599609375 649.5 468.900390625 c 1
 925.799804688 468.900390625 l 1
 925.799804688 379.400390625 l 1
389.5 238 m 0
 324.900390625 238 272.599609375 186.799804688 272.599609375 123.700195312 c 0
 272.599609375 60.599609375 324.900390625 9.400390625 389.5 9.400390625 c 0
 454 9.400390625 506.400390625 60.599609375 506.400390625 123.700195312 c 0
 506.400390625 186.799804688 454.099609375 238 389.5 238 c 0
EndSplineSet
Validated: 1
EndChar

StartChar: uniE115
Encoding: 438 57621 181
Width: 1000
Flags: W
HStem: -149.1 85.8994<356.333 576.081> 379.4 89.5<83.7002 161 260.7 530.322 649.5 925.8>
VStem: 147.4 85.8994<60.4241 375.795> 711 75.2998<639.121 667.003> 779.1 85.5<208.525 242.1>
LayerCount: 2
Fore
SplineSet
862.599609375 208 m 1xe8
 949.5 161.799804688 991.099609375 57.2998046875 956.099609375 -37.7998046875 c 0
 917.799804688 -141.400390625 802.799804688 -194.400390625 699.200195312 -156.099609375 c 0
 673.700195312 -146.700195312 650.400390625 -132.200195312 630.799804688 -113.599609375 c 1
 581.200195312 -136 526.200195312 -148.599609375 468.299804688 -148.799804688 c 2
 440.599609375 -149.099609375 l 1
 278.799804688 -145.599609375 148.299804688 -13.7998046875 147.400390625 147.299804688 c 0
 147.400390625 224.900390625 152 302.5 161 379.400390625 c 1
 83.7001953125 379.400390625 l 1
 83.7001953125 468.900390625 l 1
 173.599609375 468.900390625 l 1
 188.200195312 558.5 209 647.200195312 235.900390625 734.200195312 c 1
 318 708.900390625 l 1
 293.700195312 630.099609375 274.599609375 549.900390625 260.700195312 468.900390625 c 1
 455.299804688 468.900390625 l 1
 574.599609375 487.299804688 674.299804688 571.799804688 711 688.5 c 1
 786.299804688 664.799804688 l 1xf0
 761.299804688 585.200195312 712.700195312 517.599609375 649.5 468.900390625 c 1
 925.799804688 468.900390625 l 1
 925.799804688 379.400390625 l 1
 247.5 379.400390625 l 1
 238.299804688 304.400390625 233.5 228.799804688 233.299804688 153 c 0
 231.299804688 37.900390625 322.299804688 -57.5 436.599609375 -63.2001953125 c 1
 471.200195312 -63.2001953125 l 2
 639.599609375 -60.900390625 776.200195312 74.7998046875 779.099609375 243.599609375 c 1
 864.599609375 242.099609375 l 1
 864.400390625 230.599609375 863.799804688 219.200195312 862.599609375 208 c 1xe8
841.5 -58.7998046875 m 0
 891.5 -18.5 899.200195312 54.7998046875 858.700195312 104.700195312 c 0
 854.099609375 110.400390625 848.900390625 115.700195312 843.299804688 120.400390625 c 1
 817.5 44.900390625 769.700195312 -20.2998046875 707.599609375 -67.599609375 c 1
 748.400390625 -92.5 802.200195312 -90.599609375 841.5 -58.7998046875 c 0
EndSplineSet
Validated: 33
EndChar

StartChar: uniE116
Encoding: 439 57622 182
Width: 1000
Flags: W
HStem: -149.2 86<367.386 529.042> 238 83<543.17 673.796> 379.4 89.5<83.7002 171.5 271.2 530.322 649.5 925.8>
VStem: 157.9 85.8994<58.6873 375.795> 410.5 83.0996<57.79 188.379> 711 75.2998<639.121 667.003> 722.2 151.5<57.5445 189.855> 789.5 84.2002<-147.5 5.59961 211.796 300>
LayerCount: 2
Fore
SplineSet
925.799804688 379.400390625 m 1xfd
 258 379.400390625 l 1
 248.599609375 302.5 243.799804688 225 243.799804688 147.299804688 c 0
 244.799804688 34.7001953125 332.099609375 -57.7001953125 444.5 -63.2001953125 c 1
 479.099609375 -63.2001953125 l 2
 496.799804688 -63 514.099609375 -61.2998046875 531 -58.2001953125 c 1
 460.200195312 -28.2998046875 410.5 41.900390625 410.5 123.599609375 c 0
 410.5 232.599609375 498.900390625 321 607.900390625 321 c 0
 685.400390625 321 752.5 276.299804688 784.799804688 211.299804688 c 1
 786.099609375 221.900390625 786.799804688 231.599609375 787 242.5 c 2
 789.5 300 l 1
 873.700195312 300 l 1
 873.700195312 -147.5 l 1
 789.5 -147.5 l 1
 789.5 5.599609375 l 1
 717 -88.099609375 603.599609375 -148.400390625 476.200195312 -148.900390625 c 2
 448.5 -149.200195312 l 1
 284.200195312 -145.599609375 155 -9.900390625 157.900390625 154.400390625 c 0
 158.200195312 229.700195312 162.700195312 304.799804688 171.5 379.400390625 c 1
 83.7001953125 379.400390625 l 1
 83.7001953125 468.900390625 l 1
 184.099609375 468.900390625 l 1
 198.700195312 558.5 219.5 647.099609375 246.400390625 734.099609375 c 1
 328.5 708.799804688 l 1
 304.200195312 630 285.099609375 549.900390625 271.200195312 468.900390625 c 1
 455.299804688 468.900390625 l 1
 574.599609375 487.299804688 674.299804688 571.799804688 711 688.5 c 1
 786.299804688 664.799804688 l 1
 761.299804688 585.200195312 712.700195312 517.599609375 649.5 468.900390625 c 1
 925.799804688 468.900390625 l 1
 925.799804688 379.400390625 l 1xfd
493.599609375 123.700195312 m 0
 493.599609375 60.599609375 544.799804688 9.400390625 607.900390625 9.400390625 c 0
 671 9.400390625 722.200195312 60.599609375 722.200195312 123.700195312 c 0xfa
 722.200195312 186.799804688 671 238 607.900390625 238 c 0
 544.799804688 238 493.599609375 186.799804688 493.599609375 123.700195312 c 0
EndSplineSet
Validated: 33
EndChar

StartChar: uniE117
Encoding: 440 57623 183
Width: 1000
Flags: W
HStem: -149.1 85.8994<356.206 575.969> 379.4 89.5<83.7002 161 260.7 530.322 649.5 925.8>
VStem: 147.4 85.8994<60.4241 375.795> 711 75.2998<639.121 667.003> 779 84.2002<-142.2 2.5 138.685 242.2>
LayerCount: 2
Fore
SplineSet
247.5 379.400390625 m 1xf0
 238.299804688 304.400390625 233.5 228.799804688 233.299804688 153 c 0
 231.299804688 37.900390625 322.099609375 -57.5 436.5 -63.2001953125 c 1
 471.099609375 -63.2001953125 l 2
 639.5 -60.7998046875 776 74.7998046875 779 243.700195312 c 1
 864.5 242.200195312 l 1
 864.299804688 233.299804688 863.900390625 224.5 863.200195312 215.799804688 c 2
 863.200195312 -142.200195312 l 1
 779 -142.200195312 l 1
 779 2.5 l 1xe8
 706.400390625 -89.400390625 594.099609375 -148.299804688 468.200195312 -148.799804688 c 2
 440.5 -149.099609375 l 1
 278.599609375 -145.599609375 148.299804688 -13.7998046875 147.400390625 147.299804688 c 0
 147.400390625 224.900390625 152 302.5 161 379.400390625 c 1
 83.7001953125 379.400390625 l 1
 83.7001953125 468.900390625 l 1
 173.599609375 468.900390625 l 1
 188.200195312 558.5 209 647.200195312 235.900390625 734.200195312 c 1
 318 708.900390625 l 1
 293.700195312 630.099609375 274.599609375 549.900390625 260.700195312 468.900390625 c 1
 455.299804688 468.900390625 l 1
 574.599609375 487.299804688 674.299804688 571.799804688 711 688.5 c 1
 786.299804688 664.799804688 l 1
 761.299804688 585.200195312 712.700195312 517.599609375 649.5 468.900390625 c 1
 925.799804688 468.900390625 l 1
 925.799804688 379.400390625 l 1
 247.5 379.400390625 l 1xf0
EndSplineSet
Validated: 33
EndChar

StartChar: uniE118
Encoding: 441 57624 184
Width: 1000
Flags: W
HStem: 248.5 83.0996<527.32 656.78> 379.4 89.5<83.7002 161 260.6 530.322 649.5 925.8>
VStem: 147.4 85.7998<61.9885 375.795> 394.6 83.2002<64.7774 199.836> 706.4 83<63.2285 199.836 631.352 666.916> 856.5 86.9004<-143.4 -78.7853>
LayerCount: 2
Fore
SplineSet
907 -29.099609375 m 0
 930.599609375 -62.5 943.299804688 -102.400390625 943.400390625 -143.400390625 c 1
 856.5 -143.599609375 l 1
 856.400390625 -81.7001953125 806.200195312 -31.7001953125 744.299804688 -31.7998046875 c 0
 721.200195312 -31.900390625 698.200195312 -38.2998046875 679.400390625 -51.599609375 c 2
 604.5 -104.099609375 l 1
 471.099609375 -187.299804688 294.400390625 -152.799804688 202.799804688 -22.7001953125 c 0
 167.700195312 27.2001953125 147.799804688 86.5 147.400390625 147.299804688 c 0
 147.400390625 224.900390625 152 302.5 161 379.400390625 c 1
 83.7001953125 379.400390625 l 1
 83.7001953125 468.900390625 l 1
 173.599609375 468.900390625 l 1
 188.200195312 558.5 209 647.200195312 235.900390625 734.200195312 c 1
 318 708.900390625 l 1
 293.599609375 630.099609375 274.5 549.900390625 260.599609375 468.900390625 c 1
 455.299804688 468.900390625 l 1
 574.599609375 487.299804688 674.299804688 571.799804688 711 688.5 c 1
 786.299804688 664.799804688 l 1
 761.299804688 585.200195312 712.700195312 517.599609375 649.5 468.900390625 c 1
 925.799804688 468.900390625 l 1
 925.799804688 379.400390625 l 1
 247.400390625 379.400390625 l 1
 238.5 306.599609375 233.700195312 233.299804688 233.200195312 159.700195312 c 0
 231.200195312 42.400390625 319.299804688 -56.7998046875 436.200195312 -62.5 c 0
 462.599609375 -63.7998046875 488.700195312 -60.099609375 513.400390625 -51.900390625 c 1
 443.5 -21.099609375 394.599609375 49.400390625 394.599609375 131.599609375 c 0
 394.599609375 242.099609375 483 331.599609375 592 331.599609375 c 0
 701 331.599609375 789.400390625 242.099609375 789.400390625 131.599609375 c 0
 789.400390625 103.700195312 783.799804688 77.099609375 773.599609375 53 c 1
 825.599609375 45.2998046875 874.400390625 17.2001953125 907 -29.099609375 c 0
654.700195312 33.7998046875 m 0
 685.799804688 54.7001953125 706.400390625 90.7001953125 706.400390625 131.599609375 c 0
 706.400390625 196.200195312 655.200195312 248.5 592.099609375 248.5 c 0
 529 248.5 477.799804688 196.200195312 477.799804688 131.599609375 c 0
 477.799804688 67 529 14.7001953125 592.099609375 14.7001953125 c 0
 608.900390625 14.7001953125 624.900390625 18.400390625 639.299804688 25.099609375 c 0
 644.400390625 28.2998046875 649.5 31.2001953125 654.700195312 33.7998046875 c 0
EndSplineSet
Validated: 33
EndChar

StartChar: uniE119
Encoding: 442 57625 185
Width: 1000
Flags: W
HStem: 126.43 78.9131<862.21 932.5> 236.8 84.2002<763.134 831.667> 379.4 89.5<83.7002 213.5 317.8 530.322 649.5 925.8>
VStem: 168.5 82.9004<-139.4 -31.3239> 213.5 86.5996<243.263 379.4> 711 75.2998<639.121 667.003> 757.9 79<241.406 316.394> 857.898 78.9131<130.741 201.031>
LayerCount: 2
Fore
SplineSet
757.900390625 278.900390625 m 0xe3
 757.900390625 302.151367188 775.584960938 321 797.400390625 321 c 0
 819.21484375 321 836.900390625 302.151367188 836.900390625 278.900390625 c 0
 836.900390625 255.6484375 819.21484375 236.799804688 797.400390625 236.799804688 c 0
 775.584960938 236.799804688 757.900390625 255.6484375 757.900390625 278.900390625 c 0xe3
895.514648438 126.4296875 m 0
 873.723632812 127.4453125 856.881835938 145.934570312 857.8984375 167.7265625 c 0
 858.915039062 189.517578125 877.404296875 206.358398438 899.1953125 205.342773438 c 0
 920.986328125 204.326171875 937.828125 185.836914062 936.811523438 164.045898438 c 0
 935.794921875 142.25390625 917.305664062 125.413085938 895.514648438 126.4296875 c 0
715.799804688 230.200195312 m 0
 819.599609375 192.900390625 873.099609375 79.599609375 835.299804688 -22.7998046875 c 0
 797.5 -125.200195312 682.700195312 -178 578.900390625 -140.700195312 c 0
 563.099609375 -135 548 -127.299804688 534.099609375 -117.900390625 c 1
 581.200195312 -50.2998046875 l 1
 634.900390625 -86 708 -72.5 744.599609375 -19.900390625 c 0
 781.200195312 32.5 767.299804688 104.099609375 713.599609375 139.799804688 c 0
 711.299804688 141.299804688 709 142.700195312 706.700195312 144 c 0
 549 219.599609375 359.200195312 153.900390625 283 -2.5 c 0
 268.200195312 -32.7998046875 258.5 -65.099609375 254.099609375 -98.2001953125 c 0
 252.299804688 -111.099609375 251.400390625 -123.900390625 251.400390625 -136.799804688 c 0
 251.400390625 -137.599609375 251.400390625 -138.5 251.400390625 -139.400390625 c 1
 168.5 -139.400390625 l 1
 168.5 -138.599609375 168.5 -137.700195312 168.5 -136.799804688 c 0xf1
 168.5 36.400390625 183.599609375 209.200195312 213.5 379.400390625 c 1
 83.7001953125 379.400390625 l 1
 83.7001953125 468.900390625 l 1
 230.599609375 468.900390625 l 1
 249.299804688 559.200195312 272.200195312 648.700195312 299.299804688 737.099609375 c 1
 380.900390625 712.099609375 l 1
 356.299804688 631.900390625 335.299804688 550.700195312 317.799804688 468.900390625 c 1
 455.299804688 468.900390625 l 1
 574.599609375 487.299804688 674.299804688 571.799804688 711 688.5 c 1
 786.299804688 664.799804688 l 1
 761.299804688 585.200195312 712.700195312 517.599609375 649.5 468.900390625 c 1
 925.799804688 468.900390625 l 1
 925.799804688 379.400390625 l 1
 300.099609375 379.400390625 l 1xed
 284.599609375 293.400390625 272.900390625 206.700195312 265.099609375 119.599609375 c 1
 338.5 204.299804688 447.099609375 257.900390625 568.400390625 257.900390625 c 0
 618.900390625 257.900390625 669 248.599609375 715.799804688 230.200195312 c 0
EndSplineSet
Validated: 33
EndChar

StartChar: uniE11A
Encoding: 443 57626 186
Width: 1000
Flags: W
HStem: -147.4 84.2002<508.5 915.8> 216.9 83.0996<332.647 468.236> 379.4 89.5<83.7002 166.3 265.9 530.322 649.5 925.8>
VStem: 152.7 87.2998<221 375.903> 516.9 83.0996<36.9807 167.33> 711 75.2998<639.121 667.003>
LayerCount: 2
Fore
SplineSet
925.799804688 379.400390625 m 1
 252.799804688 379.400390625 l 1
 246.299804688 326.900390625 242.099609375 274 240 221 c 1
 276.5 269 334.599609375 300 400 300 c 0
 510.5 300 600 211.599609375 600 102.599609375 c 0
 600 33.099609375 563.5 -28 508.5 -63.2001953125 c 1
 915.799804688 -63.2001953125 l 1
 915.799804688 -147.400390625 l 1
 444.099609375 -147.400390625 l 2
 279.799804688 -143.799804688 149.799804688 -9.7998046875 152.700195312 154.5 c 0
 153 229.700195312 157.5 304.799804688 166.299804688 379.400390625 c 1
 83.7001953125 379.400390625 l 1
 83.7001953125 468.900390625 l 1
 178.799804688 468.900390625 l 1
 193.5 558.5 214.299804688 647.200195312 241.200195312 734.200195312 c 1
 323.299804688 708.900390625 l 1
 298.900390625 630.099609375 279.799804688 549.900390625 265.900390625 468.900390625 c 1
 455.299804688 468.900390625 l 1
 574.599609375 487.299804688 674.299804688 571.799804688 711 688.5 c 1
 786.299804688 664.799804688 l 1
 761.299804688 585.200195312 712.700195312 517.599609375 649.5 468.900390625 c 1
 925.799804688 468.900390625 l 1
 925.799804688 379.400390625 l 1
400 216.900390625 m 0
 335.400390625 216.900390625 283.099609375 165.700195312 283.099609375 102.599609375 c 0
 283.099609375 39.5 335.400390625 -11.7001953125 400 -11.7001953125 c 0
 464.599609375 -11.7001953125 516.900390625 39.5 516.900390625 102.599609375 c 0
 516.900390625 165.700195312 464.599609375 216.900390625 400 216.900390625 c 0
EndSplineSet
Validated: 33
EndChar

StartChar: uniE11B
Encoding: 444 57627 187
Width: 1000
Flags: W
HStem: -147.4 84.2002<513.8 921> 216.9 83.0996<337.947 473.536> 236.8 79<672.722 743.079 809.521 879.879> 379.4 89.5<83.7002 171.6 271.2 530.322 649.5 925.8>
VStem: 158 87.2998<221 375.903> 522.2 83.0996<36.9807 167.33> 668.4 79<241.121 311.479> 711 75.2998<639.121 667.003> 805.2 79<241.121 311.479>
LayerCount: 2
Fore
SplineSet
668.400390625 276.299804688 m 0xbe80
 668.400390625 298.115234375 686.084960938 315.799804688 707.900390625 315.799804688 c 0
 729.71484375 315.799804688 747.400390625 298.115234375 747.400390625 276.299804688 c 0
 747.400390625 254.484375 729.71484375 236.799804688 707.900390625 236.799804688 c 0
 686.084960938 236.799804688 668.400390625 254.484375 668.400390625 276.299804688 c 0xbe80
805.200195312 276.299804688 m 0
 805.200195312 298.115234375 822.884765625 315.799804688 844.700195312 315.799804688 c 0
 866.515625 315.799804688 884.200195312 298.115234375 884.200195312 276.299804688 c 0
 884.200195312 254.484375 866.515625 236.799804688 844.700195312 236.799804688 c 0
 822.884765625 236.799804688 805.200195312 254.484375 805.200195312 276.299804688 c 0
925.799804688 468.900390625 m 1
 925.799804688 379.400390625 l 1
 258.099609375 379.400390625 l 1
 251.599609375 326.900390625 247.400390625 274 245.299804688 221 c 1
 281.799804688 269 339.900390625 300 405.299804688 300 c 0
 515.799804688 300 605.299804688 211.599609375 605.299804688 102.599609375 c 0
 605.299804688 33.099609375 568.799804688 -28 513.799804688 -63.2001953125 c 1
 921 -63.2001953125 l 1
 921 -147.400390625 l 1
 449.5 -147.400390625 l 2
 285.200195312 -143.799804688 155 -9.7998046875 158 154.5 c 0
 158.299804688 229.700195312 162.799804688 304.799804688 171.599609375 379.400390625 c 1
 83.7001953125 379.400390625 l 1
 83.7001953125 468.900390625 l 1
 184.099609375 468.900390625 l 1
 198.799804688 558.5 219.599609375 647.200195312 246.5 734.200195312 c 1
 328.599609375 708.900390625 l 1
 304.200195312 630.099609375 285.099609375 549.900390625 271.200195312 468.900390625 c 1
 455.299804688 468.900390625 l 1
 574.599609375 487.299804688 674.299804688 571.799804688 711 688.5 c 1
 786.299804688 664.799804688 l 1xdd80
 761.299804688 585.200195312 712.700195312 517.599609375 649.5 468.900390625 c 1
 925.799804688 468.900390625 l 1
405.299804688 216.900390625 m 0
 340.700195312 216.900390625 288.400390625 165.700195312 288.400390625 102.599609375 c 0
 288.400390625 39.5 340.700195312 -11.7001953125 405.299804688 -11.7001953125 c 0
 469.900390625 -11.7001953125 522.200195312 39.5 522.200195312 102.599609375 c 0
 522.200195312 165.700195312 469.900390625 216.900390625 405.299804688 216.900390625 c 0
EndSplineSet
Validated: 33
EndChar

StartChar: uniE11C
Encoding: 445 57628 188
Width: 1000
Flags: W
HStem: -152.6 83<185.27 314.73> -78.9004 84.2002<695.895 807.708> 159 83.2998<185.27 304.714> 236.8 84.2998<676.491 807.687> 379.4 89.5<83.7002 305.2 389.5 530.322 649.5 925.8>
VStem: 52.5996 83.1006<-19.9348 109.53> 305.2 84.2002<234.4 379.4 468.9 721.2> 364.3 83.1006<-19.9797 62.0771> 542.1 84.2002<106.449 186.637> 605.3 84.2002<-147.3 -71.9004> 711 75.2998<639.121 667.003> 857.9 84.1992<55.458 186.658>
LayerCount: 2
Fore
SplineSet
742.099609375 321.099609375 m 0x1eb0
 852.599609375 321.099609375 942.099609375 231.599609375 942.099609375 121.099609375 c 0
 942.099609375 10.599609375 852.599609375 -78.900390625 742.099609375 -78.900390625 c 0x5eb0
 723.900390625 -78.900390625 706.299804688 -76.5 689.5 -71.900390625 c 1
 689.5 -147.299804688 l 1
 605.299804688 -147.299804688 l 1
 605.299804688 -29.2001953125 l 1
 446.599609375 62.400390625 l 1
 447.099609375 56.599609375 447.400390625 50.7001953125 447.400390625 44.7998046875 c 0
 447.400390625 -64.2001953125 359 -152.599609375 250 -152.599609375 c 0
 141 -152.599609375 52.599609375 -64.099609375 52.599609375 44.900390625 c 0
 52.599609375 153.900390625 141 242.299804688 250 242.299804688 c 0xad70
 269.200195312 242.299804688 287.799804688 239.5 305.299804688 234.400390625 c 1
 305.299804688 379.400390625 l 1
 83.7001953125 379.400390625 l 1
 83.7001953125 468.900390625 l 1
 305.200195312 468.900390625 l 1
 305.200195312 721.200195312 l 1
 389.400390625 721.200195312 l 1
 389.400390625 468.900390625 l 1
 455.299804688 468.900390625 l 1
 574.599609375 487.299804688 674.299804688 571.799804688 711 688.5 c 1
 786.299804688 664.799804688 l 1
 761.299804688 585.200195312 712.700195312 517.599609375 649.5 468.900390625 c 1
 925.799804688 468.900390625 l 1
 925.799804688 379.400390625 l 1
 389.5 379.400390625 l 1
 389.5 194.200195312 l 1
 542.700195312 105.700195312 l 1
 542.299804688 110.799804688 542.099609375 115.900390625 542.099609375 121.099609375 c 0
 542.099609375 231.599609375 631.599609375 321.099609375 742.099609375 321.099609375 c 0x1eb0
250 -69.599609375 m 0xad30
 313.099609375 -69.599609375 364.299804688 -18.400390625 364.299804688 44.7001953125 c 0
 364.299804688 82.400390625 346 115.799804688 317.900390625 136.700195312 c 1
 295.5 149.599609375 l 2
 281.5 155.599609375 266.200195312 159 250 159 c 0
 186.900390625 159 135.700195312 107.799804688 135.700195312 44.7001953125 c 0
 135.700195312 -18.400390625 186.900390625 -69.599609375 250 -69.599609375 c 0xad30
742.099609375 5.2998046875 m 0x5cb0
 806.099609375 5.2998046875 857.900390625 57 857.900390625 121 c 0
 857.900390625 185 806 236.799804688 742.099609375 236.799804688 c 0
 678.099609375 236.799804688 626.299804688 184.900390625 626.299804688 121 c 0
 626.299804688 87.2001953125 640.900390625 56.7998046875 664 35.599609375 c 1
 701.5 13.900390625 l 1
 700.900390625 12.7998046875 l 1
 713.700195312 8 727.599609375 5.2998046875 742.099609375 5.2998046875 c 0x5cb0
EndSplineSet
Validated: 1
EndChar

StartChar: uniE11D
Encoding: 446 57629 189
Width: 1000
Flags: W
HStem: -152.6 83.0996<590.52 719.966> 159 98.9004<511.966 705.667> 379.4 89.5<83.7002 223.9 328.3 530.322 649.5 925.8>
VStem: 178.9 82.8994<-139.4 -31.2854> 223.9 86.6992<243.279 379.4> 457.8 83.2002<-19.9297 111.21> 711 75.2998<639.121 667.003> 769.6 83<-19.9628 111.144>
LayerCount: 2
Fore
SplineSet
865.5 221.599609375 m 2xe4
 875 216.099609375 878.299804688 203.900390625 872.799804688 194.400390625 c 0
 867.299804688 184.900390625 855.099609375 181.599609375 845.599609375 187.099609375 c 2
 707.799804688 266.700195312 l 2
 698.299804688 272.200195312 695 284.400390625 700.5 293.900390625 c 0
 706 303.400390625 718.200195312 306.700195312 727.700195312 301.200195312 c 2
 865.5 221.599609375 l 2xe4
649.5 468.900390625 m 0
 925.799804688 468.900390625 l 1
 925.799804688 379.400390625 l 1
 310.599609375 379.400390625 l 1xee
 295.099609375 293.700195312 283.5 207.299804688 275.700195312 120.5 c 1
 348.599609375 204.599609375 456.200195312 257.900390625 576.299804688 257.900390625 c 0
 623.799804688 257.900390625 670.900390625 249.299804688 715.200195312 232.799804688 c 0
 727.299804688 228.900390625 738.900390625 223.900390625 749.900390625 217.900390625 c 0
 750.099609375 217.799804688 750.299804688 217.700195312 750.5 217.599609375 c 0
 811.400390625 184 852.599609375 119.200195312 852.599609375 44.7998046875 c 0
 852.599609375 -64.2001953125 764.200195312 -152.599609375 655.200195312 -152.599609375 c 0
 546.200195312 -152.599609375 457.799804688 -64.2001953125 457.799804688 44.7998046875 c 0
 457.799804688 90.2001953125 473.200195312 132 499 165.400390625 c 1
 412.5 143.400390625 335.799804688 84.900390625 293.599609375 -1.599609375 c 0
 278.700195312 -32 268.900390625 -64.599609375 264.5 -98 c 0
 262.200195312 -113.5 261.799804688 -123.799804688 261.799804688 -136.799804688 c 0
 261.799804688 -137.599609375 261.799804688 -138.5 261.799804688 -139.400390625 c 1
 178.900390625 -139.400390625 l 1
 178.900390625 -138.599609375 178.900390625 -137.700195312 178.900390625 -136.799804688 c 0xf5
 178.900390625 36.5 194 209.200195312 223.900390625 379.400390625 c 1
 83.7001953125 379.400390625 l 1
 83.7001953125 468.900390625 l 1
 241 468.900390625 l 1
 259.799804688 559.200195312 282.700195312 648.799804688 309.799804688 737.200195312 c 1
 391.400390625 712.200195312 l 1
 366.799804688 631.900390625 345.799804688 550.799804688 328.299804688 468.900390625 c 1
 455.299804688 468.900390625 l 1
 574.599609375 487.299804688 674.299804688 571.799804688 711 688.5 c 1
 786.299804688 664.799804688 l 1xee
 761.299804688 585.200195312 712.700195312 517.599609375 649.5 468.900390625 c 0
655.299804688 159 m 0
 592.200195312 159 541 107.900390625 541 44.7998046875 c 0
 541 -18.2998046875 592.200195312 -69.5 655.299804688 -69.5 c 0
 718.400390625 -69.5 769.5 -18.400390625 769.599609375 44.7001953125 c 0xe5
 769.599609375 88.7998046875 744.599609375 127.099609375 708 146.099609375 c 0
 702.900390625 148.5 697.799804688 150.700195312 692.700195312 152.700195312 c 0
 681 156.799804688 668.400390625 159 655.299804688 159 c 0
EndSplineSet
Validated: 1
EndChar

StartChar: uniE11E
Encoding: 447 57630 190
Width: 1000
Flags: W
HStem: 379.4 89.5<83.7002 215.4 317.8 530.322 649.5 925.8>
VStem: 173.7 82.8994<-139.4 -31.3239> 215.4 84.6992<243.263 379.4> 711 75.2998<639.121 667.003>
LayerCount: 2
Fore
SplineSet
852.799804688 221.599609375 m 2x90
 862.299804688 216.099609375 865.599609375 203.900390625 860.099609375 194.400390625 c 0
 854.599609375 184.900390625 842.400390625 181.599609375 832.900390625 187.099609375 c 2
 695.099609375 266.700195312 l 2
 685.599609375 272.200195312 682.299804688 284.400390625 687.799804688 293.900390625 c 0
 693.299804688 303.400390625 705.5 306.700195312 715 301.200195312 c 2
 852.799804688 221.599609375 l 2x90
649.5 468.900390625 m 0
 925.799804688 468.900390625 l 1
 925.799804688 379.400390625 l 1
 300.099609375 379.400390625 l 1xb0
 284.200195312 291.400390625 272.299804688 202.700195312 264.599609375 113.5 c 1
 337.400390625 201.700195312 447.700195312 257.900390625 571 257.900390625 c 0
 621.5 257.900390625 671.599609375 248.5 718.299804688 229.900390625 c 0
 727.400390625 226.5 736.099609375 222.599609375 744.299804688 218.099609375 c 0
 744.599609375 217.900390625 744.900390625 217.799804688 745.200195312 217.599609375 c 0
 829.5 171.400390625 869.400390625 69.2001953125 835.200195312 -23.5 c 0
 797.5 -125.799804688 684 -178.099609375 581.700195312 -140.299804688 c 0
 565.900390625 -134.5 551 -126.700195312 537.200195312 -117.099609375 c 1
 584.299804688 -49.5 l 1
 636.400390625 -85.7998046875 708.099609375 -73 744.400390625 -20.900390625 c 0
 780.700195312 31.2001953125 767.900390625 102.900390625 715.799804688 139.200195312 c 0
 713.599609375 140.700195312 711.400390625 142.099609375 709.099609375 143.5 c 0
 552.900390625 219.599609375 364.599609375 154.599609375 288.400390625 -1.5 c 0
 267.5 -44.5 256.599609375 -91.599609375 256.599609375 -139.400390625 c 1
 173.700195312 -139.400390625 l 1
 173.700195312 -138.599609375 173.700195312 -137.700195312 173.700195312 -136.799804688 c 0xd0
 173.700195312 36.400390625 187 209.200195312 215.400390625 379.400390625 c 1xb0
 83.7001953125 379.400390625 l 1
 83.7001953125 468.900390625 l 1
 231.799804688 468.900390625 l 1
 249.799804688 559.200195312 272.200195312 648.700195312 299.299804688 737.099609375 c 1
 380.900390625 712.099609375 l 1
 356.299804688 631.900390625 335.299804688 550.700195312 317.799804688 468.900390625 c 1
 455.299804688 468.900390625 l 1
 574.599609375 487.299804688 674.299804688 571.799804688 711 688.5 c 1
 786.299804688 664.799804688 l 1
 761.299804688 585.200195312 712.700195312 517.599609375 649.5 468.900390625 c 0
EndSplineSet
Validated: 33
EndChar

StartChar: uniE11F
Encoding: 448 57631 191
Width: 1000
Flags: W
HStem: -152.7 83.2002<158.97 289.895> 159 83.0996<158.97 290.349> 226.3 36.7998<584.206 778.894> 379.4 89.5<83.7002 298.8 384.2 530.322 649.5 925.8>
VStem: 26.2998 83.1006<-19.9795 109.463> 298.3 85.9004<227.4 379.4 468.9 721.1> 711 75.2998<639.121 667.003>
LayerCount: 2
Fore
SplineSet
602.599609375 263.099609375 m 2xbe
 760.5 263.099609375 l 2
 770.700195312 263.099609375 778.900390625 254.900390625 778.900390625 244.700195312 c 0
 778.900390625 234.5 770.700195312 226.299804688 760.5 226.299804688 c 2
 602.599609375 226.299804688 l 2
 592.5 226.299804688 584.200195312 234.599609375 584.200195312 244.700195312 c 0
 584.200195312 254.900390625 592.400390625 263.099609375 602.599609375 263.099609375 c 2xbe
913.400390625 18.599609375 m 1
 973 -42.7998046875 l 1
 815.200195312 -195.799804688 563.299804688 -191.799804688 410.400390625 -34 c 0
 409.099609375 -32.599609375 407.799804688 -31.2998046875 406.5 -29.900390625 c 1
 377.099609375 -101.900390625 306.299804688 -152.700195312 223.700195312 -152.700195312 c 0
 114.700195312 -152.700195312 26.2998046875 -64.2998046875 26.2998046875 44.7001953125 c 0
 26.2998046875 153.700195312 114.700195312 242.099609375 223.700195312 242.099609375 c 0xde
 250.099609375 242.099609375 275.400390625 236.900390625 298.5 227.400390625 c 1
 298.400390625 229.400390625 298.299804688 231.299804688 298.299804688 233.200195312 c 2
 298.799804688 379.400390625 l 1
 83.7001953125 379.400390625 l 1
 83.7001953125 468.900390625 l 1
 299.099609375 468.900390625 l 1
 300 721.099609375 l 1
 384.099609375 721.099609375 l 1
 384.099609375 468.900390625 l 1
 455.299804688 468.900390625 l 1
 574.599609375 487.299804688 674.299804688 571.799804688 711 688.5 c 1
 786.299804688 664.799804688 l 1
 761.299804688 585.200195312 712.700195312 517.599609375 649.5 468.900390625 c 1
 925.799804688 468.900390625 l 1
 925.799804688 379.400390625 l 1
 384.200195312 379.400390625 l 1
 384.200195312 224.400390625 l 1
 394 57.099609375 534.799804688 -73.599609375 703.700195312 -69.400390625 c 0
 782.200195312 -67.400390625 857 -36 913.400390625 18.599609375 c 1
223.700195312 -69.5 m 0
 286.799804688 -69.5 338 -18.400390625 338 44.7001953125 c 0
 338 107.799804688 286.799804688 159 223.700195312 159 c 0
 160.599609375 159 109.400390625 107.900390625 109.400390625 44.7998046875 c 0
 109.400390625 -18.2998046875 160.599609375 -69.5 223.700195312 -69.5 c 0
EndSplineSet
Validated: 33
EndChar

StartChar: uniE120
Encoding: 449 57632 192
Width: 1000
Flags: W
HStem: -72.5996 83<316.611 452.436> 227.4 36.7998<652.706 852.69> 239 83.0996<316.301 452.436> 379.4 89.5<83.7002 213.2 317.5 530.322 649.5 925.8>
VStem: 168.4 85.2998<-135.8 -30.5178> 501.1 83.1006<60.0203 189.474> 711 75.2998<639.121 667.003>
LayerCount: 2
Fore
SplineSet
834.200195312 264.200195312 m 2xde
 844.400390625 264.200195312 852.599609375 255.900390625 852.700195312 245.799804688 c 0
 852.700195312 235.599609375 844.5 227.400390625 834.299804688 227.400390625 c 2
 671.099609375 227.400390625 l 2
 660.900390625 227.400390625 652.700195312 235.599609375 652.700195312 245.799804688 c 0
 652.700195312 256 660.900390625 264.200195312 671.099609375 264.200195312 c 2
 834.200195312 264.200195312 l 2xde
649.5 468.900390625 m 1
 925.799804688 468.900390625 l 1
 925.799804688 379.400390625 l 1
 299.900390625 379.400390625 l 1
 294.900390625 352 290.400390625 324.400390625 286.200195312 296.799804688 c 1
 315.200195312 312.900390625 348.599609375 322.099609375 384.200195312 322.099609375 c 0xbe
 494.700195312 322.099609375 584.200195312 233.799804688 584.200195312 124.799804688 c 0
 584.200195312 15.7998046875 494.700195312 -72.599609375 384.200195312 -72.599609375 c 0
 335.299804688 -72.599609375 290.5 -55.2998046875 255.799804688 -26.599609375 c 1
 254.400390625 -63 253.700195312 -99.400390625 253.700195312 -135.799804688 c 1
 168.400390625 -135.799804688 l 1
 168.400390625 37.099609375 183.400390625 209.5 213.200195312 379.400390625 c 1
 83.7001953125 379.400390625 l 1
 83.7001953125 468.900390625 l 1
 230.299804688 468.900390625 l 1
 249.099609375 559.599609375 272 649.400390625 299.200195312 738.099609375 c 1
 380.799804688 713.099609375 l 1
 356.099609375 632.599609375 335 551.099609375 317.5 468.900390625 c 1
 455.299804688 468.900390625 l 1
 574.599609375 487.299804688 674.299804688 571.799804688 711 688.5 c 1
 786.299804688 664.799804688 l 1
 761.299804688 585.200195312 712.700195312 517.599609375 649.5 468.900390625 c 1
384.200195312 239 m 0
 319.599609375 239 267.299804688 187.799804688 267.299804688 124.700195312 c 0
 267.299804688 61.599609375 319.599609375 10.400390625 384.200195312 10.400390625 c 0
 448.799804688 10.400390625 501.099609375 61.599609375 501.099609375 124.700195312 c 0
 501.099609375 187.799804688 448.799804688 239 384.200195312 239 c 0
EndSplineSet
Validated: 1
EndChar

StartChar: uniE121
Encoding: 450 57633 193
Width: 1000
Flags: W
HStem: -149.1 86.0996<367.212 591.138> 268.3 42.2002<689.407 889.493> 379.4 89.5<83.7002 171.5 271.2 530.322 649.5 925.8>
VStem: 157.9 85.8994<60.4241 375.795> 711 75.2998<639.121 667.003> 789.6 84.2002<-142.2 1.7998 135.828 242.2>
LayerCount: 2
Fore
SplineSet
868.400390625 310.5 m 2
 880 310.5 889.5 301.099609375 889.5 289.400390625 c 0
 889.5 277.700195312 880 268.299804688 868.400390625 268.299804688 c 2
 710.5 268.299804688 l 2
 698.799804688 268.299804688 689.400390625 277.700195312 689.400390625 289.400390625 c 0
 689.400390625 301.099609375 698.900390625 310.5 710.5 310.5 c 2
 868.400390625 310.5 l 2
649.5 468.900390625 m 1
 925.799804688 468.900390625 l 1
 925.799804688 379.400390625 l 1
 258 379.400390625 l 1
 248.799804688 304.400390625 244 228.799804688 243.799804688 153 c 0
 241.799804688 37.900390625 333.200195312 -57.5 447.599609375 -63 c 1
 482.200195312 -63 l 2
 645.900390625 -60.7998046875 779.5 67.5 789.5 229.700195312 c 2
 790 242.200195312 l 2
 790 242.700195312 790 243.200195312 790 243.700195312 c 1
 874 242.200195312 l 1
 873.799804688 231.200195312 873.900390625 220.599609375 873.799804688 209.700195312 c 2
 873.799804688 -142.200195312 l 1
 789.599609375 -142.200195312 l 1
 789.599609375 1.7998046875 l 1
 716.900390625 -89.7001953125 604.900390625 -148.299804688 479.299804688 -148.799804688 c 2
 451.599609375 -149.099609375 l 1
 289.700195312 -145.599609375 158.799804688 -13.7998046875 157.900390625 147.299804688 c 0
 157.900390625 224.900390625 162.5 302.5 171.5 379.400390625 c 1
 83.7001953125 379.400390625 l 1
 83.7001953125 468.900390625 l 1
 184.099609375 468.900390625 l 1
 198.700195312 558.5 219.5 647.200195312 246.400390625 734.200195312 c 1
 328.5 708.900390625 l 1
 304.200195312 630.099609375 285.099609375 549.900390625 271.200195312 468.900390625 c 1
 455.299804688 468.900390625 l 1
 574.599609375 487.299804688 674.299804688 571.799804688 711 688.5 c 1
 786.299804688 664.799804688 l 1
 761.299804688 585.200195312 712.700195312 517.599609375 649.5 468.900390625 c 1
EndSplineSet
Validated: 33
EndChar

StartChar: uniE122
Encoding: 451 57634 194
Width: 1000
Flags: W
HStem: -152.6 83.0996<595.82 725.279> 159 98.9004<517.25 710.916> 379.4 89.5<83.7002 229.2 333.3 530.322 649.5 925.8> 526.3 34.2002<850.397 912.703> 628.9 34.1992<850.397 912.681>
VStem: 184.2 82.8994<-139.4 -31.3239> 229.2 86.5996<243.263 379.4> 463.2 83<-19.9297 111.21> 711 75.2998<639.121 667.003> 774.8 83.2002<-19.9628 111.144> 810.5 34.2002<566.213 623.187> 918.3 34.4004<566.213 623.187>
LayerCount: 2
Fore
SplineSet
810.5 594.700195312 m 5xf930
 810.5 632.5 842.299804688 663.099609375 881.599609375 663.099609375 c 4
 920.799804688 663.099609375 952.700195312 632.5 952.700195312 594.700195312 c 4
 952.700195312 556.900390625 920.900390625 526.299804688 881.599609375 526.299804688 c 4
 842.299804688 526.299804688 810.5 556.900390625 810.5 594.700195312 c 5xf930
844.700195312 594.700195312 m 5
 844.700195312 575.799804688 861.200195312 560.5 881.5 560.5 c 4
 901.799804688 560.5 918.299804688 575.799804688 918.299804688 594.700195312 c 4
 918.299804688 613.599609375 901.799804688 628.900390625 881.5 628.900390625 c 4
 861.200195312 628.900390625 844.700195312 613.599609375 844.700195312 594.700195312 c 5
925.799804688 379.400390625 m 2
 315.799804688 379.400390625 l 1xfb90
 300.299804688 293.700195312 288.599609375 207.200195312 280.900390625 120.299804688 c 1
 353.799804688 204.599609375 461.5 257.900390625 581.599609375 257.900390625 c 0
 629.099609375 257.900390625 676.200195312 249.299804688 720.5 232.799804688 c 0
 732.599609375 228.900390625 744.200195312 223.900390625 755.200195312 217.900390625 c 0
 755.400390625 217.799804688 755.599609375 217.700195312 755.799804688 217.599609375 c 0
 816.700195312 184 857.900390625 119.200195312 858 44.7998046875 c 0
 858 -64.2001953125 769.599609375 -152.599609375 660.599609375 -152.599609375 c 0
 551.599609375 -152.599609375 463.200195312 -64.2001953125 463.200195312 44.7998046875 c 0
 463.200195312 90.2001953125 478.599609375 132 504.400390625 165.400390625 c 1
 417.900390625 143.400390625 341.200195312 84.900390625 299 -1.599609375 c 0
 284 -32.2001953125 274.200195312 -65 269.799804688 -98.599609375 c 0
 267.799804688 -111.5 267.099609375 -124.099609375 267.099609375 -136.799804688 c 0
 267.099609375 -137.599609375 267.099609375 -138.5 267.099609375 -139.400390625 c 1
 184.200195312 -139.400390625 l 1
 184.200195312 -138.599609375 184.200195312 -137.700195312 184.200195312 -136.799804688 c 0xfd50
 184.200195312 36.400390625 199.299804688 209.200195312 229.200195312 379.400390625 c 1
 83.7001953125 379.400390625 l 1
 83.7001953125 468.900390625 l 1
 246.200195312 468.900390625 l 1
 264.799804688 559 287.700195312 648.200195312 314.599609375 736.400390625 c 1
 396.099609375 711.400390625 l 1
 371.700195312 631.400390625 350.700195312 550.5 333.299804688 468.900390625 c 1
 455.299804688 468.900390625 l 1
 574.599609375 487.299804688 674.299804688 571.799804688 711 688.5 c 1
 786.299804688 664.799804688 l 1xfb90
 761.299804688 585.200195312 712.700195312 517.599609375 649.5 468.900390625 c 1
 925.799804688 468.900390625 l 1
 925.799804688 379.400390625 l 2
660.5 159 m 0
 597.400390625 159 546.200195312 107.900390625 546.200195312 44.7998046875 c 0
 546.200195312 -18.2998046875 597.400390625 -69.5 660.5 -69.5 c 0
 723.599609375 -69.5 774.799804688 -18.400390625 774.799804688 44.7001953125 c 0xf950
 774.799804688 88.7998046875 749.799804688 127.099609375 713.200195312 146.099609375 c 0
 708.099609375 148.5 703 150.700195312 697.900390625 152.700195312 c 0
 686.200195312 156.799804688 673.599609375 159 660.5 159 c 0
EndSplineSet
Validated: 1
EndChar

StartChar: uniE123
Encoding: 452 57635 195
Width: 1000
Flags: W
HStem: 379.4 89.5<83.7002 220.7 323.1 530.322 649.5 925.8> 526.3 34.2002<850.397 912.703> 628.9 34.1992<850.397 912.681>
VStem: 179 82.9004<-139.4 -31.2854> 220.7 84.7002<243.279 379.4> 711 75.2998<639.121 667.003> 810.5 34.2002<566.213 623.187> 918.3 34.4004<566.213 623.187>
LayerCount: 2
Fore
SplineSet
810.5 594.700195312 m 5xe7
 810.5 632.5 842.299804688 663.099609375 881.599609375 663.099609375 c 4
 920.799804688 663.099609375 952.700195312 632.5 952.700195312 594.700195312 c 4
 952.700195312 556.900390625 920.900390625 526.299804688 881.599609375 526.299804688 c 4
 842.299804688 526.299804688 810.5 556.900390625 810.5 594.700195312 c 5xe7
844.700195312 594.700195312 m 5
 844.700195312 575.799804688 861.200195312 560.5 881.5 560.5 c 4
 901.799804688 560.5 918.299804688 575.799804688 918.299804688 594.700195312 c 4
 918.299804688 613.599609375 901.799804688 628.900390625 881.5 628.900390625 c 4
 861.200195312 628.900390625 844.700195312 613.599609375 844.700195312 594.700195312 c 5
925.799804688 379.400390625 m 2
 305.400390625 379.400390625 l 1xef
 289.5 291.400390625 277.599609375 202.700195312 269.900390625 113.5 c 1
 342.700195312 201.700195312 453 257.900390625 576.299804688 257.900390625 c 0
 626.799804688 257.900390625 676.900390625 248.5 723.599609375 229.900390625 c 0
 732.700195312 226.5 741.400390625 222.599609375 749.599609375 218.099609375 c 0
 749.900390625 217.900390625 750.200195312 217.799804688 750.5 217.599609375 c 0
 834.700195312 171.400390625 874.700195312 69.2001953125 840.5 -23.5 c 0
 802.799804688 -125.799804688 689.299804688 -178.099609375 587 -140.299804688 c 0
 571.200195312 -134.5 556.299804688 -126.700195312 542.5 -117.099609375 c 1
 589.599609375 -49.5 l 1
 641.700195312 -85.7998046875 713.400390625 -73 749.700195312 -20.900390625 c 0
 786 31.2001953125 773.200195312 102.900390625 721.099609375 139.200195312 c 0
 718.900390625 140.700195312 716.700195312 142.099609375 714.400390625 143.5 c 0
 558.200195312 219.599609375 369.900390625 154.599609375 293.700195312 -1.5 c 0
 272.799804688 -44.5 261.900390625 -91.599609375 261.900390625 -139.400390625 c 1
 179 -139.400390625 l 1
 179 -138.599609375 179 -137.700195312 179 -136.799804688 c 0xf7
 179 36.5 192.299804688 209.200195312 220.700195312 379.400390625 c 1xef
 83.7001953125 379.400390625 l 1
 83.7001953125 468.900390625 l 1
 237 468.900390625 l 1
 255 559.200195312 277.400390625 648.700195312 304.5 737.099609375 c 1
 386.099609375 712.099609375 l 1
 361.599609375 631.900390625 340.599609375 550.700195312 323.099609375 468.900390625 c 1
 455.299804688 468.900390625 l 1
 574.599609375 487.299804688 674.299804688 571.799804688 711 688.5 c 1
 786.299804688 664.799804688 l 1
 761.299804688 585.200195312 712.700195312 517.599609375 649.5 468.900390625 c 1
 925.799804688 468.900390625 l 1
 925.799804688 379.400390625 l 2
EndSplineSet
Validated: 33
EndChar

StartChar: uniE124
Encoding: 453 57636 196
Width: 1000
Flags: W
HStem: -152.7 83.1006<164.22 295.136> 159 83.0996<164.22 295.673> 379.4 89.5<83.7002 304 389.5 530.322 649.5 925.8> 526.3 34.2002<850.397 912.703> 628.9 34.1992<850.397 912.681>
VStem: 31.5996 83<-20.0295 109.43> 303.6 85.9004<227.5 379.4 468.9 721.1> 711 75.2998<639.121 667.003> 810.5 34.2002<566.213 623.187> 918.3 34.4004<566.213 623.187>
LayerCount: 2
Fore
SplineSet
810.5 594.700195312 m 5
 810.5 632.5 842.299804688 663.099609375 881.599609375 663.099609375 c 4
 920.799804688 663.099609375 952.700195312 632.5 952.700195312 594.700195312 c 4
 952.700195312 556.900390625 920.900390625 526.299804688 881.599609375 526.299804688 c 4
 842.299804688 526.299804688 810.5 556.900390625 810.5 594.700195312 c 5
844.700195312 594.700195312 m 5
 844.700195312 575.799804688 861.200195312 560.5 881.5 560.5 c 4
 901.799804688 560.5 918.299804688 575.799804688 918.299804688 594.700195312 c 4
 918.299804688 613.599609375 901.799804688 628.900390625 881.5 628.900390625 c 4
 861.200195312 628.900390625 844.700195312 613.599609375 844.700195312 594.700195312 c 5
918.5 18.599609375 m 1
 978 -42.7001953125 l 1
 820.200195312 -195.700195312 568.299804688 -191.700195312 415.400390625 -33.900390625 c 0
 414.200195312 -32.599609375 412.900390625 -31.2998046875 411.700195312 -30 c 1
 382.299804688 -102 311.599609375 -152.700195312 229 -152.700195312 c 0
 120 -152.700195312 31.599609375 -64.2998046875 31.599609375 44.7001953125 c 0
 31.599609375 153.700195312 120 242.099609375 229 242.099609375 c 0
 255.400390625 242.099609375 280.599609375 236.900390625 303.599609375 227.5 c 1
 303.5 229.400390625 303.400390625 231.299804688 303.400390625 233.200195312 c 2
 304 379.400390625 l 1
 83.7001953125 379.400390625 l 1
 83.7001953125 468.900390625 l 1
 304.200195312 468.900390625 l 1
 305.200195312 721.099609375 l 1
 389.400390625 721.099609375 l 1
 389.400390625 468.900390625 l 1
 455.299804688 468.900390625 l 1
 574.599609375 487.299804688 674.299804688 571.799804688 711 688.5 c 1
 786.299804688 664.799804688 l 1
 761.299804688 585.200195312 712.700195312 517.599609375 649.5 468.900390625 c 1
 925.799804688 468.900390625 l 1
 925.799804688 379.400390625 l 1
 389.5 379.400390625 l 1
 389.5 221.299804688 l 1
 400.900390625 55.5 541 -73.5 708.799804688 -69.400390625 c 0
 787.299804688 -67.400390625 862.099609375 -36 918.5 18.599609375 c 1
228.900390625 -69.599609375 m 0
 292 -69.599609375 343.200195312 -18.400390625 343.200195312 44.7001953125 c 0
 343.200195312 59.599609375 340.400390625 73.7998046875 335.099609375 86.7998046875 c 0
 334.599609375 88.2001953125 334 89.599609375 333.400390625 91 c 0
 315.700195312 131 275.599609375 159 228.900390625 159 c 0
 165.799804688 159 114.599609375 107.799804688 114.599609375 44.7001953125 c 0
 114.599609375 -18.400390625 165.799804688 -69.599609375 228.900390625 -69.599609375 c 0
EndSplineSet
Validated: 33
EndChar

StartChar: uniE125
Encoding: 454 57637 197
Width: 1000
Flags: W
HStem: -73.5996 83<321.911 457.715> 238 83.0996<321.601 457.716> 379.4 89.5<83.7002 218.7 323 530.322 649.5 925.8> 526.3 34.2002<850.397 912.703> 628.9 34.1992<850.397 912.681>
VStem: 173.7 85.2998<-136.8 -31.3239> 506.4 83.0996<59.0203 188.474> 711 75.2998<639.121 667.003> 810.5 34.2002<566.213 623.187> 918.3 34.4004<566.213 623.187>
LayerCount: 2
Fore
SplineSet
810.5 594.700195312 m 5
 810.5 632.5 842.299804688 663.099609375 881.599609375 663.099609375 c 4
 920.799804688 663.099609375 952.700195312 632.5 952.700195312 594.700195312 c 4
 952.700195312 556.900390625 920.900390625 526.299804688 881.599609375 526.299804688 c 4
 842.299804688 526.299804688 810.5 556.900390625 810.5 594.700195312 c 5
844.700195312 594.700195312 m 5
 844.700195312 575.799804688 861.200195312 560.5 881.5 560.5 c 4
 901.799804688 560.5 918.299804688 575.799804688 918.299804688 594.700195312 c 4
 918.299804688 613.599609375 901.799804688 628.900390625 881.5 628.900390625 c 4
 861.200195312 628.900390625 844.700195312 613.599609375 844.700195312 594.700195312 c 5
925.799804688 379.400390625 m 1
 305.400390625 379.400390625 l 1
 300.299804688 351.599609375 295.700195312 323.700195312 291.5 295.799804688 c 1
 320.5 311.900390625 353.900390625 321.099609375 389.5 321.099609375 c 0
 499.900390625 321.099609375 589.5 232.799804688 589.5 123.799804688 c 0
 589.5 14.7998046875 500 -73.599609375 389.5 -73.599609375 c 0
 340.599609375 -73.599609375 295.799804688 -56.2998046875 261.099609375 -27.599609375 c 1
 259.700195312 -64 259 -100.400390625 259 -136.799804688 c 1
 173.700195312 -136.799804688 l 1
 173.700195312 36.400390625 188.799804688 209.200195312 218.700195312 379.400390625 c 1
 83.7001953125 379.400390625 l 1
 83.7001953125 468.900390625 l 1
 235.799804688 468.900390625 l 1
 254.5 559.200195312 277.400390625 648.700195312 304.5 737.099609375 c 1
 386.099609375 712.099609375 l 1
 361.5 631.900390625 340.5 550.799804688 323 468.900390625 c 1
 455.299804688 468.900390625 l 1
 574.599609375 487.299804688 674.299804688 571.799804688 711 688.5 c 1
 786.299804688 664.799804688 l 1
 761.299804688 585.200195312 712.700195312 517.599609375 649.5 468.900390625 c 1
 925.799804688 468.900390625 l 1
 925.799804688 379.400390625 l 1
389.5 238 m 0
 324.900390625 238 272.599609375 186.799804688 272.599609375 123.700195312 c 0
 272.599609375 60.599609375 324.900390625 9.400390625 389.5 9.400390625 c 0
 454 9.400390625 506.400390625 60.599609375 506.400390625 123.700195312 c 0
 506.400390625 186.799804688 454.099609375 238 389.5 238 c 0
EndSplineSet
Validated: 1
EndChar

StartChar: uniE126
Encoding: 455 57638 198
Width: 1000
Flags: W
HStem: -149.1 85.8994<356.333 576.081> 379.4 89.5<83.7002 161 260.7 530.322 649.5 925.8> 526.3 34.2002<850.397 912.703> 628.9 34.1992<850.397 912.681>
VStem: 147.4 85.8994<60.4241 375.795> 711 75.2998<639.121 667.003> 779.1 85.5<208.525 242.1> 810.5 34.2002<566.213 623.187> 918.3 34.4004<566.213 623.187>
LayerCount: 2
Fore
SplineSet
810.5 594.700195312 m 5xf980
 810.5 632.5 842.299804688 663.099609375 881.599609375 663.099609375 c 4
 920.799804688 663.099609375 952.700195312 632.5 952.700195312 594.700195312 c 4
 952.700195312 556.900390625 920.900390625 526.299804688 881.599609375 526.299804688 c 4
 842.299804688 526.299804688 810.5 556.900390625 810.5 594.700195312 c 5xf980
844.700195312 594.700195312 m 5
 844.700195312 575.799804688 861.200195312 560.5 881.5 560.5 c 4
 901.799804688 560.5 918.299804688 575.799804688 918.299804688 594.700195312 c 4
 918.299804688 613.599609375 901.799804688 628.900390625 881.5 628.900390625 c 4
 861.200195312 628.900390625 844.700195312 613.599609375 844.700195312 594.700195312 c 5
862.599609375 208 m 1
 949.5 161.799804688 991.099609375 57.2998046875 956.099609375 -37.7998046875 c 0
 917.799804688 -141.400390625 802.799804688 -194.400390625 699.200195312 -156.099609375 c 0
 673.700195312 -146.700195312 650.400390625 -132.200195312 630.799804688 -113.599609375 c 1
 581.200195312 -136 526.200195312 -148.599609375 468.299804688 -148.799804688 c 2
 440.599609375 -149.099609375 l 1
 278.799804688 -145.599609375 148.299804688 -13.7998046875 147.400390625 147.299804688 c 0
 147.400390625 224.900390625 152 302.5 161 379.400390625 c 1
 83.7001953125 379.400390625 l 1
 83.7001953125 468.900390625 l 1
 173.599609375 468.900390625 l 1
 188.200195312 558.5 209 647.200195312 235.900390625 734.200195312 c 1
 318 708.900390625 l 1
 293.700195312 630.099609375 274.599609375 549.900390625 260.700195312 468.900390625 c 1
 455.299804688 468.900390625 l 1
 574.599609375 487.299804688 674.299804688 571.799804688 711 688.5 c 1
 786.299804688 664.799804688 l 1xfc80
 761.299804688 585.200195312 712.700195312 517.599609375 649.5 468.900390625 c 1
 925.799804688 468.900390625 l 1
 925.799804688 379.400390625 l 1
 247.5 379.400390625 l 1
 238.299804688 304.400390625 233.5 228.799804688 233.299804688 153 c 0
 231.299804688 37.900390625 322.299804688 -57.5 436.599609375 -63.2001953125 c 1
 471.200195312 -63.2001953125 l 2
 639.599609375 -60.900390625 776.200195312 74.7998046875 779.099609375 243.599609375 c 1
 864.599609375 242.099609375 l 1xfa80
 864.400390625 230.599609375 863.799804688 219.200195312 862.599609375 208 c 1
841.5 -58.7998046875 m 0
 891.5 -18.5 899.200195312 54.7998046875 858.700195312 104.700195312 c 0
 854.099609375 110.400390625 848.900390625 115.700195312 843.299804688 120.400390625 c 1
 817.5 44.900390625 769.700195312 -20.2998046875 707.599609375 -67.599609375 c 1
 748.400390625 -92.5 802.200195312 -90.599609375 841.5 -58.7998046875 c 0
EndSplineSet
Validated: 33
EndChar

